<svg width="364" height="405" viewBox="0 0 364 405" fill="none" xmlns="http://www.w3.org/2000/svg">
<g clip-path="url(#clip0)">
<path d="M-2.65431 7.29077C-38.0518 17.8572 -49.5692 21.978 -61.9319 28.2122C-74.2945 34.3408 -88.3479 44.6958 -98.4916 55.0509C-110.432 67.4136 -176.049 144.231 -176.577 146.662C-177 147.93 -176.894 150.149 -176.577 151.628C-175.732 154.798 -103.035 242.393 -99.7596 244.084C-95.85 246.303 -91.2008 244.507 -78.4155 236.265C-71.5473 231.827 -65.8414 228.234 -65.5244 228.234C-65.2074 228.234 -64.9961 294.486 -64.9961 375.53C-64.9961 522.403 -64.9961 522.72 -62.7772 525.467C-60.0299 529.166 -57.0713 529.8 -30.6553 532.97C57.9969 543.642 134.498 543.536 222.41 532.441C243.966 529.8 247.136 528.954 249.777 525.467C251.996 522.72 251.996 522.403 251.996 375.53C251.996 294.486 252.313 228.234 252.63 228.234C253.053 228.234 258.864 231.827 265.521 236.265C278.095 244.507 282.744 246.303 286.76 244.084C290.035 242.393 362.732 154.798 363.577 151.628C363.894 150.149 364 147.93 363.577 146.556C363.049 144.231 297.432 67.4136 285.492 55.0509C274.608 43.8505 261.083 34.1294 247.241 27.4726C232.554 20.3931 230.229 19.5478 192.93 8.34741L165.035 -6.10352e-05L93.0773 0.105591L21.1201 0.211243L-2.65431 7.29077ZM143.162 23.9857C133.758 36.0314 101.636 58.1152 93.5 58.1152C85.3638 58.1152 55.3553 37.6163 44.4718 24.514L41.5133 21.1328H93.5H145.381L143.162 23.9857ZM20.5918 29.2689C26.6146 37.2993 41.7246 51.881 51.8683 59.4888C62.7517 67.5193 78.6013 76.1837 87.4771 78.7197C93.0773 80.3046 93.9226 80.3046 99.5228 78.7197C118.225 73.2251 144.641 54.6283 161.442 35.0804C165.563 30.2198 169.367 25.782 169.789 25.0423C170.635 23.6687 182.892 26.9443 211.632 36.1371C240.162 45.2242 252.207 52.0923 268.374 68.1533C277.778 77.5573 338.535 147.613 338.746 149.303C338.746 149.832 325.644 165.998 309.583 185.44L280.208 220.627L267.951 212.596C250.305 201.079 251.996 203.826 251.996 186.92C251.996 173.289 251.785 172.127 249.566 169.591C244.177 163.251 234.245 165.787 231.92 174.134C231.286 176.776 230.863 233.518 230.863 344.042V510.04L221.142 511.308C173.91 517.437 143.69 519.233 93.5 519.233C43.8379 519.233 14.4633 517.543 -28.542 511.942C-34.8819 511.097 -41.0104 510.357 -41.9613 510.357C-43.7576 510.357 -43.8633 501.693 -43.8633 344.148C-43.8633 236.687 -44.2859 176.67 -44.9199 174.24C-46.5049 168.745 -49.4635 166.421 -55.1693 166.421C-59.0789 166.421 -60.3469 166.949 -62.4602 169.379C-64.8904 172.232 -64.9961 173.078 -64.9961 186.92C-64.9961 199.494 -65.2074 201.713 -66.7924 203.086C-67.849 204.037 -74.1889 208.264 -80.9514 212.702L-93.2084 220.627L-122.372 185.546C-138.433 166.315 -151.535 150.043 -151.641 149.515C-151.746 147.824 -85.4949 71.3232 -78.3098 64.772C-64.9961 52.7263 -50.8371 44.6958 -31.1836 38.2503C-16.3906 33.2841 13.5123 24.4083 15.3086 24.4083C16.1539 24.4083 18.5842 26.6273 20.5918 29.2689Z" fill="#1B2024"/>
<path d="M147.494 111.476C117.803 119.823 106.814 157.545 127.524 180.263C147.177 201.713 183.526 197.169 196.1 171.704C200.749 162.3 202.017 151.945 199.798 142.858C195.149 123.944 180.145 111.264 161.336 110.313C156.053 109.996 151.193 110.419 147.494 111.476ZM165.457 132.291C178.243 136.624 183.631 151.1 176.658 162.934C172.748 169.591 164.612 173.817 156.793 173.078C142.634 171.704 133.864 156.277 139.887 143.175C144.324 133.454 155.313 128.804 165.457 132.291Z" fill="#1B2024"/>
<rect x="104.455" y="109.548" width="107.863" height="107.863" fill="#F3FAFE"/>
<g clip-path="url(#clip1)">
<path d="M172.704 151.768V203.171H153.428V151.768H172.704ZM172.704 132.492H153.428C142.761 132.492 134.151 141.102 134.151 151.768V203.171C134.151 213.838 142.761 222.448 153.428 222.448H172.704C183.37 222.448 191.98 213.838 191.98 203.171V151.768C191.98 141.102 183.37 132.492 172.704 132.492ZM95.5988 151.768H108.45V222.448H127.726V132.492H95.5988V151.768ZM208.044 171.044C202.711 171.044 198.406 175.414 198.406 180.682V193.533C198.406 198.802 202.711 203.171 208.044 203.171H224.107V209.597H198.406V222.448H227.32C232.653 222.448 236.958 218.143 236.958 212.809V199.959C236.958 194.626 232.653 190.32 227.32 190.32H211.256V183.895H236.958V171.044H208.044Z" fill="#8FD5FE"/>
</g>
</g>
<defs>
<clipPath id="clip0">
<rect width="365" height="405" fill="white" transform="translate(-1)"/>
</clipPath>
<clipPath id="clip1">
<rect width="102.807" height="99.8695" fill="white" transform="translate(92.6573 128.087)"/>
</clipPath>
</defs>
</svg>
