<svg width="28" height="29" viewBox="0 0 28 29" fill="none" xmlns="http://www.w3.org/2000/svg">
<g clip-path="url(#clip0_434:71)">
<path d="M23.8525 24.7143H19.7111V17.9836C19.7111 16.3787 19.6787 14.316 17.5455 14.316C15.386 14.316 15.057 16.0569 15.057 17.8649V24.7134H10.9104V10.8741H14.8934V12.7618H14.9468C15.5033 11.6716 16.8569 10.5252 18.8764 10.5252C23.0772 10.5252 23.8569 13.3898 23.8569 17.1145V24.7134L23.8525 24.7143ZM6.22563 8.98275C5.90912 8.98287 5.59569 8.91832 5.30331 8.79278C5.01093 8.66725 4.74533 8.48321 4.52172 8.2512C4.29812 8.01919 4.12091 7.74378 4.00024 7.44072C3.87957 7.13767 3.81781 6.81294 3.8185 6.48512C3.81902 5.99172 3.96078 5.50955 4.22587 5.09958C4.49095 4.68962 4.86745 4.37026 5.30776 4.1819C5.74807 3.99354 6.23242 3.94462 6.69957 4.04134C7.16672 4.13806 7.5957 4.37607 7.93225 4.72528C8.26881 5.07449 8.49783 5.51921 8.59037 6.00322C8.6829 6.48723 8.6348 6.98879 8.45213 7.44449C8.26946 7.90018 7.96044 8.28955 7.56413 8.56335C7.16782 8.83716 6.70202 8.98311 6.22563 8.98275ZM8.30288 24.7143H4.1475V10.875H8.30288V24.7143ZM25.9315 0H2.065C0.924875 0 0 0.934344 0 2.09072V26.9102C0 28.0666 0.924875 29.0009 2.065 29.0009H25.9271C27.0655 29.0009 28 28.0666 28 26.9102V2.09072C28 0.934344 27.0655 0 25.9271 0H25.9315Z" fill="#F3FAFE"/>
</g>
<defs>
<clipPath id="clip0_434:71">
<rect width="28" height="29" fill="white"/>
</clipPath>
</defs>
</svg>
