<svg width="74" height="52" viewBox="0 0 74 52" fill="none" xmlns="http://www.w3.org/2000/svg">
<path d="M71.6622 51.8599C72.6556 51.8238 73.3936 51.7588 73.5167 51.6928C73.6303 51.6268 73.7536 51.4567 73.7917 51.3149C73.8964 50.9461 74.0442 4.42973 73.9438 2.30098C73.88 0.919649 73.8334 0.541152 73.7106 0.417952C73.5878 0.294752 73.1622 0.256165 71.1662 0.176984C68.2999 0.0678965 1.17865 0.0164852 0.724371 0.119753C0.544559 0.15728 0.345643 0.298836 0.250807 0.431115C0.0990438 0.657898 0.0865991 2.36074 0.0453486 25.8981C0.00409806 49.4354 0.010574 51.1383 0.161542 51.3656C0.255913 51.4982 0.454331 51.6405 0.634012 51.6786C1.00282 51.7644 69.278 51.9408 71.6622 51.8599ZM37.9948 45.2637L38.0026 40.8174L36.9147 40.8155L35.8267 40.8136L35.8189 45.2599L35.8111 49.7063L18.9717 49.6768L2.13231 49.6473L2.13951 45.5415L2.1467 41.4357L3.25366 41.3809C7.64364 41.171 8.7225 40.9553 11.1843 39.777C12.8696 38.9759 13.8642 38.2586 15.3521 36.7665C16.8305 35.2838 17.409 34.5091 18.1779 32.9684C19.5545 30.2462 19.9456 28.4021 19.8376 25.2232C19.7568 22.7823 19.4093 21.3248 18.4101 19.2607C17.5617 17.5185 16.8822 16.5807 15.3523 15.036C13.7847 13.4723 12.9532 12.8654 11.1761 12.0203C8.7185 10.8524 7.74443 10.652 3.30791 10.4266L2.20115 10.3679L2.20835 6.26214L2.21554 2.15635L19.0549 2.18586L35.8944 2.21537L35.8865 6.70903L35.8786 11.2027L36.9665 11.2046L38.0545 11.2065L38.0624 6.71285L38.0702 2.21918L54.9569 2.24878L71.8437 2.27837L71.8364 6.39362L71.8292 10.5089L71.6116 10.5085C70.5899 10.5162 67.4487 10.7188 66.7674 10.8311C64.4868 11.1866 61.9116 12.3079 60.1022 13.7332C59.0601 14.5545 57.5816 16.0844 56.8893 17.0576C56.1875 18.0403 55.1243 20.1197 54.7629 21.2165C54.2398 22.7954 54.1631 23.3819 54.1585 25.9929C54.1539 28.604 54.2286 29.1812 54.7461 30.7714C55.1225 31.9263 56.2822 34.1704 56.9901 35.1082C57.764 36.1407 59.275 37.6571 60.3332 38.463C61.2402 39.1458 63.4708 40.3133 64.6338 40.6938C66.0993 41.1788 67.2721 41.3417 70.564 41.4988L71.7748 41.5577L71.7676 45.6635L71.7604 49.7693L54.8737 49.7397L37.987 49.7101L37.9948 45.2637ZM68.2692 39.1676C66.8409 39.061 65.9425 38.8513 64.5433 38.3001C62.7187 37.5874 61.2636 36.5915 59.7999 35.0469C58.4307 33.616 57.4875 32.0061 56.8099 29.9615C56.377 28.6646 56.2836 28.0022 56.2871 25.9872C56.2904 24.1046 56.415 23.1777 56.8619 21.8824C58.2313 17.8641 61.2165 14.8515 65.1923 13.4867C66.4702 13.0443 67.3787 12.8945 69.129 12.8219C69.9048 12.7949 70.832 12.7492 71.1821 12.7215L71.8254 12.6753L71.8181 16.8757L71.8107 21.0855L71.593 21.1419C71.4794 21.1701 70.5144 21.1968 69.4454 21.1949C66.5411 21.1898 65.4813 21.3015 64.7333 21.6691C63.8527 22.1028 62.9429 23.0188 62.4777 23.9641C62.1454 24.6446 62.1073 24.7865 62.0775 25.6284C62.0577 26.1297 62.0849 26.7731 62.1412 27.057C62.4226 28.4293 63.3854 29.6513 64.7087 30.3064C65.5972 30.7431 66.3255 30.8296 69.2866 30.8442C70.4313 30.8462 71.4624 30.8764 71.5759 30.905L71.7934 30.9621L71.786 35.1531L71.7787 39.344L70.6624 39.3042C70.057 39.2748 68.9787 39.2161 68.2692 39.1676ZM2.15799 34.9932C2.16448 31.2942 2.18421 30.8307 2.31674 30.7836C2.40193 30.7554 3.40477 30.7288 4.55894 30.7308C7.61464 30.7267 8.33376 30.6522 9.22381 30.2092C11.0418 29.3136 12.0478 27.4895 11.8907 25.3607C11.7798 23.8752 10.6756 22.3218 9.2389 21.6003C8.3882 21.1825 7.6126 21.096 4.59477 21.0813C3.49737 21.0793 2.51354 21.0492 2.39061 21.0206L2.18258 20.9635L2.18996 16.7537L2.19732 12.5533L2.83108 12.6017C3.19052 12.6307 4.10809 12.6796 4.89325 12.7094C7.11628 12.7984 8.60091 13.1699 10.4346 14.0908C14.2154 15.9895 16.7637 19.4281 17.5603 23.7056C17.7759 24.8412 17.7721 27.0076 17.5525 28.1519C16.5595 33.3818 12.8629 37.396 7.80874 38.7305C6.68243 39.0312 5.70785 39.1241 3.73061 39.1396L2.15071 39.1463L2.15799 34.9932ZM65.7243 28.3972C64.4577 27.7706 63.8646 26.1234 64.4722 24.9041C64.776 24.3087 65.4204 23.7043 65.9031 23.5443C66.1397 23.4785 67.2562 23.4237 69.0348 23.3985L71.8067 23.356L71.802 26.0238L71.7974 28.6917L68.9783 28.6489C66.2726 28.6157 66.1497 28.6061 65.7243 28.3972ZM2.17394 25.8923L2.1786 23.234L4.94094 23.2861C6.88026 23.3179 7.81675 23.3669 8.07203 23.4524C8.57311 23.6331 9.0926 24.107 9.41323 24.6941C9.65842 25.1392 9.69598 25.3001 9.6949 25.915C9.69354 26.6907 9.57002 26.9933 9.02013 27.6734C8.39439 28.4481 7.96852 28.5325 4.55331 28.5454L2.16928 28.5507L2.17394 25.8923Z" fill="#F3FAFE"/>
<path d="M37.5864 13.3478C31.4571 13.3478 26.4825 18.3223 26.4825 24.4516C26.4825 30.5809 31.4571 35.5554 37.5864 35.5554C43.7157 35.5554 48.6902 30.5809 48.6902 24.4516C48.6902 18.3223 43.7157 13.3478 37.5864 13.3478ZM38.6967 17.012L40.1958 15.9572C42.2044 16.5796 43.9275 17.8936 45.0592 19.6658L44.6262 21.1538L43.1272 21.6645L38.6967 18.5666V17.012ZM34.977 15.9572L36.476 17.012V18.5666L32.0456 21.6645L30.5465 21.1538L30.1135 19.6658C31.2518 17.8996 32.9725 16.5876 34.977 15.9572V15.9572ZM32.1233 30.1256L30.8574 30.2367C29.4655 28.631 28.7005 26.5766 28.7033 24.4516C28.7033 24.3183 28.7144 24.1962 28.7255 24.063L29.8359 23.2524L31.3682 23.7854L32.9894 28.6044L32.1233 30.1256V30.1256ZM40.3623 32.8794C39.4851 33.1681 38.5524 33.3346 37.5864 33.3346C36.6203 33.3346 35.6876 33.1681 34.8104 32.8794L34.0442 31.2249L34.7549 30.0035H40.4289L41.1396 31.236L40.3623 32.8794V32.8794ZM40.1069 27.7827H35.0658L33.5668 23.319L37.5864 20.4986L41.617 23.319L40.1069 27.7827ZM44.3153 30.2367L43.0494 30.1256L42.1722 28.6044L43.7934 23.7854L45.3368 23.2635L46.4472 24.0741C46.4583 24.1962 46.4694 24.3183 46.4694 24.4516C46.4694 26.6613 45.6588 28.6821 44.3153 30.2367V30.2367Z" fill="#8FD5FE"/>
</svg>
