<svg width="203" height="65" viewBox="0 0 203 65" fill="none" xmlns="http://www.w3.org/2000/svg">
<path d="M77.4654 44.5447H81.9981V37.5396H82.4337L87.8259 44.5447H93.583L87.2725 36.9862C88.5598 36.5389 89.5526 35.8089 90.2512 34.7964C90.9497 33.776 91.299 32.5555 91.299 31.1349C91.299 29.8634 91.0243 28.7802 90.4749 27.8855C89.9255 26.9828 89.1524 26.2961 88.1555 25.8251C87.1666 25.3542 85.9971 25.1187 84.6471 25.1187H77.4654V44.5447ZM81.9981 33.7721V28.7331H83.1872C84.2625 28.7331 85.0866 28.9529 85.6596 29.3924C86.2326 29.8241 86.5191 30.4481 86.5191 31.2644C86.5191 32.0728 86.2326 32.6929 85.6596 33.1246C85.0945 33.5563 84.2703 33.7721 83.1872 33.7721H81.9981ZM95.7002 44.5447H106.861V40.5653H100.233V36.7979H106.579V32.8185H100.233V29.0981H106.861V25.1187H95.7002V44.5447ZM116.458 44.9215C117.957 44.9215 119.26 44.6821 120.367 44.2033C121.473 43.7167 122.329 43.0181 122.933 42.1076C123.546 41.1972 123.852 40.1022 123.852 38.8229C123.852 37.7162 123.616 36.8018 123.145 36.0797C122.682 35.3497 121.999 34.714 121.097 34.1724C120.202 33.6308 119.111 33.0853 117.824 32.5359C116.984 32.1827 116.356 31.8884 115.94 31.6529C115.524 31.4096 115.316 31.0407 115.316 30.5462C115.316 30.0596 115.508 29.6632 115.893 29.3571C116.285 29.051 116.827 28.898 117.518 28.898C118.185 28.898 118.868 29.0235 119.566 29.2747C120.273 29.518 120.908 29.832 121.473 30.2166L123.31 26.6022C122.831 26.2568 122.262 25.9468 121.603 25.6721C120.944 25.3974 120.249 25.1776 119.519 25.0128C118.797 24.8479 118.095 24.7655 117.412 24.7655C116.101 24.7655 114.951 25.0481 113.962 25.6132C112.981 26.1705 112.22 26.9004 111.678 27.803C111.137 28.6978 110.866 29.6475 110.866 30.6522C110.866 31.8374 111.227 32.8342 111.949 33.6426C112.671 34.4432 113.574 35.0907 114.657 35.5852C115.622 36.0247 116.415 36.4015 117.035 36.7155C117.663 37.0294 118.126 37.3512 118.424 37.6809C118.722 38.0105 118.872 38.4226 118.872 38.9171C118.872 39.5214 118.664 39.9727 118.248 40.271C117.839 40.5693 117.286 40.7184 116.588 40.7184C115.928 40.7184 115.277 40.6046 114.633 40.377C113.997 40.1493 113.405 39.8707 112.855 39.541C112.306 39.2114 111.827 38.8935 111.419 38.5874L109.147 42.402C109.539 42.7395 110.085 43.1044 110.783 43.4969C111.49 43.8893 112.322 44.2268 113.279 44.5094C114.245 44.7841 115.304 44.9215 116.458 44.9215ZM127.364 44.5447H138.525V40.5653H131.897V36.7979H138.243V32.8185H131.897V29.0981H138.525V25.1187H127.364V44.5447ZM143 44.5447H147.533V32.6654L155.162 44.5447H159.695V25.1187H155.162V36.998L147.533 25.1187H143V44.5447ZM164.639 44.5447H169.171V36.7979H175.223V44.5447H179.767V25.1187H175.223V32.8185H169.171V25.1187H164.639V44.5447ZM182.087 44.5447H186.973L188.374 40.7537H195.745L197.134 44.5447H202.02L194.167 25.1187H189.952L182.087 44.5447ZM189.917 36.7743L192.059 31.2762L194.19 36.7743H189.917Z" fill="#F3FAFE"/>
<path d="M34.7419 9.15444C29.8727 10.0557 26.1506 13.6841 25.1558 18.4947C24.91 19.6652 24.91 21.9476 25.1558 23.1064C26.0687 27.5541 29.3928 31.0655 33.8055 32.236C34.8238 32.5052 35.1983 32.5403 36.7316 32.5403C38.2298 32.5403 38.6512 32.4935 39.5993 32.2477C41.7881 31.6625 43.614 30.5856 45.159 28.9704C46.6689 27.402 47.617 25.7399 48.1554 23.7267C48.3895 22.884 48.4246 22.4509 48.4246 20.8006C48.4246 19.1619 48.3895 18.7171 48.1554 17.8744C47.0317 13.6841 43.7778 10.4419 39.6461 9.37683C38.1596 9.00228 36.0996 8.90864 34.7419 9.15444ZM38.2767 13.0287C44.0705 14.2225 46.5518 20.9995 42.9351 25.7282C42.0221 26.9104 40.6293 27.8702 39.0726 28.3735C38.3118 28.6193 37.8904 28.6778 36.8487 28.6895C35.3388 28.7012 34.6365 28.549 33.3373 27.9404C31.6518 27.1445 30.3994 25.9038 29.5918 24.2534C28.9832 23.001 28.7959 22.0412 28.8544 20.4494C28.9364 18.2489 29.5918 16.7859 31.1719 15.1706C33.0213 13.3096 35.7016 12.4903 38.2767 13.0287Z" fill="#F3FAFE"/>
<path d="M16.3545 21.8422C13.6859 22.4977 11.5907 24.5577 10.9236 27.1912C9.76481 31.7326 12.9953 36.1687 17.6537 36.4496C20.615 36.6252 23.4358 34.9982 24.6999 32.3881C25.3086 31.124 25.4842 30.3749 25.4842 29.0523C25.4842 27.7296 25.3086 26.9805 24.6999 25.7164C23.2252 22.6849 19.6552 21.0346 16.3545 21.8422ZM19.6669 25.8686C20.9076 26.5124 21.6216 27.6594 21.6216 29.0523C21.6216 30.4451 20.9193 31.5688 19.6435 32.2476C19.1519 32.5051 18.9061 32.5637 18.1219 32.5637C17.326 32.5637 17.0802 32.5168 16.5184 32.2359C15.8044 31.8848 15.2894 31.3698 14.8797 30.5973C14.6574 30.1876 14.6105 29.9184 14.6105 29.0523C14.6105 28.0925 14.6457 27.9403 14.9734 27.3551C15.3947 26.6177 16.2375 25.9154 17.01 25.6579C17.7591 25.4121 18.9413 25.5058 19.6669 25.8686Z" fill="#F3FAFE"/>
<path d="M53.6449 21.8074C51.5615 22.2521 49.5717 23.8089 48.6471 25.7167C48.0384 26.9808 47.8629 27.7299 47.8629 29.0525C47.8629 31.1126 48.5651 32.8214 50.0165 34.2728C52.9427 37.199 57.6011 37.199 60.4922 34.2728C61.8616 32.88 62.5171 31.3935 62.6224 29.4505C62.7043 28.0576 62.4703 26.8989 61.8733 25.6816C61.2764 24.4877 59.7665 22.9895 58.5609 22.416C56.9925 21.6552 55.2953 21.4445 53.6449 21.8074ZM56.3136 25.6582C57.1212 25.904 57.9523 26.5946 58.3853 27.3671C58.7014 27.9406 58.7365 28.1045 58.7365 29.0525C58.7365 30.0006 58.7014 30.1645 58.3853 30.738C56.6062 33.9451 51.7254 32.7161 51.7254 29.0525C51.7254 26.6414 53.9844 24.9676 56.3136 25.6582Z" fill="#F3FAFE"/>
<path d="M11.3212 38.5097C10.1625 39.0364 9.02713 39.5865 8.79304 39.7387C8.14928 40.1366 7.54064 40.874 7.13098 41.7402L6.76813 42.5127L6.73302 44.8536C6.69791 47.1243 6.69791 47.2062 6.96711 47.7095C7.28314 48.3065 8.03224 48.7747 8.64088 48.7747C9.24952 48.7747 9.99862 48.3065 10.3029 47.7212C10.5487 47.2531 10.5721 47.0775 10.5721 45.3101C10.5721 43.4959 10.5838 43.3905 10.8414 43.1096C10.9818 42.9575 11.8245 42.501 12.7258 42.1147L14.3527 41.4007H17.4545H20.5562L19.7954 42.1967C18.9059 43.1096 18.2387 44.3269 17.9929 45.4857C17.8758 46.0475 17.829 47.1945 17.829 49.711C17.829 53.0703 17.8407 53.1756 18.0982 53.6321C18.8239 54.943 20.8488 54.8845 21.4692 53.5267C21.6681 53.0937 21.6916 52.7074 21.6916 49.8281C21.6916 47.85 21.7384 46.4337 21.8203 46.1411C21.9959 45.5208 22.5343 44.7483 23.0025 44.4674C23.7399 44.0109 29.6975 41.4007 30.0019 41.4007C30.2242 41.4007 30.3764 41.5412 30.6456 41.9977C31.4532 43.3788 33.2089 44.6546 34.8593 45.0877C35.7722 45.3335 37.5748 45.3335 38.4877 45.0877C40.1381 44.6546 41.8938 43.3788 42.7014 41.9977C42.9706 41.5412 43.1228 41.4007 43.3452 41.4007C43.509 41.4007 45.136 42.0679 46.9736 42.8872C51.831 45.0643 51.5735 44.6897 51.6555 49.711C51.714 53.0234 51.7257 53.3161 51.9481 53.6906C52.2173 54.1588 53.0366 54.627 53.5867 54.627C54.2188 54.627 54.9562 54.1588 55.2605 53.5736C55.5063 53.0703 55.518 52.9532 55.518 49.6525C55.518 47.1945 55.4712 46.0475 55.3541 45.4857C55.1083 44.3269 54.4412 43.1096 53.5516 42.1967L52.7908 41.4007H55.8925H58.9943L60.6212 42.1147C61.5225 42.501 62.3652 42.9575 62.5174 43.1096C62.7632 43.3905 62.7749 43.4959 62.7749 45.3101C62.7749 47.0775 62.7983 47.2531 63.0441 47.7212C63.3484 48.3065 64.0975 48.7747 64.7061 48.7747C65.3148 48.7747 66.0639 48.3065 66.3799 47.7095C66.6491 47.2062 66.6491 47.1243 66.614 44.8536L66.5789 42.5127L66.216 41.7519C65.7947 40.8623 65.2914 40.242 64.6008 39.7738C64.3316 39.5865 63.1611 39.013 61.979 38.4863L59.837 37.5382H55.2839H50.7191L49.1507 38.2405L47.5822 38.9428L46.1426 38.2756L44.6912 37.5967L43.1813 37.5616C42.3503 37.5382 41.4958 37.5499 41.2734 37.5967C40.6531 37.7138 40.1264 38.2639 39.7869 39.1534C39.19 40.7219 38.2419 41.4007 36.6735 41.4007C35.1051 41.4007 34.157 40.7219 33.5718 39.1651C33.2557 38.3575 32.8461 37.8659 32.3077 37.667C32.1204 37.5967 31.2777 37.5382 30.4349 37.5382H28.8899L27.3332 38.2405L25.7648 38.9311L24.1964 38.2288L22.6162 37.5382L18.028 37.5499H13.4398L11.3212 38.5097Z" fill="#F3FAFE"/>
<g clip-path="url(#clip0)">
<path d="M35.3415 52.5789V58.8617H32.9854V52.5789H35.3415ZM35.3415 50.2229H32.9854C31.6818 50.2229 30.6294 51.2753 30.6294 52.5789V58.8617C30.6294 60.1654 31.6818 61.2177 32.9854 61.2177H35.3415C36.6451 61.2177 37.6975 60.1654 37.6975 58.8617V52.5789C37.6975 51.2753 36.6451 50.2229 35.3415 50.2229ZM25.9173 52.5789H27.488V61.2177H29.844V50.2229H25.9173V52.5789ZM39.6608 54.935C39.009 54.935 38.4828 55.469 38.4828 56.113V57.6837C38.4828 58.3277 39.009 58.8617 39.6608 58.8617H41.6242V59.647H38.4828V61.2177H42.0169C42.6687 61.2177 43.1949 60.6916 43.1949 60.0397V58.469C43.1949 57.8172 42.6687 57.291 42.0169 57.291H40.0535V56.5057H43.1949V54.935H39.6608Z" fill="#8FD5FE"/>
</g>
<defs>
<clipPath id="clip0">
<rect width="12.5655" height="12.2065" fill="white" transform="translate(25.5578 49.6846)"/>
</clipPath>
</defs>
</svg>
