<svg width="57" height="63" viewBox="0 0 57 63" fill="none" xmlns="http://www.w3.org/2000/svg">
<path d="M25.9204 0.157619C24.8737 0.416206 24.098 0.859501 23.3345 1.64758C22.9282 2.05393 22.4479 2.69425 22.2755 3.06366C22.0908 3.44538 20.3423 9.6515 18.3351 17.0028L14.7272 30.277L8.57036 34.1189C4.81467 36.4708 2.14259 38.2194 1.71161 38.6134C0.664942 39.5862 0.0123137 41.0761 0 42.4922C0 44.0068 0.578745 45.3983 1.65004 46.4696C2.13028 46.9498 6.02141 49.7204 12.6216 54.3011C18.249 58.2045 23.1252 61.5662 23.4823 61.7755C25.1077 62.736 27.2995 63.1793 29.1835 62.933C30.4272 62.7606 31.7202 62.3296 32.6683 61.7755C33.0254 61.5662 37.9017 58.2045 43.529 54.3011C50.1292 49.7204 54.0203 46.9498 54.5006 46.4696C56.717 44.2777 56.6801 40.6944 54.439 38.6134C54.008 38.2194 51.3359 36.4708 47.5803 34.1189L41.4234 30.277L37.8155 17.0028C35.8083 9.6515 34.0598 3.44538 33.8751 3.06366C33.1978 1.65989 31.6463 0.465462 30.0701 0.120678C29.2205 -0.0517159 26.7085 -0.039402 25.9204 0.157619ZM29.6761 3.87637C30.0332 4.02413 30.2672 4.23346 30.4642 4.59056C30.8952 5.3417 32.3235 10.7105 32.1265 10.8336C31.4985 11.2154 24.6521 11.2154 24.0241 10.8336C23.901 10.7597 24.0364 10.0948 24.6152 7.97684C25.4894 4.72601 25.7111 4.22115 26.413 3.91331C27.0656 3.60546 28.9619 3.59315 29.6761 3.87637ZM28.0753 14.7986C29.8977 14.7986 31.2523 14.7371 32.0526 14.6139C32.9269 14.4785 33.284 14.4662 33.321 14.5647C33.5672 15.2789 34.1829 17.7909 34.1213 17.8648C33.8874 18.111 29.9347 18.579 28.0753 18.579C26.2159 18.579 22.2632 18.111 22.0293 17.8648C21.9677 17.7909 22.5834 15.2789 22.8297 14.5647C22.8666 14.4662 23.2237 14.4785 24.098 14.6139C24.8984 14.7371 26.2529 14.7986 28.0753 14.7986ZM23.9502 21.9775C26.8562 22.4085 31.3384 22.2485 34.4292 21.6081L35.1926 21.4481L36.0792 24.7235C36.5718 26.5213 36.9781 28.0482 36.9905 28.1098C37.0274 28.3314 33.715 29.1195 31.4616 29.4274C30.7843 29.5259 29.2574 29.5997 28.0753 29.5997C26.8932 29.5997 25.3663 29.5259 24.689 29.4274C22.4356 29.1195 19.1232 28.3314 19.1602 28.1098C19.1725 28.0482 19.5788 26.5213 20.0714 24.7235L20.958 21.4481L21.7214 21.6081C22.1278 21.6943 23.1375 21.8667 23.9502 21.9775ZM19.3326 32.1117C20.724 32.4935 22.3494 32.8259 24.0364 33.0722C26.1297 33.3677 30.0332 33.3677 32.1388 33.0722C33.7027 32.8383 36.2639 32.2965 37.3722 31.9517C37.7046 31.8532 37.9879 31.7793 38.0002 31.7916C38.1479 32.0009 38.8006 34.87 38.7144 34.9439C38.2957 35.3133 34.2445 36.4092 32.0157 36.754C30.0578 37.0619 26.0928 37.0619 24.1349 36.754C21.9061 36.4092 17.8549 35.3133 17.4362 34.9439C17.2885 34.8085 18.1135 31.73 18.2859 31.8039C18.3598 31.8285 18.8277 31.964 19.3326 32.1117ZM12.363 38.9582C11.8704 40.7929 11.4518 42.4183 11.4518 42.5784C11.4518 42.7508 11.5626 43.1202 11.7104 43.4034C11.932 43.8714 12.1044 44.0068 13.1634 44.5486C16.0694 46.0386 19.9852 47.2453 23.8886 47.8487C25.8588 48.1442 30.2918 48.1442 32.262 47.8487C36.1654 47.2453 40.0812 46.0386 42.9872 44.5486C44.0462 44.0068 44.2186 43.8714 44.4403 43.4034C44.588 43.1202 44.6988 42.7508 44.6988 42.5784C44.6988 42.4183 44.2802 40.7806 43.7876 38.9582C43.2828 37.1234 42.8887 35.6212 42.901 35.6088C42.9134 35.5965 44.9451 36.8525 47.4079 38.3918C52.4072 41.5071 52.5181 41.6056 52.4196 42.7139C52.3949 43.0217 52.2718 43.4281 52.161 43.6128C51.8901 44.0191 31.2769 58.3769 30.341 58.8079C28.8757 59.4729 27.2749 59.4729 25.8096 58.8079C24.8737 58.3769 4.26055 44.0191 4.00196 43.6128C3.44784 42.7754 3.73106 41.581 4.64228 40.9653C5.45498 40.4112 13.2126 35.5719 13.2496 35.6088C13.2619 35.6212 12.8679 37.1357 12.363 38.9582ZM17.4362 38.8966C19.0863 39.463 22.1524 40.2019 23.9502 40.4481C25.0954 40.6082 26.2775 40.6821 28.0753 40.6821C29.8731 40.6821 31.0552 40.6082 32.2004 40.4481C33.9982 40.2019 37.0643 39.463 38.7144 38.9089C39.3177 38.6996 39.8226 38.5395 39.8349 38.5641C39.9704 38.7488 40.623 41.5441 40.5491 41.6179C40.3644 41.8027 37.877 42.7262 36.4117 43.1449C30.6366 44.8318 25.5141 44.8318 19.7389 43.1449C18.2859 42.7262 15.7862 41.8027 15.6015 41.6179C15.5276 41.5441 16.2295 38.5272 16.3157 38.5272C16.328 38.5272 16.8206 38.6996 17.4362 38.8966Z" fill="#8FD5FE"/>
</svg>
