<svg width="63" height="63" viewBox="0 0 63 63" fill="none" xmlns="http://www.w3.org/2000/svg">
<path d="M54.1406 18.7646H38.3906V11.8125C38.3906 10.7235 37.5108 9.84375 36.4219 9.84375H11.3203V7.38281C11.3203 7.11211 11.0988 6.89062 10.8281 6.89062H7.38281C7.11211 6.89062 6.89062 7.11211 6.89062 7.38281V55.6172C6.89062 55.8879 7.11211 56.1094 7.38281 56.1094H10.8281C11.0988 56.1094 11.3203 55.8879 11.3203 55.6172V39.375H26.5781V46.3271C26.5781 47.4161 27.4579 48.2959 28.5469 48.2959H54.1406C55.2296 48.2959 56.1094 47.4161 56.1094 46.3271V20.7334C56.1094 19.6444 55.2296 18.7646 54.1406 18.7646ZM11.3203 34.9453V14.2734H33.9609V34.9453H11.3203ZM51.6797 43.8662H31.0078V39.375H37.8984C38.1691 39.375 38.3906 39.1535 38.3906 38.8828V23.1943H51.6797V43.8662Z" fill="#61C4FF"/>
</svg>
