<svg width="52" height="38" viewBox="0 0 52 38" fill="none" xmlns="http://www.w3.org/2000/svg">
<path d="M0 6.5C0 2.912 2.912 0 6.5 0H45.5C49.088 0 52 2.912 52 6.5V30.6429C52 32.3668 51.3152 34.0201 50.0962 35.2391C48.8772 36.458 47.2239 37.1429 45.5 37.1429H6.5C4.77609 37.1429 3.12279 36.458 1.90381 35.2391C0.684819 34.0201 0 32.3668 0 30.6429V6.5ZM6.5 3.71429C5.76118 3.71429 5.05262 4.00778 4.5302 4.5302C4.00778 5.05262 3.71429 5.76118 3.71429 6.5V30.6429C3.71429 32.1806 4.96229 33.4286 6.5 33.4286H45.5C46.2388 33.4286 46.9474 33.1351 47.4698 32.6127C47.9922 32.0902 48.2857 31.3817 48.2857 30.6429V6.5C48.2857 5.76118 47.9922 5.05262 47.4698 4.5302C46.9474 4.00778 46.2388 3.71429 45.5 3.71429H6.5ZM31.5714 11.1429C31.0789 11.1429 30.6065 11.3385 30.2582 11.6868C29.9099 12.0351 29.7143 12.5075 29.7143 13C29.7143 13.4925 29.9099 13.9649 30.2582 14.3132C30.6065 14.6615 31.0789 14.8571 31.5714 14.8571H42.7143C43.2068 14.8571 43.6792 14.6615 44.0275 14.3132C44.3758 13.9649 44.5714 13.4925 44.5714 13C44.5714 12.5075 44.3758 12.0351 44.0275 11.6868C43.6792 11.3385 43.2068 11.1429 42.7143 11.1429H31.5714ZM31.5714 22.2857C31.0789 22.2857 30.6065 22.4814 30.2582 22.8297C29.9099 23.1779 29.7143 23.6503 29.7143 24.1429C29.7143 24.6354 29.9099 25.1078 30.2582 25.4561C30.6065 25.8043 31.0789 26 31.5714 26H42.7143C43.2068 26 43.6792 25.8043 44.0275 25.4561C44.3758 25.1078 44.5714 24.6354 44.5714 24.1429C44.5714 23.6503 44.3758 23.1779 44.0275 22.8297C43.6792 22.4814 43.2068 22.2857 42.7143 22.2857H31.5714ZM15.8266 17.5091C16.4885 17.5091 17.1439 17.3788 17.7554 17.1255C18.3669 16.8722 18.9226 16.5009 19.3906 16.0329C19.8586 15.5648 20.2299 15.0092 20.4832 14.3977C20.7365 13.7862 20.8669 13.1308 20.8669 12.4689C20.8669 11.807 20.7365 11.1515 20.4832 10.54C20.2299 9.92851 19.8586 9.37287 19.3906 8.90484C18.9226 8.4368 18.3669 8.06554 17.7554 7.81224C17.1439 7.55894 16.4885 7.42857 15.8266 7.42857C14.4898 7.42857 13.2078 7.9596 12.2626 8.90484C11.3173 9.85007 10.7863 11.1321 10.7863 12.4689C10.7863 13.8056 11.3173 15.0876 12.2626 16.0329C13.2078 16.9781 14.4898 17.5091 15.8266 17.5091ZM10.6154 20.0274C9.77022 20.0274 8.95963 20.3632 8.36198 20.9608C7.76433 21.5585 7.42857 22.3691 7.42857 23.2143C7.42869 24.5975 7.89118 25.9411 8.74251 27.0313C9.59385 28.1216 10.7852 28.896 12.1271 29.2314L12.324 29.2834C14.6269 29.8591 17.03 29.8591 19.3291 29.2834L19.5297 29.2351C20.8717 28.8997 22.063 28.1253 22.9143 27.035C23.7657 25.9448 24.2282 24.6013 24.2283 23.218C24.2288 22.7992 24.1467 22.3844 23.9868 21.9973C23.8268 21.6102 23.5922 21.2585 23.2962 20.9622C23.0002 20.6658 22.6487 20.4308 22.2618 20.2704C21.875 20.11 21.4602 20.0274 21.0414 20.0274H10.6154Z" fill="#61C4FF"/>
</svg>
