<svg width="41" height="41" viewBox="0 0 41 41" fill="none" xmlns="http://www.w3.org/2000/svg">
<path fill-rule="evenodd" clip-rule="evenodd" d="M34.6772 6.61242C32.8461 4.73811 30.6676 3.25193 28.2677 2.23997C25.8679 1.22801 23.2944 0.710391 20.6964 0.717106C9.80242 0.717106 0.933996 9.7336 0.929593 20.8167C0.929593 24.3588 1.83889 27.8159 3.56722 30.8654L0.764465 41.279L11.2423 38.4825C14.1406 40.087 17.3877 40.9283 20.6876 40.9297H20.6964C31.5882 40.9297 40.4566 31.9132 40.461 20.8301C40.4685 18.1892 39.9612 15.5729 38.9684 13.1326C37.9757 10.6922 36.5172 8.47611 34.6772 6.61242ZM20.6964 37.5376H20.6898C17.7473 37.5379 14.8589 36.7329 12.3278 35.2068L11.7289 34.8441L5.51132 36.5032L7.16919 30.3392L6.77949 29.7078C5.13436 27.0443 4.26347 23.962 4.26736 20.8167C4.27176 11.6054 11.6408 4.11145 20.703 4.11145C22.8612 4.10657 24.999 4.53704 26.9925 5.37794C28.986 6.21885 30.7957 7.45349 32.3169 9.0104C33.8463 10.5599 35.0585 12.4023 35.8834 14.431C36.7084 16.4598 37.1298 18.6348 37.1232 20.8301C37.1188 30.0414 29.7498 37.5376 20.6964 37.5376ZM29.7079 25.0238C29.2126 24.7708 26.7863 23.5573 26.3327 23.3893C25.8814 23.2214 25.5533 23.1386 25.2231 23.6401C24.8928 24.1416 23.9461 25.2723 23.6577 25.6082C23.3693 25.944 23.0808 25.9843 22.5877 25.7336C22.0945 25.4828 20.5027 24.9522 18.6158 23.2416C17.1473 21.9093 16.1565 20.2659 15.8681 19.7621C15.5797 19.2584 15.8373 18.9874 16.0861 18.7367C16.3084 18.5128 16.5792 18.15 16.8258 17.8567C17.0724 17.5634 17.1539 17.3552 17.319 17.0193C17.4841 16.6835 17.4027 16.3902 17.2772 16.1394C17.1539 15.8864 16.1653 13.4145 15.7536 12.4092C15.3551 11.4353 14.9478 11.5651 14.6439 11.5517C14.3293 11.5386 14.0144 11.5326 13.6994 11.5338C13.449 11.5403 13.2026 11.5993 12.9756 11.7072C12.7487 11.8151 12.5461 11.9695 12.3806 12.1607C11.9271 12.6645 10.6523 13.878 10.6523 16.3499C10.6523 18.8217 12.4224 21.2108 12.669 21.5466C12.9156 21.8825 16.1521 26.9538 21.1059 29.1302C22.286 29.6474 23.2063 29.9563 23.9219 30.1892C25.1042 30.5721 26.1808 30.5161 27.0329 30.3885C27.9818 30.2452 29.9545 29.1749 30.3662 28.0017C30.778 26.8284 30.778 25.8231 30.6547 25.6127C30.5314 25.4022 30.1989 25.2746 29.7079 25.0238Z" fill="#F3FAFE"/>
</svg>
