<svg width="39" height="41" viewBox="0 0 39 41" fill="none" xmlns="http://www.w3.org/2000/svg">
<path d="M14.256 0.121948C12.712 0.535809 11.4306 2.01615 11.2316 3.60792L11.1839 4.01382L6.44838 4.05361L1.71287 4.09341L1.30697 4.3083C1.08413 4.42768 0.749855 4.69032 0.574761 4.88929C-0.0460283 5.59763 0.00172473 4.06953 0.00172473 22.3987C0.00172473 41.0622 -0.0699048 39.2476 0.710061 40.0355C1.49003 40.8155 0.0494775 40.7518 15.601 40.7279L29.2504 40.704L29.5927 40.521C30.0622 40.2743 30.5477 39.7649 30.7467 39.3192C30.8979 38.9929 30.9218 38.77 30.9457 37.1862L30.9775 35.4194L31.1924 35.3796C31.3038 35.3557 31.5585 35.3159 31.7575 35.2841C32.3305 35.2045 33.3413 34.8623 34.0178 34.528C36.5487 33.2625 38.3553 30.8988 38.8806 28.145C39.0398 27.3252 39.0398 25.5902 38.8806 24.7705C38.5384 22.9638 37.6629 21.3482 36.3179 20.0429C35.4902 19.2391 34.8694 18.8013 33.8586 18.3238C33.1423 17.9895 31.7973 17.5836 31.3675 17.5836C31.2561 17.5836 31.1208 17.5518 31.065 17.52C30.9934 17.4722 30.9616 16.0953 30.9457 11.7339C30.9218 6.44127 30.9059 5.97169 30.7785 5.62946C30.5796 5.12806 30.0781 4.57094 29.5767 4.3083L29.1708 4.09341L24.4592 4.06953L19.7396 4.04565L19.7078 3.87056C19.6919 3.77505 19.6362 3.48854 19.5805 3.24181C19.3099 1.88085 18.1001 0.575603 16.7312 0.153786C16.1104 -0.0372276 14.9086 -0.0531464 14.256 0.121948ZM16.5163 1.89677C17.1212 2.17533 17.6862 2.78816 17.8852 3.36119C17.9887 3.65567 18.0205 3.97403 18.0126 4.47543C17.9887 5.13601 18.0046 5.17581 18.2195 5.43049L18.4503 5.68517L20.1296 5.70905L21.8089 5.73293V6.64819V7.5555H15.4419H9.07479V6.64819V5.73293L10.7541 5.70905L12.4334 5.68517L12.6642 5.43049C12.8791 5.18377 12.8871 5.14397 12.8791 4.43563C12.8632 3.78301 12.895 3.63975 13.086 3.21793C13.2054 2.95529 13.4362 2.60511 13.5954 2.43001C14.3356 1.658 15.5533 1.43516 16.5163 1.89677ZM7.40344 6.64023V7.5555H5.91514C4.19603 7.5555 3.87768 7.61917 3.66279 7.97732C3.50361 8.22404 3.50361 8.51056 3.50361 22.3828C3.50361 34.8782 3.51953 36.5575 3.62299 36.7644C3.88563 37.2738 3.10567 37.2419 15.4419 37.2419C27.778 37.2419 26.9981 37.2738 27.2607 36.7644C27.3403 36.6052 27.3801 36.2948 27.3801 35.7775V35.0294L27.778 35.1329C28.0009 35.1886 28.4307 35.2841 28.7331 35.3318L29.2902 35.4273V36.8997C29.2902 38.5631 29.2266 38.8178 28.7888 39.0088C28.5819 39.0964 26.2102 39.1123 15.3861 39.1123H2.23816L2.01531 38.9451C1.89593 38.8576 1.75267 38.6586 1.69696 38.5074C1.56961 38.1493 1.5537 6.79941 1.67308 6.34576C1.72083 6.18658 1.84817 5.97965 1.96756 5.88414C2.16653 5.73293 2.26999 5.72497 4.78498 5.72497H7.40344V6.64023ZM28.9162 5.88414C29.0355 5.97965 29.1629 6.18658 29.2106 6.34576C29.2584 6.53677 29.2902 8.59015 29.2902 12.0682V17.4961L28.9957 17.5438C28.8286 17.5677 28.3988 17.6553 28.0407 17.7348L27.3801 17.8781V13.0551C27.3801 8.41505 27.3721 8.22404 27.2209 7.97732C27.006 7.61917 26.6877 7.5555 24.9765 7.5555H23.4803V6.64023V5.72497H26.0987C28.6137 5.72497 28.7172 5.73293 28.9162 5.88414ZM25.7087 13.9226V18.6103L25.1357 18.9844C24.4433 19.4221 23.0744 20.791 22.6844 21.4198L22.4058 21.8734L18.6015 21.8814C15.3702 21.8814 14.7654 21.8973 14.5664 22.0008C14.2719 22.152 14.1684 22.343 14.1684 22.7569C14.1684 23.0195 14.2162 23.1389 14.3993 23.3219L14.6301 23.5528H18.1081H21.5861L21.5383 23.7278C21.5144 23.8313 21.4189 24.269 21.3234 24.7068C21.0926 25.8051 21.1404 27.6197 21.4269 28.7021L21.6179 29.4423H18.2115C15.3225 29.4423 14.7654 29.4582 14.5664 29.5617C14.2719 29.7129 14.1684 29.9039 14.1684 30.3178C14.1684 30.5804 14.2162 30.6998 14.3993 30.8828L14.6301 31.1136H18.5299H22.4218L22.7242 31.5673C23.1301 32.1881 24.5149 33.5411 25.1755 33.9709L25.7087 34.3131V34.9418V35.5706H15.4419H5.17497V22.3987V9.22685H15.4419H25.7087V13.9226ZM31.5028 19.3027C33.7551 19.7643 35.7608 21.372 36.7079 23.4652C37.4878 25.1764 37.5435 27.3173 36.8591 29.0921C36.4771 30.079 36.0154 30.7714 35.1877 31.5991C33.7313 33.0556 32.0917 33.7401 30.0781 33.7401C26.6638 33.7401 23.6554 31.2728 22.9709 27.9142C22.8117 27.1263 22.8117 25.7892 22.9709 25.0013C23.536 22.2236 25.8361 19.8996 28.6137 19.3107C29.3619 19.1436 30.7387 19.1436 31.5028 19.3027Z" fill="#1B2024"/>
<path d="M9.36919 12.3308C8.49372 12.482 7.59437 13.1745 7.22031 13.9863C6.96563 14.5275 6.96563 15.7849 7.22031 16.3261C7.45907 16.8514 7.77743 17.2255 8.23904 17.5438C9.80693 18.6103 11.9081 17.9418 12.5846 16.167C12.8233 15.5143 12.7756 14.5275 12.4731 13.8987C11.924 12.7845 10.6108 12.1239 9.36919 12.3308ZM10.3481 14.0977C11.0246 14.4479 11.2475 15.1244 10.8893 15.7611C10.7063 16.0874 10.2208 16.3898 9.8706 16.3898C9.76714 16.3898 9.53633 16.3182 9.35328 16.2306C8.73249 15.9282 8.48576 15.1084 8.85983 14.5513C9.03492 14.2887 9.62388 13.9226 9.8706 13.9226C9.94223 13.9226 10.1571 14.0022 10.3481 14.0977Z" fill="#1B2024"/>
<path d="M14.5505 14.4399C14.264 14.5991 14.1685 14.7901 14.1685 15.196C14.1685 15.4586 14.2162 15.578 14.3993 15.7611L14.6301 15.9919H18.9358C21.9761 15.9919 23.2893 15.968 23.4325 15.9043C23.7031 15.777 23.9101 15.3313 23.8464 15.005C23.8146 14.8617 23.7031 14.6548 23.5917 14.5513L23.3848 14.3603L19.0791 14.3444C15.3782 14.3285 14.7335 14.3444 14.5505 14.4399Z" fill="#1B2024"/>
<path d="M9.36919 19.8917C8.49372 20.0429 7.59437 20.7353 7.22031 21.5471C6.96563 22.0883 6.96563 23.3458 7.22031 23.887C7.45907 24.4123 7.77743 24.7864 8.23904 25.1047C9.83876 26.1871 12.0115 25.4549 12.6244 23.6164C12.8233 23.0116 12.7517 22.0406 12.4652 21.4596C11.924 20.3454 10.6108 19.6848 9.36919 19.8917ZM10.3481 21.6586C11.2873 22.1361 11.2952 23.3538 10.372 23.7995C9.3294 24.3009 8.22312 23.0673 8.85983 22.1122C9.03492 21.8496 9.62388 21.4835 9.8706 21.4835C9.94223 21.4835 10.1571 21.5631 10.3481 21.6586Z" fill="#1B2024"/>
<path d="M9.31368 27.4606C8.45412 27.6277 7.58661 28.3121 7.2205 29.108C7.07725 29.4105 7.04541 29.6254 7.04541 30.278C7.04541 30.9863 7.06929 31.1216 7.26826 31.5275C8.15169 33.3183 10.4757 33.7242 11.9083 32.3393C12.1072 32.1403 12.3619 31.7822 12.4813 31.5275C12.6723 31.1296 12.6962 30.9784 12.6962 30.278C12.6962 29.5696 12.6723 29.4343 12.4733 29.0364C12.2346 28.543 11.6536 27.954 11.176 27.7073C10.8736 27.5561 10.0618 27.365 9.79917 27.381C9.72754 27.3889 9.51265 27.4208 9.31368 27.4606ZM10.5075 29.2752C11.2954 29.8402 11.2238 30.9465 10.3722 31.3604C9.79121 31.6389 9.25797 31.4718 8.86002 30.8749C8.17556 29.8721 9.52061 28.5668 10.5075 29.2752Z" fill="#1B2024"/>
<path d="M29.5049 23.7756L29.29 23.9985V25.6141C29.29 27.2059 29.29 27.2218 29.4811 27.4128C29.7278 27.6595 30.0461 27.7152 31.0808 27.6754C31.9244 27.6516 31.9324 27.6516 32.1632 27.3889C32.4895 27.0308 32.4895 26.5771 32.1632 26.2508C31.9562 26.0439 31.8767 26.02 31.4469 26.02H30.9614V25.2321C30.9614 24.2452 30.9136 24.0064 30.659 23.7517C30.3645 23.4573 29.7994 23.4652 29.5049 23.7756Z" fill="#1B2024"/>
</svg>
