<svg width="30" height="31" viewBox="0 0 30 31" fill="none" xmlns="http://www.w3.org/2000/svg">
<path d="M5.6797 0.0579605C4.92896 0.20459 4.17235 0.791111 3.85562 1.47147C3.63861 1.94069 3.56236 2.32779 3.56236 3.01989V3.57121H3.01104C2.71191 3.57121 2.32481 3.60054 2.14885 3.62987C1.05793 3.83515 0.213337 4.70906 0.0315158 5.82345C-0.150305 6.90851 0.471406 8.09328 1.46262 8.55663C1.93184 8.77364 2.31894 8.84989 3.01104 8.84989H3.56236V10.6094V12.369H3.01104C1.98463 12.369 1.33359 12.5978 0.770531 13.1549C-0.250014 14.1755 -0.250014 15.8412 0.770531 16.8618C1.33359 17.4189 1.98463 17.6477 3.01104 17.6477H3.56236V19.4072V21.1668H3.01104C2.71191 21.1668 2.32481 21.1961 2.14885 21.2255C1.05793 21.4307 0.213337 22.3047 0.0315158 23.419C-0.150305 24.5041 0.471406 25.6889 1.46262 26.1522C1.93184 26.3692 2.31894 26.4455 3.00517 26.4455H3.54477L3.57996 27.1669C3.61515 27.9646 3.6738 28.1992 3.9612 28.6919C4.34244 29.3488 5.01693 29.8356 5.73835 29.9646C5.95537 30.0057 9.23988 30.0174 15.4159 30.0115L24.7651 29.9939L25.3516 29.8356C27.3927 29.2784 29.0056 27.771 29.6801 25.7944C30.0496 24.7211 30.1024 23.4366 29.8209 22.334C29.5628 21.3486 29.2226 20.6741 28.5716 19.8706L28.2548 19.4835V10.979C28.2548 5.43635 28.2314 2.36298 28.1962 2.1577C27.9968 1.10196 27.1463 0.251513 26.0906 0.0520954C25.6976 -0.0182877 6.06094 -0.0182877 5.6797 0.0579605ZM26.0261 1.87031C26.1786 1.94655 26.3017 2.06972 26.378 2.22222C26.4953 2.45096 26.4953 2.55067 26.4953 10.3514C26.4953 17.8471 26.4894 18.2459 26.3956 18.199C26.3369 18.1756 26.0671 18.0758 25.7915 17.982C22.5304 16.8442 18.9175 18.7562 17.9438 22.1346C17.3632 24.1463 17.8676 26.3516 19.2694 27.9294L19.5392 28.2344L12.8822 28.252C9.22228 28.2578 6.14892 28.252 6.04334 28.2344C5.80287 28.1933 5.50375 27.9411 5.40404 27.6948C5.35125 27.5775 5.32192 27.2783 5.32192 26.903V26.2989L5.70316 26.0994C6.38352 25.7475 6.8938 25.0261 7.03456 24.2167C7.21638 23.1492 6.65332 21.9997 5.70316 21.5129L5.32192 21.3134V19.4072V17.5011L5.70316 17.3016C6.65332 16.8148 7.21638 15.6652 7.03456 14.5978C6.8938 13.7884 6.38352 13.067 5.70316 12.7151L5.32192 12.5156V10.6094V8.70326L5.70316 8.50384C6.38352 8.15193 6.8938 7.43051 7.03456 6.62111C7.21638 5.55365 6.65332 4.40407 5.70316 3.91726L5.32192 3.71784V3.0844C5.32192 2.33366 5.42163 2.05799 5.77941 1.87617C5.99056 1.75887 6.15478 1.75887 15.8969 1.753C25.7035 1.753 25.7973 1.753 26.0261 1.87031ZM4.85271 5.44808C5.11664 5.58298 5.32192 5.91729 5.32192 6.21055C5.32192 6.50381 5.11664 6.83813 4.85271 6.97303C4.64743 7.0786 4.50666 7.09033 3.53304 7.09033C2.26616 7.09033 2.0726 7.03754 1.86146 6.62111C1.71483 6.32786 1.71483 6.09325 1.86146 5.79999C2.0726 5.38356 2.24856 5.33664 3.52131 5.33077C4.51253 5.33077 4.64743 5.3425 4.85271 5.44808ZM4.85271 14.2459C5.11664 14.3808 5.32192 14.7151 5.32192 15.0083C5.32192 15.3016 5.11664 15.6359 4.85271 15.7708C4.64743 15.8764 4.50666 15.8881 3.53304 15.8881C2.26616 15.8881 2.0726 15.8353 1.86146 15.4189C1.71483 15.1257 1.71483 14.891 1.86146 14.5978C2.0726 14.1814 2.24856 14.1344 3.52131 14.1286C4.51253 14.1286 4.64743 14.1403 4.85271 14.2459ZM24.941 19.5421C26.4894 19.9703 27.6977 21.1785 28.1199 22.7211C28.2607 23.2372 28.2842 24.0701 28.1727 24.6273C27.8326 26.2871 26.7299 27.5305 25.117 28.0701C24.7005 28.205 24.5598 28.2226 23.8559 28.2226C23.1521 28.2226 23.0114 28.205 22.5949 28.0701C20.0612 27.2256 18.7943 24.5041 19.809 22.1052C20.3427 20.8501 21.5978 19.7885 22.8589 19.5304C23.0348 19.4952 23.2342 19.4542 23.2988 19.4424C23.5158 19.3897 24.6419 19.46 24.941 19.5421ZM4.85271 23.0437C5.11664 23.1786 5.32192 23.5129 5.32192 23.8061C5.32192 24.0994 5.11664 24.4337 4.85271 24.5686C4.64743 24.6742 4.50666 24.6859 3.53304 24.6859C2.26616 24.6859 2.0726 24.6331 1.86146 24.2167C1.71483 23.9234 1.71483 23.6888 1.86146 23.3956C2.0726 22.9792 2.24856 22.9322 3.52131 22.9264C4.51253 22.9264 4.64743 22.9381 4.85271 23.0437Z" fill="#8FD5FE"/>
<path d="M14.5889 5.45393C14.4774 5.51845 13.7325 6.22814 12.9349 7.01994L11.4803 8.46278L10.7296 7.72376C10.319 7.3132 9.90844 6.94956 9.82046 6.92023C9.08145 6.6387 8.38935 7.33079 8.67088 8.06981C8.74713 8.27509 10.6592 10.2165 11.0052 10.4393C11.3513 10.6622 11.6093 10.6622 11.9554 10.4393C12.2897 10.2223 15.6622 6.82639 15.7854 6.58005C15.9848 6.18122 15.8206 5.68267 15.41 5.45393C15.1285 5.29557 14.8528 5.29557 14.5889 5.45393Z" fill="#8FD5FE"/>
<path d="M18.155 7.21352C17.9028 7.34256 17.6975 7.68861 17.6975 7.97013C17.6975 8.26339 17.9028 8.59771 18.1667 8.73261C18.3896 8.84405 18.5069 8.84991 21.2166 8.84991C23.9263 8.84991 24.0437 8.84405 24.2665 8.73261C24.5305 8.59771 24.7357 8.26339 24.7357 7.97013C24.7357 7.67687 24.5305 7.34256 24.2665 7.20766C24.0437 7.09622 23.9322 7.09036 21.2049 7.09036C18.501 7.09622 18.3603 7.10209 18.155 7.21352Z" fill="#8FD5FE"/>
<path d="M14.5889 12.4922C14.4774 12.5567 13.7325 13.2664 12.9349 14.0582L11.4803 15.501L10.7296 14.762C10.319 14.3515 9.90844 13.9878 9.82046 13.9585C9.08145 13.677 8.38935 14.3691 8.67088 15.1081C8.74713 15.3134 10.6592 17.2547 11.0052 17.4776C11.3513 17.7005 11.6093 17.7005 11.9554 17.4776C12.2897 17.2606 15.6622 13.8647 15.7854 13.6183C15.9848 13.2195 15.8206 12.7209 15.41 12.4922C15.1285 12.3338 14.8528 12.3338 14.5889 12.4922Z" fill="#8FD5FE"/>
<path d="M18.155 14.2517C17.9028 14.3808 17.6975 14.7268 17.6975 15.0083C17.6975 15.3016 17.9028 15.6359 18.1667 15.7708C18.3896 15.8823 18.5069 15.8881 21.2166 15.8881C23.9263 15.8881 24.0437 15.8823 24.2665 15.7708C24.5305 15.6359 24.7357 15.3016 24.7357 15.0083C24.7357 14.7151 24.5305 14.3808 24.2665 14.2459C24.0437 14.1344 23.9322 14.1286 21.2049 14.1286C18.501 14.1344 18.3603 14.1403 18.155 14.2517Z" fill="#8FD5FE"/>
<path d="M14.5889 19.5304C14.4774 19.5949 13.7325 20.3046 12.9349 21.0964L11.4803 22.5393L10.7296 21.8002C10.319 21.3897 9.90844 21.026 9.82046 20.9967C9.08145 20.7152 8.38935 21.4073 8.67088 22.1463C8.74713 22.3516 10.6592 24.2929 11.0052 24.5158C11.3513 24.7387 11.6093 24.7387 11.9554 24.5158C12.2897 24.2988 15.6622 20.9029 15.7854 20.6565C15.9848 20.2577 15.8206 19.7592 15.41 19.5304C15.1285 19.372 14.8528 19.372 14.5889 19.5304Z" fill="#8FD5FE"/>
<path d="M23.4336 21.29C23.0347 21.4952 22.9761 21.7064 22.9761 22.9264C22.9761 24.158 23.0347 24.3575 23.4453 24.5686C23.6506 24.6742 23.7913 24.6859 24.7356 24.6859C25.6799 24.6859 25.8207 24.6742 26.026 24.5686C26.2899 24.4337 26.4952 24.0994 26.4952 23.8061C26.4952 23.5129 26.2899 23.1786 26.026 23.0437C25.8442 22.9498 25.6799 22.9264 25.2635 22.9264H24.7356V22.3985C24.7356 21.7416 24.6183 21.4659 24.2664 21.2841C23.979 21.1375 23.7151 21.1375 23.4336 21.29Z" fill="#8FD5FE"/>
</svg>
