<svg width="21" height="21" viewBox="0 0 21 21" fill="none" xmlns="http://www.w3.org/2000/svg">
<path d="M9.55637 0.0422897C7.61168 0.218672 5.76955 0.940605 4.09974 2.19168C3.5992 2.56496 2.56121 3.60274 2.18786 4.10317C1.10884 5.54294 0.448305 7.04423 0.161113 8.6973C-0.347626 11.6137 0.353942 14.4482 2.18786 16.9011C2.56121 17.4015 3.5992 18.4393 4.09974 18.8126C6.55317 20.6461 9.38816 21.3476 12.3052 20.8389C13.9586 20.5518 15.4602 19.8914 16.9003 18.8126C17.4008 18.4393 18.4388 17.4015 18.8121 16.9011C20.6461 14.4482 21.3476 11.6137 20.8389 8.6973C20.5517 7.04423 19.8912 5.54294 18.8121 4.10317C18.4388 3.60274 17.4008 2.56496 16.9003 2.19168C14.7053 0.546824 12.178 -0.191519 9.55637 0.0422897ZM9.88459 5.57985V9.88685L8.00964 9.87864L6.13059 9.86634L6.08546 9.41513C5.90084 7.60209 5.23619 5.83827 4.1982 4.3903C4.05461 4.18931 3.93563 4.00883 3.93563 3.99242C3.93563 3.9473 4.4936 3.44276 4.85464 3.16384C5.94186 2.32705 7.24653 1.72407 8.59223 1.43694C9.04353 1.34259 9.44149 1.28517 9.71228 1.27696L9.88459 1.27286V5.57985ZM12.3052 1.42053C13.975 1.75278 15.4643 2.50753 16.7526 3.67657C16.9249 3.83245 17.0644 3.97191 17.0644 3.99242C17.0644 4.00883 16.9454 4.18931 16.8018 4.3903C15.7638 5.83827 15.0992 7.60209 14.9145 9.41513L14.8694 9.86634L12.9945 9.87864L11.1154 9.88685V5.57575V1.26055L11.4559 1.28927C11.6406 1.30568 12.0221 1.3631 12.3052 1.42053ZM3.30791 5.2599C4.08743 6.40023 4.60848 7.74976 4.81361 9.15261C4.85054 9.39462 4.87926 9.65714 4.87926 9.73918V9.88685H3.06995H1.25654L1.28526 9.54639C1.36732 8.57014 1.72836 7.31906 2.21658 6.35101C2.45454 5.87929 3.02892 4.96457 3.09046 4.96457C3.09867 4.96457 3.19714 5.09993 3.30791 5.2599ZM18.2624 5.45269C18.7506 6.20744 19.1527 7.06474 19.3824 7.85641C19.526 8.36094 19.6819 9.1403 19.7147 9.54639L19.7435 9.88685H17.93H16.1207V9.73918C16.1207 9.52588 16.2356 8.77523 16.33 8.36915C16.5105 7.57748 16.888 6.60533 17.2736 5.93262C17.5772 5.39937 17.889 4.96047 17.9342 4.98918C17.9588 5.00559 18.1065 5.21068 18.2624 5.45269ZM4.87926 11.2651C4.87926 11.4784 4.76438 12.229 4.67002 12.6351C4.4895 13.4268 4.11204 14.3989 3.72639 15.0716C3.42279 15.6049 3.11098 16.0438 3.06585 16.0151C2.9879 15.9659 2.45864 15.125 2.25761 14.7271C1.74067 13.7262 1.36732 12.4669 1.28526 11.4538L1.25654 11.1174H3.06995H4.87926V11.2651ZM9.88459 15.4285V19.7437L9.54817 19.715C7.96861 19.5837 6.19213 18.8741 4.85464 17.8404C4.4936 17.5615 3.93563 17.057 3.93563 17.0118C3.93563 16.9954 4.05461 16.815 4.1982 16.614C5.2403 15.1619 5.95417 13.2504 6.09367 11.5276C6.10597 11.3348 6.12649 11.1666 6.1388 11.1461C6.147 11.1297 6.99627 11.1174 8.02195 11.1174H9.88459V15.4285ZM14.9145 11.5891C15.0992 13.394 15.7556 15.1414 16.7895 16.5976C16.9413 16.8068 17.0644 16.9954 17.0644 17.0118C17.0644 17.057 16.5023 17.5615 16.1454 17.8404C14.8079 18.8741 13.0314 19.5837 11.4559 19.715L11.1154 19.7437V15.4285V11.1174L12.9945 11.1256L14.8694 11.1379L14.9145 11.5891ZM19.7147 11.4538C19.6327 12.4669 19.2593 13.7262 18.7424 14.7271C18.5414 15.125 18.0121 15.9659 17.9342 16.0151C17.848 16.0684 17.1792 14.9732 16.8962 14.3169C16.6746 13.8042 16.4367 13.0986 16.3341 12.6556C16.2356 12.229 16.1207 11.4825 16.1207 11.2651V11.1174H17.93H19.7435L19.7147 11.4538Z" fill="#1B2024"/>
</svg>
