<svg width="47" height="47" viewBox="0 0 47 47" fill="none" xmlns="http://www.w3.org/2000/svg">
<path d="M23.5 0C10.528 0 0 10.528 0 23.5C0 36.472 10.528 47 23.5 47C36.472 47 47 36.472 47 23.5C47 10.528 36.472 0 23.5 0ZM25.85 7.755L29.0225 5.5225C33.2735 6.83979 36.9202 9.62065 39.3155 13.3715L38.399 16.5205L35.2265 17.6015L25.85 11.045V7.755ZM17.9775 5.5225L21.15 7.755V11.045L11.7735 17.6015L8.601 16.5205L7.6845 13.3715C10.0937 9.63351 13.7352 6.85664 17.9775 5.5225ZM11.938 35.5085L9.259 35.7435C6.31315 32.3453 4.69411 27.9973 4.7 23.5C4.7 23.218 4.7235 22.9595 4.747 22.6775L7.097 20.962L10.34 22.09L13.771 32.289L11.938 35.5085ZM29.375 41.3365C27.5185 41.9475 25.5445 42.3 23.5 42.3C21.4555 42.3 19.4815 41.9475 17.625 41.3365L16.0035 37.835L17.5075 35.25H29.516L31.02 37.8585L29.375 41.3365ZM28.8345 30.55H18.1655L14.993 21.103L23.5 15.134L32.0305 21.103L28.8345 30.55ZM37.741 35.7435L35.062 35.5085L33.2055 32.289L36.6365 22.09L39.903 20.9855L42.253 22.701C42.2765 22.9595 42.3 23.218 42.3 23.5C42.3 28.1765 40.5845 32.4535 37.741 35.7435Z" fill="#8FD5FE"/>
</svg>
