<svg width="42" height="42" viewBox="0 0 42 42" fill="none" xmlns="http://www.w3.org/2000/svg">
<path fill-rule="evenodd" clip-rule="evenodd" d="M6.29995 6.30002C5.743 6.30002 5.20885 6.52127 4.81503 6.91509C4.4212 7.30892 4.19995 7.84306 4.19995 8.40002V33.6C4.19995 34.157 4.4212 34.6911 4.81503 35.0849C5.20885 35.4788 5.743 35.7 6.29995 35.7C6.85691 35.7 7.39105 35.4788 7.78488 35.0849C8.1787 34.6911 8.39995 34.157 8.39995 33.6V8.40002C8.39995 7.84306 8.1787 7.30892 7.78488 6.91509C7.39105 6.52127 6.85691 6.30002 6.29995 6.30002ZM27.9153 25.8153C27.5327 26.2114 27.3211 26.7418 27.3258 27.2925C27.3306 27.8431 27.5515 28.3698 27.9408 28.7591C28.3302 29.1485 28.8569 29.3693 29.4075 29.3741C29.9581 29.3789 30.4886 29.1672 30.8847 28.7847L37.1847 22.4847C37.5783 22.0909 37.7995 21.5569 37.7995 21C37.7995 20.4432 37.5783 19.9091 37.1847 19.5153L30.8847 13.2153C30.6909 13.0147 30.4592 12.8548 30.203 12.7447C29.9468 12.6346 29.6712 12.5767 29.3924 12.5743C29.1136 12.5719 28.837 12.625 28.5789 12.7306C28.3209 12.8362 28.0864 12.9921 27.8892 13.1893C27.692 13.3865 27.5361 13.6209 27.4305 13.879C27.3249 14.1371 27.2718 14.4136 27.2742 14.6925C27.2766 14.9713 27.3346 15.2469 27.4446 15.5031C27.5547 15.7593 27.7147 15.991 27.9153 16.1847L30.6306 18.9H14.7C14.143 18.9 13.6089 19.1213 13.215 19.5151C12.8212 19.9089 12.6 20.4431 12.6 21C12.6 21.557 12.8212 22.0911 13.215 22.4849C13.6089 22.8788 14.143 23.1 14.7 23.1H30.6306L27.9153 25.8153Z" fill="white"/>
</svg>
