<svg width="43" height="39" viewBox="0 0 43 39" fill="none" xmlns="http://www.w3.org/2000/svg">
<path d="M12.4833 4.38564C12.0978 4.58687 11.9648 4.91555 11.9648 5.6534V6.25709H10.3695C8.89385 6.25709 8.74761 6.27051 8.50831 6.39125C8.33549 6.47845 8.1959 6.61931 8.10949 6.79371C7.98319 7.0419 7.97655 7.18276 7.97655 9.28227C7.97655 11.422 7.98319 11.5159 8.11613 11.7574C8.1959 11.8983 8.36873 12.0727 8.50831 12.1532C8.74761 12.2873 8.85396 12.294 10.3629 12.294H11.9648V13.488V14.6753L10.7883 14.8295C6.10206 15.4332 2.63226 16.654 1.06355 18.2572C0.791014 18.5389 0.485247 18.9212 0.38554 19.1091C-0.00663996 19.8536 7.14552e-06 19.6591 7.14552e-06 26.5546C7.14552e-06 32.6922 0.00665427 32.8867 0.132949 33.3093C0.624836 34.9124 2.50597 36.207 5.76306 37.1796C11.4463 38.87 20.1873 39.0444 26.6549 37.5821C28.3367 37.2064 30.3109 36.5088 31.3744 35.9186C32.0391 35.5496 32.8633 34.9325 33.2023 34.5435C33.3685 34.349 33.6211 33.9666 33.7541 33.6983L34 33.1952V26.5144V19.8335L33.7541 19.3304C33.3021 18.4047 32.4978 17.6937 31.1019 16.9693C29.1875 15.9833 26.183 15.1918 22.7198 14.7692L22.0684 14.6954V13.4947V12.294H23.6704C25.1793 12.294 25.2856 12.2873 25.5249 12.1532C25.6645 12.0727 25.8373 11.8983 25.9171 11.7574C26.0501 11.5159 26.0567 11.422 26.0567 9.28227C26.0567 7.18276 26.0501 7.0419 25.9238 6.79371C25.8373 6.61931 25.6978 6.47845 25.5249 6.39125C25.2856 6.27051 25.1394 6.25709 23.6637 6.25709H22.0684V5.6534C22.0684 5.17715 22.0418 4.98934 21.9355 4.7814C21.7826 4.47955 21.4037 4.24478 21.0714 4.24478C20.739 4.24478 20.3601 4.47955 20.2072 4.7814C20.1009 4.98934 20.0743 5.17715 20.0743 5.6534V6.25709H17.0166H13.9589V5.6534C13.9589 4.90214 13.826 4.58687 13.4272 4.37894C13.1015 4.21124 12.8024 4.21124 12.4833 4.38564ZM24.0626 9.27556V10.2817H17.0166H9.97068V9.27556V8.26941H17.0166H24.0626V9.27556ZM20.0743 13.3807V14.474H17.0166H13.9589V13.3807V12.294H17.0166H20.0743V13.3807ZM19.5093 16.5199C23.6837 16.7479 27.2532 17.4455 29.6594 18.5054C31.2016 19.1761 32.1587 20.0481 32.0125 20.6384C31.8995 21.0945 31.0221 21.8257 30.0317 22.2751C29.9984 22.2885 29.9785 22.2416 29.9785 22.1745C29.9785 21.8995 29.6262 21.3427 29.2141 20.9604C28.1572 19.9811 25.9703 19.2768 22.68 18.8408C20.6659 18.5724 19.4628 18.5054 16.9502 18.5054C14.4375 18.5054 13.2344 18.5724 11.2203 18.8408C7.05924 19.3908 4.64634 20.4171 4.12122 21.8726L3.96834 22.2885L3.52963 22.047C2.63891 21.5507 1.99414 20.9067 1.99414 20.5177C1.99414 20.236 2.27997 19.7932 2.67215 19.4713C4.50675 17.9755 8.93373 16.8486 14.2248 16.5266C15.521 16.4461 18.1267 16.4461 19.5093 16.5199ZM19.3099 20.5445C21.8557 20.6854 24.2022 21.0342 25.8706 21.5238C26.6815 21.7586 27.6985 22.2147 27.8913 22.4294C27.9844 22.5367 27.9711 22.5568 27.7052 22.7446C27.3329 22.9995 26.8344 23.2544 26.2893 23.4624C25.4585 23.7776 22.793 24.1935 20.4066 24.3813C19.0639 24.4819 14.8098 24.4819 13.4937 24.3746C11.1073 24.1868 8.6612 23.8112 7.87684 23.516C7.2653 23.288 6.461 22.8788 6.21506 22.6641L6.01565 22.4897L6.18182 22.3556C6.27488 22.2885 6.56071 22.1208 6.81995 21.9934C9.0002 20.9134 14.4641 20.2829 19.3099 20.5445ZM4.16775 24.5624C4.52669 24.7033 5.0784 24.8978 5.40411 24.9984L5.98241 25.1795V27.1248V29.0767L5.80294 29.0298C5.36423 28.9224 4.30734 28.4864 3.70245 28.1712C2.89815 27.7486 2.35309 27.3126 2.14703 26.9235C2.00079 26.6351 1.99414 26.568 1.99414 25.0655V23.5026L2.75191 23.9051C3.17068 24.1264 3.8088 24.4216 4.16775 24.5624ZM32.0391 25.0588C32.0391 26.568 32.0325 26.6351 31.8862 26.9235C31.6802 27.3126 31.1351 27.7486 30.3308 28.1712C29.7259 28.4864 28.669 28.9224 28.2303 29.0298L28.0508 29.0767L28.0641 27.1181L28.0841 25.1594L29.0147 24.8441C30.025 24.5021 31.0819 24.0392 31.607 23.7105C31.7932 23.5965 31.9593 23.5026 31.9926 23.5026C32.0192 23.4959 32.0391 24.2002 32.0391 25.0588ZM10.7683 26.1119C12.8356 26.3802 14.2913 26.4674 16.8837 26.4674C19.4428 26.4741 20.6393 26.4138 22.6667 26.1723C23.6704 26.0582 25.4319 25.7765 25.9105 25.6625L26.0567 25.6289V27.6346V29.6469L24.8802 29.8548C23.8565 30.0426 22.3343 30.2707 22.1349 30.2707C22.095 30.2707 22.0684 30.056 22.0684 29.8011C22.0684 29.1974 21.9089 28.8554 21.5367 28.6608C21.2841 28.5334 21.1511 28.5267 17.0166 28.5267C12.8821 28.5267 12.7492 28.5334 12.4966 28.6608C12.1243 28.8554 11.9648 29.1974 11.9648 29.8011C11.9648 30.056 11.9382 30.2707 11.8983 30.2707C11.6989 30.2707 10.1767 30.0426 9.15973 29.8548L7.97655 29.6469V27.6547V25.6625L8.86061 25.8235C9.3392 25.9107 10.2033 26.0381 10.7683 26.1119ZM5.00528 30.8945L5.98241 31.2232V33.1952V35.1606L5.33764 34.9258C3.5828 34.2886 2.35973 33.5038 2.0872 32.8397C2.01408 32.6787 1.99414 32.2293 1.99414 31.089V29.5462L3.01115 30.0627C3.61604 30.3646 4.41369 30.7 5.00528 30.8945ZM31.9793 32.7525C31.8862 33.0745 31.3212 33.6178 30.6499 34.0203C30.158 34.3221 28.7022 34.9527 28.2237 35.0734L28.0508 35.1136V33.1684V31.2232L29.028 30.8945C29.6129 30.7067 30.4172 30.3646 31.0088 30.0695L32.0059 29.5664L32.0258 31.0421C32.0391 31.9074 32.0192 32.6117 31.9793 32.7525ZM15.9531 33.5642V36.596L15.5476 36.5491C15.3216 36.529 14.8696 36.5088 14.5505 36.5088H13.9589V33.5239V30.539H14.956H15.9531V33.5642ZM20.0743 33.5239V36.5088H19.4162C19.0573 36.5088 18.5787 36.529 18.3527 36.5491L17.9472 36.596V33.5642V30.539H19.0108H20.0743V33.5239ZM10.7683 32.1488C11.3333 32.2226 11.8385 32.283 11.885 32.283C11.9449 32.283 11.9648 32.7324 11.9648 34.302V36.321L11.6192 36.2741C10.5822 36.1399 9.4522 35.9655 8.76091 35.8314L7.97655 35.6838V33.6916V31.6994L8.86061 31.8537C9.3392 31.9409 10.2033 32.0751 10.7683 32.1488ZM26.0102 35.6436C25.9171 35.724 22.4805 36.3076 22.0884 36.3076C22.0751 36.3076 22.0684 35.4021 22.0684 34.2953C22.0684 32.7324 22.0884 32.283 22.1548 32.283C22.3609 32.283 24.3816 31.9946 25.1593 31.8604L26.0235 31.7061L26.0434 33.6514C26.0501 34.7179 26.0368 35.6167 26.0102 35.6436Z" fill="#8FD5FE"/>
<path d="M34.9999 5.33333V8M34.9999 8V10.6667M34.9999 8H37.6666M34.9999 8H32.3333" stroke="white" stroke-width="1.33333" stroke-linecap="round"/>
<path d="M34.9999 14.6667C38.6818 14.6667 41.6666 11.6819 41.6666 8C41.6666 4.3181 38.6818 1.33333 34.9999 1.33333C31.318 1.33333 28.3333 4.3181 28.3333 8C28.3333 11.6819 31.318 14.6667 34.9999 14.6667Z" stroke="#61C4FF" stroke-width="1.33333"/>
</svg>
