<svg width="49" height="42" viewBox="0 0 49 42" fill="none" xmlns="http://www.w3.org/2000/svg">
<path d="M40.9999 5.33334V8.00001M40.9999 8.00001V10.6667M40.9999 8.00001H43.6666M40.9999 8.00001H38.3333" stroke="white" stroke-width="1.33333" stroke-linecap="round"/>
<path d="M40.9999 14.6667C44.6818 14.6667 47.6666 11.6819 47.6666 8C47.6666 4.3181 44.6818 1.33334 40.9999 1.33334C37.318 1.33334 34.3333 4.3181 34.3333 8C34.3333 11.6819 37.318 14.6667 40.9999 14.6667Z" stroke="#61C4FF" stroke-width="1.33333"/>
<path d="M0.151899 16.1533C0 16.3066 0 16.4062 0 28.7225C0 41.0388 0 41.1385 0.151899 41.2918C0.303797 41.445 0.402532 41.445 18 41.445C35.5975 41.445 35.6962 41.445 35.8481 41.2918C36 41.1385 36 41.0388 36 28.7225C36 16.4062 36 16.3066 35.8481 16.1533C35.6962 16 35.5975 16 18 16C0.402532 16 0.303797 16 0.151899 16.1533ZM17.4684 20.8284V24.5839H17.2937C17.0354 24.5839 16.2835 24.8598 15.881 25.0974C15.0684 25.5802 14.3544 26.4616 14.0354 27.4043C13.7924 28.1324 13.7924 29.3127 14.0354 30.0408C14.5063 31.4126 15.7063 32.5239 17.0203 32.7999L17.4684 32.8918V36.6319V40.3721H9.26582H1.06329V38.3487V36.333L2.22532 36.2871C3.60759 36.2411 4.3519 36.0725 5.36203 35.5896C6.27342 35.1528 6.66076 34.8768 7.39747 34.1717C8.14177 33.4436 8.56709 32.8458 9 31.9261C9.51646 30.8225 9.67595 30.0638 9.67595 28.7225C9.67595 27.3813 9.51646 26.6225 9 25.5189C8.56709 24.5992 8.14177 24.0014 7.39747 23.2733C6.66076 22.5682 6.27342 22.2923 5.36203 21.8554C4.3519 21.3726 3.60759 21.204 2.22532 21.158L1.06329 21.112V19.0963V17.073H9.26582H17.4684V20.8284ZM34.9367 19.0963V21.112L33.7823 21.158C32.3924 21.204 31.6481 21.3726 30.6228 21.8631C29.7114 22.2999 29.119 22.7291 28.3975 23.4802C27.6987 24.2237 27.4253 24.6145 26.9924 25.5342C26.4835 26.6225 26.3241 27.389 26.3241 28.7225C26.3241 30.0638 26.4835 30.8225 27 31.9261C27.4329 32.8458 27.8582 33.4436 28.6025 34.1717C29.3392 34.8768 29.7266 35.1528 30.638 35.5896C31.6481 36.0725 32.3924 36.2411 33.7823 36.2871L34.9367 36.333V38.3487V40.3721H26.7342H18.5316V36.6319V32.8918L18.9797 32.7999C20.2937 32.5239 21.4937 31.4126 21.9646 30.0408C22.2076 29.3127 22.2076 28.1324 21.9646 27.4043C21.6456 26.4616 20.9316 25.5802 20.119 25.0974C19.7165 24.8598 18.9646 24.5839 18.7063 24.5839H18.5316V20.8284V17.073H26.7342H34.9367V19.0963ZM3.97215 22.4686C6.15949 23.1277 7.73165 24.7065 8.40759 26.9368C8.58228 27.5346 8.60506 27.7338 8.60506 28.7225C8.60506 29.7112 8.58228 29.9105 8.40759 30.5083C7.73165 32.7385 6.15949 34.3174 3.97215 34.9765C3.43291 35.1374 3.09114 35.1834 2.18734 35.2141L1.06329 35.2601V33.1831V31.1137L2.56709 31.0831C3.9038 31.0601 4.10127 31.0448 4.41266 30.8991C4.92152 30.6616 5.35443 30.2324 5.59747 29.7342C5.77215 29.374 5.81013 29.1977 5.80253 28.7225C5.80253 27.7645 5.33924 27.0211 4.4962 26.5995C4.07089 26.3926 4.02532 26.385 2.56709 26.362L1.06329 26.3313V24.262V22.185L2.18734 22.231C3.09114 22.2616 3.43291 22.3076 3.97215 22.4686ZM34.9367 24.2696V26.3313L33.4405 26.362C31.9747 26.385 31.9291 26.3926 31.5038 26.5995C30.6608 27.0211 30.1975 27.7645 30.1975 28.7225C30.1899 29.1977 30.2278 29.374 30.4025 29.7342C30.6456 30.2324 31.0785 30.6616 31.5873 30.8991C31.8987 31.0448 32.0962 31.0601 33.4405 31.0831L34.9367 31.1137V33.1831V35.2601L33.8203 35.2141C32.9089 35.1834 32.5671 35.1374 32.0278 34.9765C29.9165 34.3404 28.3215 32.7922 27.6608 30.7152C26.4684 26.9981 28.8 23.051 32.6203 22.3229C32.9165 22.2693 33.5544 22.2156 34.0481 22.2156L34.9367 22.208V24.2696ZM17.4684 28.7302V31.8035L17.2405 31.7575C16.8076 31.6732 16.1924 31.313 15.8127 30.9145C14.2253 29.282 14.7722 26.7145 16.8987 25.7948C17.5139 25.5266 17.4684 25.2813 17.4684 28.7302ZM19.3899 25.9328C20.8937 26.6839 21.524 28.5922 20.7722 30.1097C20.4 30.8762 19.4962 31.6119 18.7595 31.7575L18.5316 31.8035V28.7225V25.6339L18.7671 25.6875C18.8962 25.7105 19.1772 25.8178 19.3899 25.9328ZM3.97215 27.5269C4.29114 27.6572 4.60253 28.0327 4.71646 28.416C4.83038 28.7915 4.72405 29.213 4.42785 29.5732C4.08608 29.9794 3.87342 30.0254 2.39241 30.0254H1.06329V28.7225V27.4196H2.39241C3.34937 27.4196 3.79747 27.4503 3.97215 27.5269ZM34.9367 28.7225V30.0254H33.6076C32.1266 30.0254 31.9139 29.9794 31.5722 29.5732C31.1316 29.0444 31.1316 28.4006 31.5722 27.8718C31.9139 27.4656 32.1038 27.4273 33.5924 27.4196H34.9367V28.7225Z" fill="white"/>
</svg>
