<svg width="47" height="40" viewBox="0 0 47 40" fill="none" xmlns="http://www.w3.org/2000/svg">
<path d="M39.6667 5V7.66667M39.6667 7.66667V10.3333M39.6667 7.66667H42.3333M39.6667 7.66667H37" stroke="white" stroke-width="1.33333" stroke-linecap="round"/>
<path d="M12.4833 5.38567C12.0978 5.5869 11.9648 5.91558 11.9648 6.65343V7.25713H10.3695C8.89385 7.25713 8.74761 7.27054 8.50832 7.39128C8.33549 7.47848 8.1959 7.61934 8.10949 7.79374C7.98319 8.04193 7.97655 8.18279 7.97655 10.2823C7.97655 12.4221 7.98319 12.516 8.11613 12.7574C8.1959 12.8983 8.36873 13.0727 8.50832 13.1532C8.74761 13.2874 8.85396 13.2941 10.3629 13.2941H11.9648V14.488V15.6753L10.7883 15.8296C6.10206 16.4333 2.63226 17.6541 1.06355 19.2572C0.791014 19.5389 0.485247 19.9213 0.38554 20.1091C-0.00663996 20.8536 7.1455e-06 20.6591 7.1455e-06 27.5546C7.1455e-06 33.6922 0.00665426 33.8867 0.132949 34.3093C0.624836 35.9124 2.50597 37.207 5.76306 38.1796C11.4463 39.87 20.1873 40.0444 26.6549 38.5821C28.3367 38.2065 30.3109 37.5089 31.3744 36.9186C32.0391 36.5497 32.8633 35.9326 33.2023 35.5435C33.3685 35.349 33.6211 34.9667 33.7541 34.6983L34 34.1953V27.5144V20.8335L33.7541 20.3304C33.3021 19.4048 32.4978 18.6938 31.1019 17.9693C29.1875 16.9833 26.183 16.1918 22.7198 15.7692L22.0684 15.6954V14.4947V13.2941H23.6704C25.1793 13.2941 25.2856 13.2874 25.5249 13.1532C25.6645 13.0727 25.8373 12.8983 25.9171 12.7574C26.0501 12.516 26.0567 12.4221 26.0567 10.2823C26.0567 8.18279 26.0501 8.04193 25.9238 7.79374C25.8373 7.61934 25.6978 7.47848 25.5249 7.39128C25.2856 7.27054 25.1394 7.25713 23.6637 7.25713H22.0684V6.65343C22.0684 6.17718 22.0418 5.98937 21.9355 5.78143C21.7826 5.47958 21.4037 5.24481 21.0714 5.24481C20.739 5.24481 20.3601 5.47958 20.2072 5.78143C20.1009 5.98937 20.0743 6.17718 20.0743 6.65343V7.25713H17.0166H13.9589V6.65343C13.9589 5.90217 13.826 5.58691 13.4272 5.37897C13.1015 5.21127 12.8024 5.21127 12.4833 5.38567ZM24.0626 10.2756V11.2817H17.0166H9.97068V10.2756V9.26944H17.0166H24.0626V10.2756ZM20.0743 14.3807V15.4741H17.0166H13.9589V14.3807V13.2941H17.0166H20.0743V14.3807ZM19.5093 17.5199C23.6837 17.748 27.2532 18.4456 29.6594 19.5054C31.2016 20.1762 32.1587 21.0482 32.0125 21.6384C31.8995 22.0946 31.0221 22.8257 30.0317 23.2751C29.9984 23.2885 29.9785 23.2416 29.9785 23.1745C29.9785 22.8995 29.6262 22.3428 29.2141 21.9604C28.1572 20.9811 25.9703 20.2768 22.68 19.8408C20.6659 19.5725 19.4628 19.5054 16.9501 19.5054C14.4375 19.5054 13.2344 19.5725 11.2203 19.8408C7.05924 20.3908 4.64634 21.4171 4.12122 22.8727L3.96833 23.2885L3.52963 23.0471C2.63891 22.5507 1.99414 21.9068 1.99414 21.5177C1.99414 21.236 2.27997 20.7933 2.67215 20.4713C4.50675 18.9755 8.93373 17.8486 14.2248 17.5266C15.521 17.4461 18.1267 17.4461 19.5093 17.5199ZM19.3099 21.5445C21.8557 21.6854 24.2022 22.0342 25.8706 22.5239C26.6815 22.7586 27.6985 23.2148 27.8913 23.4294C27.9844 23.5367 27.9711 23.5568 27.7052 23.7447C27.3329 23.9996 26.8344 24.2545 26.2893 24.4624C25.4585 24.7777 22.793 25.1935 20.4067 25.3813C19.0639 25.482 14.8098 25.482 13.4937 25.3746C11.1073 25.1868 8.6612 24.8112 7.87684 24.5161C7.2653 24.288 6.461 23.8788 6.21506 23.6642L6.01565 23.4898L6.18182 23.3556C6.27488 23.2885 6.56071 23.1208 6.81995 22.9934C9.0002 21.9135 14.4641 21.2829 19.3099 21.5445ZM4.16775 25.5625C4.52669 25.7033 5.0784 25.8978 5.40411 25.9985L5.98241 26.1796V28.1248V30.0767L5.80294 30.0298C5.36423 29.9225 4.30734 29.4865 3.70245 29.1712C2.89815 28.7486 2.35309 28.3126 2.14703 27.9236C2.00079 27.6351 1.99414 27.5681 1.99414 26.0655V24.5026L2.75191 24.9051C3.17068 25.1265 3.8088 25.4216 4.16775 25.5625ZM32.0391 26.0588C32.0391 27.5681 32.0325 27.6351 31.8862 27.9236C31.6802 28.3126 31.1351 28.7486 30.3308 29.1712C29.7259 29.4865 28.669 29.9225 28.2303 30.0298L28.0508 30.0767L28.0641 28.1181L28.0841 26.1594L29.0147 25.8442C30.025 25.5021 31.0819 25.0393 31.607 24.7106C31.7932 24.5965 31.9593 24.5026 31.9926 24.5026C32.0192 24.4959 32.0391 25.2002 32.0391 26.0588ZM10.7683 27.1119C12.8356 27.3802 14.2913 27.4674 16.8837 27.4674C19.4428 27.4742 20.6393 27.4138 22.6667 27.1723C23.6704 27.0583 25.4319 26.7765 25.9105 26.6625L26.0567 26.629V28.6346V30.6469L24.8802 30.8548C23.8565 31.0427 22.3343 31.2707 22.1349 31.2707C22.095 31.2707 22.0684 31.0561 22.0684 30.8012C22.0684 30.1975 21.9089 29.8554 21.5367 29.6609C21.2841 29.5334 21.1511 29.5267 17.0166 29.5267C12.8821 29.5267 12.7492 29.5334 12.4966 29.6609C12.1243 29.8554 11.9648 30.1975 11.9648 30.8012C11.9648 31.0561 11.9382 31.2707 11.8983 31.2707C11.6989 31.2707 10.1767 31.0427 9.15973 30.8548L7.97655 30.6469V28.6547V26.6625L8.86061 26.8235C9.3392 26.9107 10.2033 27.0381 10.7683 27.1119ZM5.00528 31.8945L5.98241 32.2232V34.1953V36.1606L5.33764 35.9259C3.5828 35.2886 2.35973 34.5038 2.0872 33.8398C2.01408 33.6788 1.99414 33.2294 1.99414 32.0891V30.5463L3.01115 31.0628C3.61604 31.3646 4.41369 31.7 5.00528 31.8945ZM31.9793 33.7526C31.8862 34.0745 31.3212 34.6179 30.6499 35.0203C30.158 35.3222 28.7022 35.9527 28.2237 36.0734L28.0508 36.1137V34.1684V32.2232L29.028 31.8945C29.6129 31.7067 30.4172 31.3646 31.0088 31.0695L32.0059 30.5664L32.0258 32.0421C32.0391 32.9074 32.0192 33.6117 31.9793 33.7526ZM15.9531 34.5642V37.5961L15.5476 37.5491C15.3216 37.529 14.8696 37.5089 14.5505 37.5089H13.9589V34.5239V31.539H14.956H15.9531V34.5642ZM20.0743 34.5239V37.5089H19.4162C19.0573 37.5089 18.5787 37.529 18.3527 37.5491L17.9472 37.5961V34.5642V31.539H19.0108H20.0743V34.5239ZM10.7683 33.1489C11.3333 33.2227 11.8385 33.283 11.885 33.283C11.9449 33.283 11.9648 33.7324 11.9648 35.302V37.3211L11.6192 37.2741C10.5822 37.14 9.45221 36.9656 8.76091 36.8314L7.97655 36.6838V34.6916V32.6995L8.86061 32.8537C9.3392 32.9409 10.2033 33.0751 10.7683 33.1489ZM26.0102 36.6436C25.9171 36.7241 22.4805 37.3076 22.0884 37.3076C22.0751 37.3076 22.0684 36.4021 22.0684 35.2953C22.0684 33.7324 22.0884 33.283 22.1548 33.283C22.3609 33.283 24.3816 32.9946 25.1593 32.8604L26.0235 32.7062L26.0434 34.6514C26.0501 35.7179 26.0368 36.6168 26.0102 36.6436Z" fill="#8FD5FE"/>
<path d="M39.6667 14.3333C43.3486 14.3333 46.3333 11.3486 46.3333 7.66667C46.3333 3.98477 43.3486 1 39.6667 1C35.9848 1 33 3.98477 33 7.66667C33 11.3486 35.9848 14.3333 39.6667 14.3333Z" stroke="#61C4FF" stroke-width="1.33333"/>
</svg>
