<svg width="25" height="25" viewBox="0 0 25 25" fill="none" xmlns="http://www.w3.org/2000/svg">
<path fill-rule="evenodd" clip-rule="evenodd" d="M16.9594 9.60318C17.0321 9.67575 17.0899 9.76196 17.1292 9.85688C17.1686 9.95179 17.1889 10.0535 17.1889 10.1563C17.1889 10.2591 17.1686 10.3608 17.1292 10.4557C17.0899 10.5506 17.0321 10.6369 16.9594 10.7094L12.2719 15.3969C12.1993 15.4697 12.1131 15.5274 12.0182 15.5668C11.9233 15.6062 11.8215 15.6264 11.7188 15.6264C11.616 15.6264 11.5142 15.6062 11.4193 15.5668C11.3244 15.5274 11.2382 15.4697 11.1656 15.3969L8.82189 13.0532C8.74925 12.9805 8.69163 12.8943 8.65232 12.7994C8.61301 12.7045 8.59277 12.6028 8.59277 12.5001C8.59277 12.3973 8.61301 12.2956 8.65232 12.2007C8.69163 12.1058 8.74925 12.0196 8.82189 11.9469C8.89452 11.8743 8.98076 11.8167 9.07566 11.7774C9.17057 11.738 9.27229 11.7178 9.37501 11.7178C9.47774 11.7178 9.57945 11.738 9.67436 11.7774C9.76927 11.8167 9.8555 11.8743 9.92814 11.9469L11.7188 13.7391L15.8531 9.60318C15.9257 9.53042 16.0119 9.4727 16.1068 9.43331C16.2017 9.39393 16.3035 9.37366 16.4063 9.37366C16.509 9.37366 16.6108 9.39393 16.7057 9.43331C16.8006 9.4727 16.8868 9.53042 16.9594 9.60318Z" fill="#1B2024"/>
<path d="M4.6875 0H20.3125C21.1413 0 21.9362 0.32924 22.5222 0.915291C23.1083 1.50134 23.4375 2.2962 23.4375 3.125V21.875C23.4375 22.7038 23.1083 23.4987 22.5222 24.0847C21.9362 24.6708 21.1413 25 20.3125 25H4.6875C3.8587 25 3.06384 24.6708 2.47779 24.0847C1.89174 23.4987 1.5625 22.7038 1.5625 21.875V20.3125H3.125V21.875C3.125 22.2894 3.28962 22.6868 3.58265 22.9799C3.87567 23.2729 4.2731 23.4375 4.6875 23.4375H20.3125C20.7269 23.4375 21.1243 23.2729 21.4174 22.9799C21.7104 22.6868 21.875 22.2894 21.875 21.875V3.125C21.875 2.7106 21.7104 2.31317 21.4174 2.02015C21.1243 1.72712 20.7269 1.5625 20.3125 1.5625H4.6875C4.2731 1.5625 3.87567 1.72712 3.58265 2.02015C3.28962 2.31317 3.125 2.7106 3.125 3.125V4.6875H1.5625V3.125C1.5625 2.2962 1.89174 1.50134 2.47779 0.915291C3.06384 0.32924 3.8587 0 4.6875 0V0Z" fill="#1B2024"/>
<path d="M1.5625 7.8125V7.03125C1.5625 6.82405 1.64481 6.62534 1.79132 6.47882C1.93784 6.33231 2.13655 6.25 2.34375 6.25C2.55095 6.25 2.74966 6.33231 2.89618 6.47882C3.04269 6.62534 3.125 6.82405 3.125 7.03125V7.8125H3.90625C4.11345 7.8125 4.31216 7.89481 4.45868 8.04132C4.60519 8.18784 4.6875 8.38655 4.6875 8.59375C4.6875 8.80095 4.60519 8.99966 4.45868 9.14618C4.31216 9.29269 4.11345 9.375 3.90625 9.375H0.78125C0.57405 9.375 0.375336 9.29269 0.228823 9.14618C0.08231 8.99966 0 8.80095 0 8.59375C0 8.38655 0.08231 8.18784 0.228823 8.04132C0.375336 7.89481 0.57405 7.8125 0.78125 7.8125H1.5625ZM1.5625 12.5V11.7188C1.5625 11.5115 1.64481 11.3128 1.79132 11.1663C1.93784 11.0198 2.13655 10.9375 2.34375 10.9375C2.55095 10.9375 2.74966 11.0198 2.89618 11.1663C3.04269 11.3128 3.125 11.5115 3.125 11.7188V12.5H3.90625C4.11345 12.5 4.31216 12.5823 4.45868 12.7288C4.60519 12.8753 4.6875 13.074 4.6875 13.2812C4.6875 13.4885 4.60519 13.6872 4.45868 13.8337C4.31216 13.9802 4.11345 14.0625 3.90625 14.0625H0.78125C0.57405 14.0625 0.375336 13.9802 0.228823 13.8337C0.08231 13.6872 0 13.4885 0 13.2812C0 13.074 0.08231 12.8753 0.228823 12.7288C0.375336 12.5823 0.57405 12.5 0.78125 12.5H1.5625ZM1.5625 17.1875V16.4062C1.5625 16.199 1.64481 16.0003 1.79132 15.8538C1.93784 15.7073 2.13655 15.625 2.34375 15.625C2.55095 15.625 2.74966 15.7073 2.89618 15.8538C3.04269 16.0003 3.125 16.199 3.125 16.4062V17.1875H3.90625C4.11345 17.1875 4.31216 17.2698 4.45868 17.4163C4.60519 17.5628 4.6875 17.7615 4.6875 17.9688C4.6875 18.176 4.60519 18.3747 4.45868 18.5212C4.31216 18.6677 4.11345 18.75 3.90625 18.75H0.78125C0.57405 18.75 0.375336 18.6677 0.228823 18.5212C0.08231 18.3747 0 18.176 0 17.9688C0 17.7615 0.08231 17.5628 0.228823 17.4163C0.375336 17.2698 0.57405 17.1875 0.78125 17.1875H1.5625Z" fill="#1B2024"/>
</svg>
