<svg width="26" height="26" viewBox="0 0 26 26" fill="none" xmlns="http://www.w3.org/2000/svg">
<path d="M24.5 2.75H19.25V0.75C19.25 0.6125 19.1375 0.5 19 0.5H17.25C17.1125 0.5 17 0.6125 17 0.75V2.75H9V0.75C9 0.6125 8.8875 0.5 8.75 0.5H7C6.8625 0.5 6.75 0.6125 6.75 0.75V2.75H1.5C0.946875 2.75 0.5 3.19688 0.5 3.75V24.5C0.5 25.0531 0.946875 25.5 1.5 25.5H24.5C25.0531 25.5 25.5 25.0531 25.5 24.5V3.75C25.5 3.19688 25.0531 2.75 24.5 2.75ZM23.25 23.25H2.75V11.375H23.25V23.25ZM2.75 9.25V5H6.75V6.5C6.75 6.6375 6.8625 6.75 7 6.75H8.75C8.8875 6.75 9 6.6375 9 6.5V5H17V6.5C17 6.6375 17.1125 6.75 17.25 6.75H19C19.1375 6.75 19.25 6.6375 19.25 6.5V5H23.25V9.25H2.75Z" fill="#1B2024"/>
</svg>
