<svg width="22" height="19" viewBox="0 0 22 19" fill="none" xmlns="http://www.w3.org/2000/svg">
<g clip-path="url(#clip0_807_640)">
<path d="M10.4446 0.27933C8.70035 0.602183 7.36701 1.90198 7.01062 3.62526C6.92257 4.04454 6.92257 4.86216 7.01062 5.27725C7.33766 6.87055 8.52844 8.12842 10.1092 8.54771C10.4739 8.64414 10.6081 8.65672 11.1574 8.65672C11.6941 8.65672 11.845 8.63995 12.1846 8.5519C12.9687 8.34226 13.6228 7.95651 14.1763 7.37789C14.7172 6.81604 15.0568 6.22065 15.2496 5.49948C15.3335 5.19759 15.3461 5.04245 15.3461 4.45126C15.3461 3.86425 15.3335 3.70492 15.2496 3.40303C14.8471 1.90198 13.6815 0.740548 12.2014 0.358995C11.6689 0.224823 10.931 0.19128 10.4446 0.27933ZM11.7108 1.66718C13.7863 2.09485 14.6752 4.52253 13.3796 6.21646C13.0526 6.63994 12.5536 6.98376 11.996 7.16405C11.7234 7.25211 11.5725 7.27307 11.1993 7.27726C10.6584 7.28146 10.4069 7.22695 9.94145 7.00892C9.33767 6.7238 8.88903 6.27935 8.59972 5.68816C8.38169 5.23952 8.31461 4.8957 8.33557 4.32547C8.36492 3.53721 8.59972 3.01309 9.16576 2.43448C9.82824 1.76781 10.7884 1.4743 11.7108 1.66718Z" fill="#1B2024"/>
<path d="M3.85795 4.8244C2.90197 5.0592 2.15144 5.79715 1.91244 6.74055C1.49735 8.3674 2.65459 9.9565 4.32336 10.0571C5.38416 10.12 6.39465 9.53721 6.84748 8.6022C7.06551 8.14937 7.1284 7.88102 7.1284 7.40722C7.1284 6.93343 7.06551 6.66508 6.84748 6.21225C6.31917 5.12629 5.04034 4.53509 3.85795 4.8244ZM5.04453 6.26676C5.48898 6.49737 5.74475 6.90827 5.74475 7.40722C5.74475 7.90618 5.49317 8.3087 5.03615 8.55188C4.86005 8.64413 4.772 8.66509 4.49107 8.66509C4.20596 8.66509 4.11791 8.64832 3.91665 8.54769C3.66088 8.4219 3.47639 8.23742 3.32964 7.96069C3.24998 7.81393 3.23321 7.7175 3.23321 7.40722C3.23321 7.06341 3.24578 7.0089 3.36318 6.79925C3.51413 6.5351 3.81602 6.28353 4.09275 6.19129C4.36109 6.10323 4.78457 6.13678 5.04453 6.26676Z" fill="#1B2024"/>
<path d="M17.2168 4.81193C16.4705 4.97126 15.7577 5.52891 15.4264 6.21235C15.2084 6.66518 15.1455 6.93353 15.1455 7.40733C15.1455 8.14527 15.3971 8.75744 15.917 9.27736C16.9652 10.3256 18.634 10.3256 19.6696 9.27736C20.1602 8.7784 20.395 8.2459 20.4327 7.54988C20.4621 7.05093 20.3782 6.63583 20.1644 6.19977C19.9506 5.7721 19.4097 5.23541 18.9778 5.02996C18.416 4.75742 17.808 4.68195 17.2168 4.81193ZM18.1728 6.19139C18.4621 6.27944 18.7598 6.52682 18.9149 6.80355C19.0281 7.009 19.0407 7.0677 19.0407 7.40733C19.0407 7.74695 19.0281 7.80565 18.9149 8.0111C18.2776 9.15995 16.5292 8.7197 16.5292 7.40733C16.5292 6.54359 17.3384 5.94401 18.1728 6.19139Z" fill="#1B2024"/>
<path d="M2.05565 10.7951C1.64056 10.9838 1.23385 11.1808 1.14999 11.2354C0.919379 11.3779 0.701349 11.6421 0.554598 11.9523L0.424618 12.2291L0.412039 13.0676C0.399461 13.8811 0.399461 13.9104 0.495897 14.0907C0.609105 14.3045 0.87745 14.4723 1.09548 14.4723C1.31351 14.4723 1.58186 14.3045 1.69087 14.0949C1.77892 13.9272 1.78731 13.8643 1.78731 13.2312C1.78731 12.5813 1.7915 12.5435 1.88374 12.4429C1.93406 12.3884 2.23595 12.2249 2.5588 12.0865L3.14161 11.8307H4.25273H5.36384L5.0913 12.1159C4.77265 12.4429 4.53365 12.879 4.4456 13.2941C4.40367 13.4953 4.3869 13.9062 4.3869 14.8077C4.3869 16.0111 4.39109 16.0488 4.48334 16.2123C4.7433 16.6819 5.46866 16.661 5.69089 16.1746C5.76217 16.0194 5.77055 15.8811 5.77055 14.8496C5.77055 14.141 5.78732 13.6337 5.81667 13.5289C5.87957 13.3066 6.07244 13.0299 6.24016 12.9293C6.50431 12.7658 8.63849 11.8307 8.7475 11.8307C8.82717 11.8307 8.88168 11.8811 8.97811 12.0446C9.26742 12.5393 9.89636 12.9964 10.4876 13.1515C10.8146 13.2396 11.4603 13.2396 11.7874 13.1515C12.3785 12.9964 13.0075 12.5393 13.2968 12.0446C13.3932 11.8811 13.4477 11.8307 13.5274 11.8307C13.5861 11.8307 14.1689 12.0697 14.8272 12.3632C16.5672 13.1431 16.475 13.0089 16.5044 14.8077C16.5253 15.9943 16.5295 16.0991 16.6092 16.2333C16.7056 16.401 16.9991 16.5687 17.1962 16.5687C17.4226 16.5687 17.6867 16.401 17.7958 16.1914C17.8838 16.0111 17.888 15.9691 17.888 14.7867C17.888 13.9062 17.8712 13.4953 17.8293 13.2941C17.7413 12.879 17.5023 12.4429 17.1836 12.1159L16.9111 11.8307H18.0222H19.1333L19.7161 12.0865C20.039 12.2249 20.3408 12.3884 20.3954 12.4429C20.4834 12.5435 20.4876 12.5813 20.4876 13.2312C20.4876 13.8643 20.496 13.9272 20.584 14.0949C20.693 14.3045 20.9614 14.4723 21.1794 14.4723C21.3975 14.4723 21.6658 14.3045 21.779 14.0907C21.8754 13.9104 21.8754 13.8811 21.8629 13.0676L21.8503 12.2291L21.7203 11.9565C21.5694 11.6379 21.3891 11.4156 21.1417 11.2479C21.0453 11.1808 20.626 10.9754 20.2025 10.7867L19.4352 10.4471H17.8041H16.1689L15.6071 10.6987L15.0452 10.9502L14.5295 10.7112L14.0096 10.4681L13.4687 10.4555C13.171 10.4471 12.8649 10.4513 12.7853 10.4681C12.563 10.51 12.3744 10.707 12.2528 11.0257C12.0389 11.5876 11.6993 11.8307 11.1375 11.8307C10.5756 11.8307 10.236 11.5876 10.0263 11.0299C9.91313 10.7406 9.76638 10.5645 9.5735 10.4932C9.50642 10.4681 9.20453 10.4471 8.90264 10.4471H8.34918L7.79153 10.6987L7.22968 10.946L6.66783 10.6945L6.10179 10.4471L4.45818 10.4513H2.81457L2.05565 10.7951Z" fill="#1B2024"/>
<g clip-path="url(#clip1_807_640)">
<path d="M10.6606 15.8351V18.0857H9.81663V15.8351H10.6606ZM10.6606 14.9911H9.81663C9.34963 14.9911 8.97264 15.3681 8.97264 15.8351V18.0857C8.97264 18.5527 9.34963 18.9297 9.81663 18.9297H10.6606C11.1276 18.9297 11.5046 18.5527 11.5046 18.0857V15.8351C11.5046 15.3681 11.1276 14.9911 10.6606 14.9911ZM7.28467 15.8351H7.84733V18.9297H8.69131V14.9911H7.28467V15.8351ZM12.2079 16.6791C11.9744 16.6791 11.7859 16.8704 11.7859 17.1011V17.6637C11.7859 17.8944 11.9744 18.0857 12.2079 18.0857H12.9113V18.367H11.7859V18.9297H13.0519C13.2854 18.9297 13.4739 18.7412 13.4739 18.5077V17.945C13.4739 17.7115 13.2854 17.5231 13.0519 17.5231H12.3486V17.2417H13.4739V16.6791H12.2079Z" fill="#1B2024"/>
</g>
</g>
<defs>
<clipPath id="clip0_807_640">
<rect width="22" height="19" fill="white"/>
</clipPath>
<clipPath id="clip1_807_640">
<rect width="4.50127" height="4.37266" fill="white" transform="translate(7.15576 14.7982)"/>
</clipPath>
</defs>
</svg>
