<svg width="59" height="45" viewBox="0 0 59 45" fill="none" xmlns="http://www.w3.org/2000/svg">
<path d="M9.03583 0.693272C7.14407 1.93878 3.19603 4.86456 2.96103 5.19356C2.71428 5.52257 2.73778 5.87507 3.04328 6.28632C3.20778 6.50957 3.37228 6.52132 6.33331 6.55658L9.45884 6.59183V8.57759V10.5634L8.61283 10.8101C5.66355 11.6679 3.29003 12.6784 1.98577 13.6536C1.23376 14.2176 0.587505 14.9344 0.223252 15.6277C0.0117501 16.0154 0 16.5089 0 26.7903V37.5416L0.282003 38.0704C0.728507 38.9164 1.01051 39.2336 1.88002 39.9151C5.17005 42.5002 12.5961 44.2744 22.7365 44.8854C25.2627 45.0382 32.5361 45.0382 35.1093 44.8854C43.8749 44.3567 50.1612 43.0994 54.2973 41.0549C56.0715 40.1854 57.3053 39.1749 57.8458 38.1409L58.163 37.5416V26.7903V16.0389L57.9045 15.5689C56.9175 13.7359 54.2855 12.1731 50.173 10.9746L48.8805 10.5986L48.8452 8.58934L48.8217 6.58008H51.818H54.826L55.108 6.28632C55.4605 5.94557 55.4958 5.41682 55.202 5.07606C54.967 4.81756 50.3257 1.45703 48.9627 0.575771C48.0697 -0.011734 47.7994 -0.0939865 47.4117 0.117516C47.0004 0.340767 46.9417 0.987022 46.9417 5.62832V10.1404L46.5657 10.0699C42.2769 9.3061 39.0691 8.8831 36.5428 8.75385C34.6628 8.64809 34.7216 8.6716 34.7216 8.04884V7.52008H35.8378C36.8718 7.52008 36.9893 7.49659 37.2478 7.22633L37.5416 6.94433V3.76005V0.575771L37.2478 0.293766L36.9658 1.52588e-05H29.0815H21.1972L20.9152 0.293766L20.6214 0.575771V3.76005V6.94433L20.9152 7.22633C21.1737 7.49659 21.2912 7.52008 22.3252 7.52008H23.4415V8.04884C23.4415 8.68335 23.606 8.6246 20.9857 8.80085C18.7414 8.9536 16.0859 9.2826 13.6889 9.7056C12.7489 9.87011 11.8206 10.0346 11.6091 10.0699L11.2331 10.1404L11.1979 5.28756L11.1626 0.446518L10.8806 0.223267C10.4458 -0.129238 10.1521 -0.0469856 9.03583 0.693272ZM35.6616 3.76005V5.64007H29.0815H22.5015V3.76005V1.88003H29.0815H35.6616V3.76005ZM9.30609 4.66481C9.27084 4.68831 8.68333 4.68831 7.99007 4.67656L6.73281 4.64131L8.00182 3.7248L9.28259 2.82004L9.31784 3.71305C9.34134 4.20655 9.32959 4.62956 9.30609 4.66481ZM50.267 3.7953C50.8897 4.24181 51.4067 4.62956 51.4067 4.65306C51.4067 4.67656 50.831 4.70006 50.1142 4.70006H48.8217V3.7483C48.8217 3.03154 48.857 2.83179 48.9745 2.89054C49.045 2.93754 49.6325 3.3488 50.267 3.7953ZM32.8416 8.01359V8.51884H29.0815H25.3215V8.01359V7.52008H29.0815H32.8416V8.01359ZM33.6053 10.4576C40.7141 10.8454 47.0709 11.8911 51.442 13.3951C54.0388 14.2881 55.6133 15.2634 56.1068 16.2739C56.4945 17.0612 56.3653 17.4959 55.531 18.3419C54.7203 19.1409 53.181 19.9282 50.9837 20.6567L49.562 21.1267L47.9874 20.739C47.1179 20.5275 45.7314 20.2455 44.8854 20.1045C44.0512 19.9635 43.2052 19.8225 43.0172 19.7872C42.6999 19.7167 42.7469 19.6462 44.8149 17.5782C46.9769 15.4044 47.0944 15.2282 46.8712 14.6289C46.7537 14.3351 46.1427 14.0649 45.7784 14.1589C45.5904 14.2059 44.4624 15.2399 42.8644 16.8262L40.2676 19.4112L38.2231 19.2232C37.1068 19.1174 34.8038 18.9647 33.1118 18.8942L30.0215 18.7532V15.7804V12.7959L29.7278 12.5139C29.3518 12.1261 28.8113 12.1261 28.4353 12.5139L28.1415 12.7959V15.7804V18.7532L24.8867 18.8942C23.089 18.9764 20.7742 19.1174 19.7519 19.2232L17.8837 19.3994L15.2164 16.7557C12.8429 14.3822 12.5256 14.1001 12.1849 14.1001C11.6679 14.1001 11.2214 14.5467 11.2214 15.0519C11.2214 15.3927 11.4681 15.6864 13.3481 17.5782C15.7569 19.9987 15.6864 19.7167 13.9826 19.9752C13.1014 20.1162 9.65859 20.833 9.01233 21.021C8.67158 21.1267 8.38958 21.068 7.19107 20.6685C5.07605 19.987 3.46628 19.1644 2.64377 18.3537C1.80952 17.5429 1.68027 17.0964 2.03277 16.2974C3.25478 13.5244 13.2776 10.9864 25.2627 10.4224C27.0958 10.3284 31.596 10.3519 33.6053 10.4576ZM3.93629 21.3852C12.5726 25.721 34.7333 26.7198 48.2929 23.3827C51.5242 22.5837 54.074 21.6085 55.6133 20.598L56.3418 20.1045V23.8057C56.3418 26.6493 56.3065 27.5893 56.1773 27.883C55.5193 29.4458 51.9707 31.0321 46.6009 32.1248C37.4358 34.0166 25.6152 34.3573 16.2152 33.0061C11.8324 32.3833 7.53182 31.2671 4.9233 30.0803C3.68953 29.528 2.53802 28.6938 2.16202 28.0945L1.82127 27.5658V23.841V20.1045L2.44402 20.5275C2.77303 20.7507 3.45453 21.1385 3.93629 21.3852ZM36.4841 20.974C39.9856 21.2677 45.0617 21.9257 45.0617 22.0902C45.0617 22.2665 39.1984 23.0067 35.5441 23.2887C32.6301 23.512 24.8867 23.4767 21.914 23.23C19.3054 23.0067 17.0964 22.76 15.3339 22.4897C14.7229 22.3957 13.9709 22.29 13.6654 22.243C13.3481 22.2077 13.1014 22.1372 13.1014 22.0902C13.1014 21.9962 15.8626 21.585 18.5652 21.2795C20.2807 21.0797 22.3252 20.927 25.2627 20.7507C26.896 20.6567 34.4631 20.7977 36.4841 20.974ZM3.81879 31.6666C11.0334 35.2738 27.4953 36.7191 41.4779 34.9566C47.9522 34.1341 53.3455 32.5831 55.766 30.8441L56.3418 30.4328V33.6641C56.3418 36.6839 56.33 36.9424 56.1068 37.3654C54.873 39.7859 46.5069 42.1947 36.6956 42.9584L35.6616 43.0289V40.6084C35.6616 38.1879 35.6616 38.1761 35.3678 37.8941L35.0858 37.6004H29.0815H23.0772L22.7952 37.8941C22.5015 38.1761 22.5015 38.1879 22.5015 40.6084V43.0289L21.4792 42.9584C11.6444 42.1947 3.29003 39.7859 2.04452 37.3536C1.84477 36.9424 1.82127 36.6369 1.82127 33.6758V30.4446L2.44402 30.8676C2.77303 31.0908 3.39578 31.4551 3.81879 31.6666ZM33.7816 41.2782V43.0877L32.6418 43.1582C31.1495 43.2639 27.2368 43.2639 25.6387 43.1582L24.3815 43.0877V41.2782V39.4804H29.0815H33.7816V41.2782Z" fill="black"/>
</svg>
