<svg width="22" height="22" viewBox="0 0 22 22" fill="none" xmlns="http://www.w3.org/2000/svg">
<path d="M10.9999 1.83344C5.94542 1.83344 1.83325 5.9456 1.83325 11.0001C1.83325 16.0546 5.94542 20.1668 10.9999 20.1668C16.0544 20.1668 20.1666 16.0546 20.1666 11.0001C20.1666 5.9456 16.0544 1.83344 10.9999 1.83344ZM10.9999 18.3334C6.9565 18.3334 3.66659 15.0435 3.66659 11.0001C3.66659 6.95669 6.9565 3.66677 10.9999 3.66677C15.0433 3.66677 18.3333 6.95669 18.3333 11.0001C18.3333 15.0435 15.0433 18.3334 10.9999 18.3334Z" fill="#1B2024"/>
<path d="M11.9166 6.41669H10.0833V11.9167H15.5833V10.0834H11.9166V6.41669Z" fill="#1B2024"/>
</svg>
