<svg width="27" height="27" viewBox="0 0 27 27" fill="none" xmlns="http://www.w3.org/2000/svg">
<path d="M13.5 24.75C19.7134 24.75 24.75 19.7134 24.75 13.5C24.75 7.28663 19.7134 2.25 13.5 2.25C7.28663 2.25 2.25 7.28663 2.25 13.5C2.25 19.7134 7.28663 24.75 13.5 24.75Z" stroke="#1B2024" stroke-width="1.6875" stroke-linecap="round" stroke-linejoin="round"/>
<path d="M13.5 18.4399V20.8125M16.875 9.5625C16.1044 8.79187 14.7476 8.25638 13.5 8.22263L16.875 9.5625ZM10.125 16.875C10.8495 17.8425 12.1984 18.3938 13.5 18.4399L10.125 16.875ZM13.5 8.22263C12.015 8.18213 10.6875 8.85375 10.6875 10.6875C10.6875 14.0625 16.875 12.375 16.875 15.75C16.875 17.6749 15.228 18.5018 13.5 18.4399V8.22263ZM13.5 8.22263V6.1875V8.22263Z" stroke="#1B2024" stroke-width="1.6875" stroke-linecap="round" stroke-linejoin="round"/>
</svg>
