<svg width="27" height="20" viewBox="0 0 27 20" fill="none" xmlns="http://www.w3.org/2000/svg">
<path d="M13.1668 0.0608368C12.7876 0.168465 12.3827 0.419594 12.1162 0.711725C11.9163 0.937229 11.4038 1.86487 11.2039 2.37226L11.1219 2.58238L10.6965 2.49013C8.53888 2.02887 6.22746 2.40813 4.3568 3.53053C0.354099 5.92907 -1.13218 10.9158 0.917859 15.0671C2.9679 19.2133 7.85724 21.0789 12.1572 19.3619C13.0797 18.9929 13.9817 18.4292 14.7864 17.7219L15.2527 17.3119L15.6986 17.6399C16.3136 18.096 16.8928 18.4343 17.6923 18.8187C19.1119 19.5003 20.4547 19.854 22.064 19.977C23.2171 20.0641 23.7399 19.9155 24.319 19.3363C24.5753 19.0801 24.688 18.9007 24.9699 18.3318C25.5542 17.1325 25.9181 15.9743 26.1128 14.6674C26.2307 13.9088 26.2461 12.0946 26.1436 11.3617C25.9744 10.188 25.5593 8.63 25.3492 8.40449C25.2211 8.26099 24.9546 8.20461 24.7957 8.28662C24.4984 8.44037 24.4267 8.70175 24.5702 9.11176C24.8316 9.84977 25.0673 10.9568 25.1596 11.8691C25.3543 13.8678 24.9904 15.923 24.1038 17.7629C23.5554 18.9109 23.3094 19.0544 22.064 18.9519C20.3215 18.8084 18.7173 18.3011 17.2362 17.4247C14.1867 15.6155 12.0957 12.5814 11.4756 9.05538C11.3321 8.25074 11.2808 6.61071 11.3679 5.82144C11.5166 4.5453 11.8907 3.2794 12.4596 2.12625C12.967 1.10123 13.1771 0.973104 14.2431 1.02948C16.0676 1.12173 17.8922 1.70087 19.4912 2.69001C20.3061 3.19227 20.9621 3.72528 21.7411 4.50942C22.4074 5.18081 22.515 5.27306 22.6688 5.27818C22.8686 5.28331 23.089 5.15518 23.171 4.98093C23.2889 4.71955 23.1864 4.53505 22.5868 3.90466C20.2958 1.50611 17.2977 0.117214 14.1662 0.00958633C13.6127 -0.0109138 13.3821 -0.000663757 13.1668 0.0608368ZM10.2609 3.44852C10.7632 3.53565 10.7683 3.54078 10.7375 3.66891C10.7222 3.74066 10.6504 4.05841 10.5838 4.36592C10.3942 5.18593 10.2968 6.1392 10.2968 7.14372V8.03036L8.749 8.02524H7.1961L6.56059 7.14372L5.9302 6.26733L6.36071 4.9348L6.79122 3.60228L7.01672 3.53565C7.78036 3.31015 9.28201 3.26915 10.2609 3.44852ZM5.53044 4.11991C5.53044 4.14554 5.41257 4.53505 5.26394 4.99118L5.00256 5.82657H4.04929L3.09602 5.82144L3.45478 5.48831C3.94167 5.03218 4.44392 4.66317 4.99231 4.34542C5.44844 4.08404 5.53044 4.04816 5.53044 4.11991ZM5.7457 7.74335L6.39146 8.63512L5.88408 10.1932L5.38182 11.7461L4.34655 12.0894L3.3164 12.4328L2.16838 11.6026L1.02036 10.7723L1.05111 10.4904C1.17924 9.23988 1.538 8.13286 2.13251 7.14372L2.30676 6.85159H3.70079L5.09481 6.85671L5.7457 7.74335ZM10.4762 9.29113C10.5428 9.74727 10.8042 10.7313 11.0297 11.3617L11.2552 12.0074L10.1123 12.8377C9.48702 13.2938 8.93863 13.6833 8.89763 13.6987C8.83101 13.7243 6.40171 12.0126 6.40171 11.9408C6.40171 11.9254 6.61184 11.2694 6.86809 10.4853L7.32935 9.05538H8.88226H10.4403L10.4762 9.29113ZM1.866 12.6429C2.23501 12.9043 2.54764 13.135 2.56814 13.1555C2.59377 13.1708 2.47589 13.586 2.30676 14.078L2.0095 14.9749L1.85575 14.6674C1.5175 14.0011 1.25612 13.1657 1.09724 12.2637C1.07161 12.0997 1.07674 12.0689 1.13311 12.1099C1.16899 12.1407 1.50212 12.3816 1.866 12.6429ZM7.04235 13.6987L8.34925 14.652V15.7385V16.825L7.36523 17.5374C6.82709 17.932 6.30946 18.3062 6.22233 18.3677L6.06345 18.4753L5.67907 18.3062C4.83343 17.9372 4.01854 17.3683 3.32665 16.6815C2.67577 16.0306 2.69114 16.2356 3.17803 14.7237L3.60341 13.4117L4.57718 13.0837C5.11531 12.9043 5.59707 12.7506 5.6432 12.7506C5.68932 12.7454 6.31971 13.176 7.04235 13.6987ZM12.4339 14.2061C12.9003 14.9236 13.3616 15.5027 13.9459 16.1075L14.4481 16.6303L14.0791 16.9737C13.8741 17.1633 13.4897 17.4605 13.2181 17.6399C12.6697 18.0089 11.6908 18.4958 11.6088 18.4446C11.5781 18.4292 11.0604 18.0602 10.4608 17.6245L9.37427 16.8353L9.38452 15.7283L9.39989 14.6212L10.5479 13.7858L11.6959 12.9505L11.9009 13.3246C12.0086 13.5245 12.2494 13.9242 12.4339 14.2061ZM9.6459 18.3011C10.2455 18.7316 10.3429 18.8187 10.2558 18.8494C10.1943 18.8751 9.86115 18.9161 9.50752 18.9519C8.86688 19.0083 7.74961 18.9571 7.46773 18.8494C7.37548 18.8187 7.46773 18.7316 8.09812 18.2703C8.503 17.973 8.86176 17.7424 8.88738 17.7578C8.91813 17.7732 9.25639 18.0192 9.6459 18.3011Z" fill="black"/>
<path d="M14.9502 4.26342C14.5914 4.4633 14.6171 4.71443 15.063 5.49345C15.2628 5.83683 15.4217 6.13408 15.4217 6.15458C15.4217 6.16996 15.2936 6.25709 15.1398 6.34421C14.9861 6.43134 14.8118 6.55947 14.7555 6.63122C14.6017 6.82597 14.6222 7.08223 14.8016 7.26673C15.0117 7.47173 15.2372 7.46661 15.6472 7.23598L15.965 7.0566L16.4109 7.82536L16.8516 8.59413L16.5287 8.77863C16.3494 8.88113 16.1649 9.03489 16.1136 9.11689C15.9445 9.40389 16.1392 9.78828 16.4775 9.8549C16.6107 9.88053 16.7184 9.84465 17.0054 9.6909C17.2001 9.58327 17.3744 9.50639 17.3846 9.51665C17.4461 9.58327 18.2456 11.0132 18.2303 11.0285C18.22 11.0388 18.0714 11.1259 17.8971 11.2284C17.5384 11.4386 17.4718 11.5257 17.4718 11.7973C17.4718 11.9357 17.5128 12.0228 17.6204 12.1356C17.8254 12.3354 18.0201 12.3303 18.4301 12.0997C18.6146 11.9972 18.7684 11.9254 18.7787 11.9357C18.8863 12.0536 19.6243 13.422 19.6038 13.4578C19.5833 13.4835 19.4449 13.5808 19.2912 13.668C19.1374 13.7551 18.9734 13.8781 18.9324 13.9396C18.8094 14.1139 18.835 14.365 18.999 14.5341C19.2194 14.7801 19.3475 14.7801 19.7883 14.5495L20.1727 14.3445L20.5263 14.9544C20.7211 15.2926 20.9312 15.6155 20.9927 15.677C21.2438 15.9128 21.7051 15.7539 21.7973 15.3951C21.8435 15.226 21.8178 15.1696 21.5206 14.6315C21.3412 14.3137 21.1669 14.0011 21.1259 13.9447C21.0593 13.8371 21.0747 13.8217 21.3873 13.6372C21.8845 13.3502 22.0075 12.9863 21.7102 12.6993C21.5052 12.5097 21.3258 12.5148 20.9414 12.7147C20.7518 12.8172 20.5776 12.8992 20.5571 12.8992C20.5109 12.8992 19.655 11.4181 19.6807 11.3924C19.6909 11.3873 19.8447 11.2899 20.0241 11.1874C20.3828 10.9722 20.4443 10.885 20.4443 10.6185C20.4443 10.4802 20.4033 10.393 20.2957 10.2803C20.0907 10.0804 19.8959 10.0855 19.4859 10.3162C19.3014 10.4187 19.1477 10.4904 19.1323 10.4802C19.122 10.4648 18.917 10.1214 18.6813 9.7114L18.2508 8.96314L18.5531 8.79401C18.9324 8.58388 19.0042 8.50188 19.0452 8.26612C19.081 8.03037 18.9632 7.84586 18.712 7.73824C18.5326 7.66136 18.5224 7.66649 18.1278 7.86636L17.7331 8.07649L17.318 7.34873C17.0874 6.94897 16.8977 6.60047 16.8926 6.57484C16.8875 6.54922 17.0105 6.45696 17.1642 6.36471C17.5538 6.12896 17.6409 6.02646 17.6409 5.76508C17.6409 5.5857 17.6101 5.5242 17.4718 5.40119C17.2616 5.21157 17.0464 5.22694 16.6722 5.4627C16.5287 5.54982 16.3904 5.62157 16.3647 5.62157C16.3391 5.62157 16.1597 5.34482 15.9701 5.01169C15.7753 4.67343 15.5755 4.3608 15.5242 4.31467C15.3961 4.1968 15.1142 4.17117 14.9502 4.26342Z" fill="black"/>
<path d="M23.8482 6.18534C23.5151 6.32372 23.4177 6.75935 23.6689 7.01048C24.0481 7.38461 24.6734 7.01048 24.5094 6.51334C24.4274 6.26222 24.0789 6.08796 23.8482 6.18534Z" fill="black"/>
</svg>
