<svg width="57" height="57" viewBox="0 0 57 57" fill="none" xmlns="http://www.w3.org/2000/svg">
<path d="M14.4566 17.0715C14.3024 17.458 14.1607 17.8493 14.0315 18.2448C15.1311 18.411 16.3186 18.6438 17.5536 18.9549C18.1491 17.2822 19.02 15.7209 20.1305 14.3355L30.1364 24.3438L29.5379 24.9423C30.4385 25.7185 31.2807 26.5599 32.0578 27.4598L32.6563 26.8637L42.6621 36.8695C41.2774 37.9797 39.7169 38.8506 38.0451 39.4464C38.3563 40.6814 38.5866 41.8689 38.7576 42.9662C41.683 42.0116 44.3404 40.3772 46.512 38.1972C48.2669 36.4438 49.6732 34.3734 50.6564 32.0958C52.1594 28.5953 52.6101 24.7327 51.9535 20.9802C51.2969 17.2277 49.5614 13.7477 46.959 10.9655C44.3567 8.18333 41.0003 6.21946 37.3 5.31388C33.5996 4.40831 29.7156 4.60026 26.1226 5.86628C23.4944 6.79932 21.0948 8.28106 19.0834 10.213C17.0719 12.145 15.4948 14.483 14.4566 17.0715ZM47.6116 18.5607C46.5978 19.3575 45.371 19.8368 44.0855 19.9382C42.7999 20.0396 41.5131 19.7587 40.3869 19.1307L45.1844 14.3355C46.2246 15.637 47.0369 17.0668 47.614 18.5607H47.6116ZM37.8053 21.7147C39.3674 22.8002 41.2042 23.4229 43.1045 23.5111C45.0047 23.5993 46.8913 23.1495 48.5474 22.2134C48.8358 24.3588 48.6862 26.5403 48.1078 28.6262C47.5294 30.7122 46.534 32.6592 45.182 34.3497L35.1761 24.3438L37.8053 21.7147ZM35.2878 19.1948L32.6563 21.8239L22.648 11.818C24.3388 10.4657 26.2862 9.4702 28.3725 8.89176C30.4589 8.31333 32.6409 8.16395 34.7866 8.45265C33.8505 10.1087 33.4007 11.9953 33.4889 13.8955C33.5772 15.7958 34.1998 17.6326 35.2854 19.1948H35.2878ZM37.8694 16.6132C37.2408 15.4866 36.9596 14.1994 37.061 12.9134C37.1625 11.6274 37.642 10.4001 38.4394 9.38603C39.9356 9.96553 41.3606 10.7754 42.6645 11.818L37.867 16.6132H37.8694ZM16.5538 31.9913C16.8877 31.6577 17.3405 31.4703 17.8125 31.4703C18.2845 31.4703 18.7373 31.6577 19.0713 31.9913L25.0088 37.9288C25.1838 38.0919 25.3241 38.2885 25.4215 38.507C25.5188 38.7255 25.5712 38.9614 25.5754 39.2005C25.5796 39.4397 25.5356 39.6773 25.446 39.8991C25.3565 40.1209 25.2231 40.3223 25.054 40.4915C24.8848 40.6606 24.6833 40.794 24.4615 40.8836C24.2398 40.9732 24.0022 41.0172 23.763 41.0129C23.5238 41.0087 23.288 40.9564 23.0695 40.859C22.851 40.7617 22.6543 40.6213 22.4913 40.4463L16.5538 34.5088C16.2202 34.1748 16.0328 33.7221 16.0328 33.25C16.0328 32.778 16.2202 32.3253 16.5538 31.9913ZM4.8165 26.1702C4.746 25.3758 4.85057 24.5758 5.12283 23.8262C5.3951 23.0767 5.82843 22.3961 6.3923 21.8322C6.95616 21.2683 7.63684 20.835 8.38634 20.5627C9.13585 20.2905 9.93595 20.1859 10.7303 20.2564C15.4304 20.6127 23.4128 22.0804 29.165 27.8327C34.9196 33.5873 36.3898 41.5697 36.746 46.2698C36.8165 47.0641 36.7119 47.8642 36.4397 48.6137C36.1674 49.3632 35.7341 50.0439 35.1702 50.6077C34.6063 51.1716 33.9257 51.6049 33.1762 51.8772C32.4267 52.1495 31.6266 52.254 30.8323 52.1835C26.1345 51.8273 18.1498 50.3548 12.3975 44.6025C6.64288 38.8503 5.17275 30.8679 4.8165 26.1702ZM10.4619 23.807C10.1794 23.7753 9.89338 23.8076 9.62508 23.9015C9.35678 23.9954 9.11309 24.1486 8.91208 24.3496C8.71107 24.5506 8.55792 24.7943 8.46399 25.0626C8.37006 25.3309 8.33777 25.6169 8.3695 25.8994C8.70438 30.324 10.0748 37.2448 14.915 42.085C19.7576 46.9253 26.676 48.2957 31.1006 48.6305C31.3831 48.6623 31.6691 48.63 31.9374 48.536C32.2057 48.4421 32.4494 48.289 32.6504 48.088C32.8514 47.8869 33.0046 47.6432 33.0985 47.375C33.1924 47.1067 33.2247 46.8206 33.193 46.5382C32.8581 42.1135 31.4878 35.1952 26.6475 30.3525C21.8073 25.5123 14.8865 24.1419 10.4619 23.807Z" fill="#61C4FF"/>
</svg>
