<svg width="52" height="52" viewBox="0 0 52 52" fill="none" xmlns="http://www.w3.org/2000/svg">
<path d="M19.5 43.3333H13C10.7015 43.3333 8.49707 42.4202 6.87175 40.7949C5.24644 39.1696 4.33334 36.9652 4.33334 34.6667V15.1667C4.33334 12.8681 5.24644 10.6637 6.87175 9.03841C8.49707 7.41309 10.7015 6.5 13 6.5H36.8333C39.1319 6.5 41.3363 7.41309 42.9616 9.03841C44.5869 10.6637 45.5 12.8681 45.5 15.1667V21.6667" stroke="#61C4FF" stroke-width="4.33333" stroke-linecap="round" stroke-linejoin="round"/>
<path d="M17.3333 4.33337V8.66671" stroke="#61C4FF" stroke-width="4.33333" stroke-linecap="round" stroke-linejoin="round"/>
<path d="M32.5 4.33337V8.66671" stroke="#61C4FF" stroke-width="4.33333" stroke-linecap="round" stroke-linejoin="round"/>
<path d="M4.33334 17.3334H45.5" stroke="#61C4FF" stroke-width="4.33333" stroke-linecap="round" stroke-linejoin="round"/>
<path d="M40.0833 33.8931L36.8333 37.1431" stroke="#61C4FF" stroke-width="4.33333" stroke-linecap="round" stroke-linejoin="round"/>
<path d="M36.8333 47.6667C42.8164 47.6667 47.6667 42.8164 47.6667 36.8333C47.6667 30.8502 42.8164 26 36.8333 26C30.8503 26 26 30.8502 26 36.8333C26 42.8164 30.8503 47.6667 36.8333 47.6667Z" stroke="#61C4FF" stroke-width="4.33333" stroke-linecap="round" stroke-linejoin="round"/>
</svg>
