<svg width="47" height="37" viewBox="0 0 47 37" fill="none" xmlns="http://www.w3.org/2000/svg">
<path d="M4.625 0C2.05812 0 0 2.05812 0 4.625V32.375C0 33.6016 0.487275 34.778 1.35463 35.6454C2.22199 36.5127 3.39837 37 4.625 37H41.625C42.8516 37 44.028 36.5127 44.8954 35.6454C45.7627 34.778 46.25 33.6016 46.25 32.375V4.625C46.25 3.39837 45.7627 2.22199 44.8954 1.35463C44.028 0.487275 42.8516 0 41.625 0H4.625ZM4.625 4.625H20.8125V9.55063C16.7425 10.6144 13.875 14.2912 13.875 18.5C13.8805 20.5485 14.5641 22.5375 15.8192 24.1565C17.0742 25.7756 18.83 26.9334 20.8125 27.4494V32.375H4.625V27.75H11.5625V9.25H4.625V4.625ZM25.4375 4.625H41.625V9.25H34.6875V27.75H41.625V32.375H25.4375V27.4494C29.5075 26.3856 32.375 22.7088 32.375 18.5C32.3695 16.4515 31.6859 14.4625 30.4308 12.8435C29.1758 11.2244 27.42 10.0666 25.4375 9.55063V4.625ZM4.625 13.875H6.9375V23.125H4.625V13.875ZM39.3125 13.875H41.625V23.125H39.3125V13.875ZM25.4375 14.4994C26.8713 15.3319 27.75 16.8581 27.75 18.5C27.75 20.1419 26.8713 21.6681 25.4375 22.5006V14.4994ZM20.8125 14.4994V22.5006C19.3787 21.6681 18.5 20.1419 18.5 18.5C18.5 16.8581 19.3787 15.3319 20.8125 14.4994Z" fill="#61C4FF"/>
</svg>
