<svg width="57" height="57" viewBox="0 0 57 57" fill="none" xmlns="http://www.w3.org/2000/svg">
<path d="M45.125 33.25V14.25C45.125 11.6375 42.9875 9.5 40.375 9.5H7.125C4.5125 9.5 2.375 11.6375 2.375 14.25V33.25C2.375 35.8625 4.5125 38 7.125 38H40.375C42.9875 38 45.125 35.8625 45.125 33.25ZM40.375 33.25H7.125V14.25H40.375V33.25ZM23.75 16.625C19.8075 16.625 16.625 19.8075 16.625 23.75C16.625 27.6925 19.8075 30.875 23.75 30.875C27.6925 30.875 30.875 27.6925 30.875 23.75C30.875 19.8075 27.6925 16.625 23.75 16.625ZM54.625 16.625V42.75C54.625 45.3625 52.4875 47.5 49.875 47.5H9.5V42.75H49.875V16.625H54.625Z" fill="#61C4FF"/>
</svg>
