<svg width="22" height="22" viewBox="0 0 22 22" fill="none" xmlns="http://www.w3.org/2000/svg">
<path d="M9.82018 0.0123005C9.74127 0.020607 9.49623 0.0496788 9.28026 0.0745983C5.9951 0.448383 2.95914 2.50836 1.28956 5.49449C0.683197 6.58262 0.242961 7.93655 0.0560678 9.29049C-0.0186893 9.80963 -0.0186893 11.4294 0.0560678 11.9485C0.492151 15.1132 2.17834 17.8003 4.8156 19.5322C7.34488 21.1935 10.5345 21.6794 13.4957 20.8488C17.354 19.7689 20.3319 16.517 21.0504 12.5964C21.6982 9.08698 20.6226 5.61078 18.1224 3.10641C16.4653 1.45345 14.4717 0.452538 12.1044 0.0912113C11.6891 0.0289135 10.1441 -0.0250778 9.82018 0.0123005ZM12.0047 1.33716C12.2373 1.37039 12.5945 1.44515 12.7938 1.49498L13.1635 1.58635L13.6494 3.06073C13.9194 3.8706 14.1436 4.56418 14.1478 4.60155C14.1561 4.63894 13.8695 5.07502 13.5165 5.56509L12.8728 6.46218H10.6093H8.3458L7.70206 5.56509C7.34904 5.07086 7.06247 4.63894 7.07078 4.60155C7.07908 4.56418 7.2992 3.87475 7.56085 3.06904C7.99693 1.74002 8.05092 1.59881 8.14645 1.56143C8.32088 1.49498 9.23458 1.3247 9.63328 1.27902C10.1441 1.22503 11.4939 1.2541 12.0047 1.33716ZM6.22768 3.13964C6.0574 3.67125 5.91619 4.11148 5.91619 4.11979C5.91619 4.13225 5.44273 4.14055 4.86959 4.14055L3.81884 4.1364L4.19263 3.78338C4.80314 3.20194 5.45104 2.74094 6.33151 2.26332C6.43534 2.20518 6.52256 2.16364 6.53086 2.17195C6.53917 2.1761 6.40211 2.61219 6.22768 3.13964ZM15.8298 2.824C16.2659 3.11472 16.9096 3.63802 17.2128 3.94951L17.3956 4.14055H16.3573H15.3148L15.0199 3.23516C14.8621 2.74094 14.7168 2.29239 14.7043 2.24256C14.6794 2.16364 14.7168 2.1761 15.049 2.35469C15.2567 2.46267 15.6055 2.67448 15.8298 2.824ZM6.69699 6.3002L7.3615 7.2139L7.05416 8.15667C6.88804 8.67997 6.57655 9.6352 6.36474 10.2872L5.97849 11.4668L4.91943 11.8156C4.02235 12.1105 3.84791 12.1562 3.77731 12.1105C3.69425 12.0607 1.31863 10.3412 1.25218 10.2872C1.20234 10.2416 1.29371 9.34863 1.41416 8.75888C1.63427 7.65829 2.13681 6.40819 2.70579 5.54848L2.81377 5.38651H4.4252H6.03664L6.69699 6.3002ZM18.5211 5.55679C19.0776 6.39988 19.5884 7.6749 19.8044 8.75888C19.9248 9.34863 20.0162 10.2416 19.9664 10.2872C19.8916 10.3579 17.4454 12.123 17.4039 12.1396C17.3789 12.1479 16.8806 12.0025 16.2991 11.8115L15.2442 11.4709L14.8538 10.2872C14.642 9.6352 14.3305 8.67997 14.1644 8.15667L13.8571 7.2139L14.5174 6.3002L15.1819 5.38651H16.7934H18.4048L18.5211 5.55679ZM12.7191 7.78289C12.7399 7.82442 13.0306 8.70489 13.367 9.73903C13.7034 10.7732 13.9858 11.6412 13.9983 11.6703C14.0107 11.7035 13.3919 12.1811 12.3121 12.9619L10.6093 14.1995L8.93555 12.9868C8.0177 12.3182 7.25351 11.7616 7.2369 11.745C7.21198 11.7242 8.44132 7.8701 8.50777 7.75797C8.52854 7.72474 9.1349 7.71228 10.6093 7.71228C12.5405 7.71228 12.6859 7.71644 12.7191 7.78289ZM2.16173 12.4926C2.60612 12.8124 2.96744 13.0989 2.96744 13.1239C2.96744 13.2069 2.37354 15.0219 2.34447 15.0219C2.26971 15.0219 1.85854 14.0625 1.64673 13.4021C1.48891 12.9079 1.2771 11.907 1.33109 11.907C1.3477 11.907 1.71734 12.1686 2.16173 12.4926ZM19.8875 12.0399C19.7255 13.02 19.4389 13.9296 19.0527 14.7145C18.9696 14.8848 18.8865 15.0219 18.8741 15.0219C18.8201 15.0219 18.2387 13.1405 18.276 13.0865C18.3176 13.0242 19.8335 11.9111 19.8792 11.9111C19.8958 11.907 19.8999 11.9693 19.8875 12.0399ZM8.2752 14.0417L9.9863 15.2877V16.4132V17.5387L8.71543 18.4648C8.0177 18.9715 7.41964 19.3993 7.39057 19.4118C7.25767 19.4616 5.97434 18.8179 5.3306 18.3818C4.65363 17.9166 3.79808 17.1358 3.35784 16.5793L3.22909 16.4132L3.71917 14.9014C3.98497 14.0708 4.2217 13.3772 4.24247 13.3606C4.25908 13.344 4.54565 13.2402 4.8779 13.1363C5.21015 13.0325 5.67531 12.883 5.91619 12.8041C6.33566 12.667 6.35643 12.6629 6.46026 12.7293C6.5184 12.7667 7.33658 13.3606 8.2752 14.0417ZM15.9586 13.0117C16.4985 13.1862 16.9595 13.344 16.9761 13.3606C16.9969 13.3772 17.2336 14.0708 17.4994 14.9014L17.9895 16.4132L17.8607 16.5793C17.4205 17.1358 16.5691 17.9166 15.888 18.3818C15.1487 18.8843 13.9526 19.4658 13.8031 19.3952C13.7657 19.3785 13.1718 18.9508 12.4824 18.4482L11.2323 17.5387V16.4132V15.2877L13.0472 13.9711C14.0481 13.2443 14.887 12.6629 14.9161 12.6753C14.9493 12.6836 15.4187 12.8373 15.9586 13.0117ZM11.4233 19.2207C11.8635 19.5405 12.2373 19.8188 12.2498 19.8354C12.2581 19.8562 12.067 19.8935 11.822 19.9268C10.9249 20.0431 8.84833 19.96 8.99785 19.8146C9.05599 19.7565 10.5761 18.6393 10.6051 18.6393C10.6134 18.6351 10.9789 18.8968 11.4233 19.2207Z" fill="#1B2024"/>
</svg>
