<svg width="32" height="26" viewBox="0 0 32 26" fill="none" xmlns="http://www.w3.org/2000/svg">
<path d="M0.137796 25.2411C0.275724 25.379 0.365379 25.379 15.9997 25.379C31.634 25.379 31.7237 25.379 31.8616 25.2411C31.9995 25.1032 31.9995 25.0135 31.9995 12.6895C31.9995 0.365511 31.9995 0.275856 31.8616 0.137926C31.7237 -1.90735e-06 31.634 -1.90735e-06 15.9997 -1.90735e-06C0.365379 -1.90735e-06 0.275724 -1.90735e-06 0.137796 0.137926C-0.000133514 0.275856 -0.000133514 0.365511 -0.000133514 12.6895C-0.000133514 25.0135 -0.000133514 25.1032 0.137796 25.2411ZM1.59985 23.1446C5.70325 22.7515 9.25494 19.8894 10.5377 15.9653C10.9377 14.7447 10.9997 14.3033 10.9997 12.6895C10.9997 11.3861 10.9791 11.1171 10.8411 10.4826C9.84114 6.01372 6.09635 2.66893 1.59985 2.23446L1.1033 2.18618V1.64825V1.10343L8.27564 1.10343H15.448L15.4342 5.52407L15.4135 9.95161L15.1238 10.0344C14.448 10.2344 13.8135 10.7999 13.4618 11.5171C13.2894 11.8619 13.2756 11.9654 13.2756 12.6895C13.2756 13.4136 13.2894 13.5171 13.4618 13.8619C13.8135 14.5791 14.448 15.1447 15.1238 15.3447L15.4135 15.4274L15.4342 19.855L15.448 24.2756H8.27564L1.1033 24.2756V23.7308V23.1928L1.59985 23.1446ZM4.08258 15.4343L7.06875 15.4136L7.48254 15.2136C8.58598 14.6688 9.19287 13.5102 9.02046 12.255C8.90322 11.3861 8.30322 10.5723 7.48254 10.1654L7.06875 9.9654L4.08258 9.94472L1.1033 9.92403V6.6413V3.35858L1.58606 3.40686C1.84812 3.43444 2.37915 3.53099 2.75846 3.62754C6.64117 4.56546 9.57907 8.0206 9.84803 11.9654C10.0204 14.4205 9.30321 16.6826 7.7653 18.5929C6.28255 20.4412 3.88948 21.7446 1.58606 21.9722L1.1033 22.0204V18.7377V15.455L4.08258 15.4343ZM3.31017 11.0344H5.51705V12.6895V14.3447H3.31017H1.1033V12.6895V11.0344H3.31017ZM6.65496 11.1033C6.76531 11.1033 7.1653 11.3516 7.3653 11.5447C8.19978 12.324 7.99288 13.6136 6.95151 14.1447C6.81358 14.2136 6.67565 14.2757 6.65496 14.2757C6.63428 14.2757 6.62048 13.5585 6.62048 12.6895C6.62048 11.8137 6.63428 11.1033 6.65496 11.1033ZM14.5238 12.0826C14.6411 11.7861 14.9859 11.4137 15.2549 11.2688L15.448 11.1654V12.6895V14.2136L15.2549 14.1102C14.9928 13.9723 14.648 13.593 14.5238 13.3102C14.3859 12.993 14.3859 12.4068 14.5238 12.0826ZM16.9445 15.3102C17.6548 15.0619 18.179 14.5791 18.5376 13.8619C18.71 13.5171 18.7238 13.4136 18.7238 12.6895C18.7238 11.9654 18.71 11.8619 18.5376 11.5171C18.1859 10.7999 17.5514 10.2344 16.8755 10.0344L16.5859 9.95161L16.5652 5.52407L16.5514 1.10343H23.7237H30.8961V1.64825V2.18618L30.3926 2.23446C30.1237 2.26204 29.6133 2.3448 29.2754 2.42066C25.1375 3.31031 22.041 6.42062 21.1307 10.6206C21.0272 11.0895 20.9996 11.5033 20.9996 12.6895C20.9996 13.9929 21.0203 14.2619 21.1583 14.8964C22.1582 19.3722 25.8961 22.7101 30.3926 23.1446L30.8961 23.1928V23.7308V24.2756H23.7237H16.5514L16.5652 19.855L16.5859 15.4343L16.9445 15.3102ZM16.7376 11.2688C17.2411 11.5309 17.5859 12.1033 17.5859 12.6895C17.5859 13.2757 17.2411 13.8481 16.7376 14.1102L16.5514 14.2136V12.6895V11.1654L16.7376 11.2688ZM22.1651 11.793C22.3169 9.51024 23.6617 6.99302 25.5444 5.4758C26.9789 4.32409 28.7444 3.57237 30.4133 3.40686L30.8961 3.35858V6.6413V9.92403L27.9099 9.94472L24.9306 9.9654L24.5168 10.1654C23.6962 10.5723 23.0962 11.3861 22.9789 12.255C22.8065 13.5102 23.4134 14.6688 24.5168 15.2136L24.9306 15.4136L27.9168 15.4343L30.8961 15.455V18.7377V22.0204L30.4133 21.9722C30.1513 21.9446 29.6202 21.848 29.2409 21.7515C25.8685 20.9377 23.1927 18.2481 22.372 14.8619C22.2065 14.1723 22.0686 12.9516 22.11 12.5516C22.1238 12.455 22.1444 12.1171 22.1651 11.793ZM24.2755 11.9999C24.4341 11.6895 24.7237 11.3999 25.0479 11.2344C25.1858 11.1654 25.3237 11.1033 25.3444 11.1033C25.3651 11.1033 25.3789 11.8137 25.3789 12.6895C25.3789 13.5585 25.3651 14.2757 25.3444 14.2757C25.3237 14.2757 25.1858 14.2136 25.0479 14.1447C24.2203 13.724 23.8824 12.7861 24.2755 11.9999ZM28.6892 11.0344H30.8961V12.6895V14.3447H28.6892H26.4823V12.6895V11.0344H28.6892Z" fill="#1B2024"/>
</svg>
