<svg width="42" height="41" viewBox="0 0 42 41" fill="none" xmlns="http://www.w3.org/2000/svg">
<path fill-rule="evenodd" clip-rule="evenodd" d="M21.0455 3.41663C11.4048 3.41663 3.591 11.0443 3.591 20.4555C3.591 27.9825 8.59075 34.3699 15.5278 36.6249C16.401 36.7787 16.716 36.2542 16.716 35.8032C16.716 35.3983 16.702 34.3255 16.6968 32.9059C11.8405 33.9343 10.815 30.6201 10.815 30.6201C10.024 28.6521 8.87775 28.1277 8.87775 28.1277C7.294 27.0702 8.9985 27.0941 8.9985 27.0941C10.752 27.2137 11.6708 28.8503 11.6708 28.8503C13.2283 31.4538 15.7588 30.7021 16.7493 30.2665C16.9085 29.1646 17.3635 28.413 17.8605 27.9876C13.986 27.5588 9.912 26.0965 9.912 19.5655C9.912 17.7085 10.5928 16.1847 11.704 14.9957C11.5273 14.5635 10.9235 12.8295 11.8773 10.4857C11.8773 10.4857 13.342 10.0262 16.6758 12.2299C18.0995 11.8518 19.5682 11.6588 21.0438 11.6559C22.5193 11.6583 23.9881 11.8513 25.4118 12.2299C28.7473 10.0245 30.2103 10.4857 30.2103 10.4857C31.164 12.8295 30.5655 14.5635 30.3835 14.9957C31.5035 16.1847 32.1755 17.7068 32.1755 19.5655C32.1755 26.1135 28.098 27.552 24.2095 27.9739C24.8308 28.5001 25.3908 29.5387 25.3908 31.1275C25.3908 33.4064 25.3698 35.2446 25.3698 35.8032C25.3698 36.2593 25.6813 36.7889 26.572 36.6215C33.5055 34.3631 38.5 27.9807 38.5 20.4555C38.5 11.0443 30.6863 3.41663 21.0455 3.41663Z" fill="#F3FAFE"/>
</svg>
