<svg width="31" height="31" viewBox="0 0 31 31" fill="none" xmlns="http://www.w3.org/2000/svg">
<path d="M0 10.0205V20.041H2.73066C5.30391 20.041 5.46133 20.0471 5.43711 20.1439C5.41895 20.2045 4.45625 22.6385 3.2998 25.5508C2.14336 28.4631 1.18066 30.8789 1.16855 30.9213C1.14434 30.9879 1.71953 31 4.08691 30.9879L7.03555 30.9697L8.10723 28.2754L9.17285 25.5811L15.5 25.5689L21.8271 25.5508L22.8988 28.2633L23.9705 30.9697L26.9131 30.9879C28.5297 30.9939 29.8496 30.9879 29.8496 30.9758C29.8496 30.9637 28.893 28.5418 27.7244 25.5992C26.5498 22.6627 25.5811 20.2045 25.5689 20.1439C25.5387 20.0471 25.6961 20.041 28.2693 20.041H31V10.0205V-8.58552e-07H15.5H0V10.0205ZM29.1836 10.0205V18.2246H15.5H1.81641V10.0205V1.81641H15.5H29.1836V10.0205ZM9.36055 20.1439C9.33633 20.2045 8.525 22.2631 7.5502 24.7152L5.78223 29.1836H4.80137H3.81445L3.92949 28.893C4.72266 26.9131 7.33828 20.3256 7.38066 20.2045L7.44727 20.041H8.42207C9.32422 20.041 9.39687 20.0471 9.36055 20.1439ZM20.3256 21.7969C20.701 22.7475 21.0279 23.5709 21.0461 23.6254C21.0764 23.7283 20.7857 23.7344 15.5061 23.7344C12.4363 23.7344 9.92969 23.7223 9.92969 23.7102C9.92969 23.6799 11.3283 20.15 11.3646 20.0834C11.3768 20.0592 13.2477 20.0471 15.5182 20.0531L19.6414 20.0713L20.3256 21.7969ZM25.2723 24.3701C26.2107 26.7314 27.0221 28.784 27.0826 28.9232L27.1855 29.1836H26.1986H25.2178L23.4498 24.7152C22.475 22.2631 21.6637 20.2045 21.6395 20.1439C21.6031 20.0471 21.6637 20.041 22.584 20.0531L23.5648 20.0713L25.2723 24.3701Z" fill="#8FD5FE"/>
<path d="M5.81242 3.71153C4.18976 4.08086 3.25734 5.78223 3.82648 7.32618C4.52882 9.20313 7.0173 9.71172 8.36144 8.24649C9.9296 6.53907 8.85187 3.82657 6.54503 3.66309C6.32707 3.65098 5.99406 3.66914 5.81242 3.71153ZM6.84777 5.60664C7.09601 5.73379 7.26554 6.04864 7.26554 6.39375C7.26554 6.91446 6.91437 7.26563 6.39367 7.26563C5.41886 7.26563 5.12218 6.02442 5.99406 5.58243C6.28468 5.43711 6.53292 5.44317 6.84777 5.60664Z" fill="#8FD5FE"/>
<path d="M13.5625 4.3291L12.9268 4.96484L13.5504 5.58848C13.8895 5.92754 14.168 6.23633 14.168 6.2666C14.168 6.29688 13.8895 6.60566 13.5504 6.94473L12.9268 7.56836L13.5625 8.2041L14.1982 8.83984L14.8461 8.19199L15.5 7.53809L16.1539 8.19199L16.8018 8.83984L17.4375 8.2041L18.0732 7.56836L17.4496 6.94473C17.1105 6.60566 16.832 6.29688 16.832 6.2666C16.832 6.23633 17.1105 5.92754 17.4496 5.58848L18.0732 4.96484L17.4375 4.3291L16.8018 3.69336L16.1539 4.34121L15.5 4.99512L14.8461 4.34121L14.1982 3.69336L13.5625 4.3291Z" fill="#8FD5FE"/>
<path d="M20.0895 5.48555C20.0592 5.50977 20.041 5.91543 20.041 6.3877V7.25352L21.149 7.28379C21.7848 7.30195 22.3479 7.34434 22.475 7.38672C23.0441 7.58652 23.577 8.22227 23.6617 8.82168L23.7041 9.1123H24.6123H25.5205L25.4963 8.7793C25.4115 7.39883 24.3701 6.10313 22.9836 5.65508C22.5416 5.50977 22.3781 5.4916 21.3125 5.46738C20.6646 5.44922 20.1137 5.45527 20.0895 5.48555Z" fill="#8FD5FE"/>
<path d="M5.47944 11.2436C5.71558 12.9207 6.70854 14.0711 8.28276 14.4768C8.6521 14.5676 8.94878 14.5918 9.85093 14.5918H10.9589V13.6896V12.7875L9.82671 12.7633C8.7187 12.7451 8.67632 12.7391 8.34331 12.5756C7.76812 12.291 7.32612 11.6613 7.32612 11.1285V10.959H6.38159H5.44312L5.47944 11.2436Z" fill="#8FD5FE"/>
<path d="M23.7648 11.0861C21.8031 11.7643 21.2521 14.2164 22.7416 15.6453C23.8132 16.6746 25.5207 16.6443 26.556 15.5908C28.2574 13.8471 27.0283 10.9529 24.5943 10.959C24.2855 10.965 24.007 11.0074 23.7648 11.0861ZM25.0666 12.9086C25.3935 13.1326 25.5146 13.3445 25.5146 13.6775C25.5146 13.9076 25.4783 14.0226 25.3451 14.1982C24.8002 14.9066 23.7345 14.5676 23.7345 13.6836C23.7345 12.9752 24.5095 12.5332 25.0666 12.9086Z" fill="#8FD5FE"/>
<path d="M13.5443 11.734C13.2234 12.0549 12.957 12.3516 12.957 12.3818C12.957 12.4121 13.2355 12.7209 13.5746 13.06L14.1982 13.6836L13.5625 14.3193L12.9268 14.9551L13.5807 15.6029L14.2285 16.2568L14.8643 15.6211L15.5 14.9854L16.1357 15.6211L16.7715 16.2568L17.4193 15.6029L18.0732 14.9551L17.4375 14.3193L16.8018 13.6836L17.4254 13.06C17.7645 12.7209 18.043 12.4121 18.043 12.3818C18.043 12.3031 16.8805 11.1406 16.8018 11.1406C16.7715 11.1406 16.4627 11.4191 16.1236 11.7582L15.5 12.3818L14.8764 11.7582C14.5373 11.4191 14.2285 11.1406 14.1982 11.1406C14.1619 11.1406 13.8713 11.407 13.5443 11.734Z" fill="#8FD5FE"/>
</svg>
