<svg width="60" height="44" viewBox="0 0 60 44" fill="none" xmlns="http://www.w3.org/2000/svg">
<path d="M0.660766 0.0834216C0.522447 0.140911 0.326422 0.302048 0.222587 0.451747C0.0495463 0.682039 0.0363045 2.60626 0.0192848 21.6527L0.000576588 42.5888L0.276825 42.9117L0.553073 43.2346L29.4972 43.2604L58.4414 43.2863L58.7182 42.9639L58.995 42.6415L59.0137 21.6824L59.0325 0.723225L58.7562 0.40035L58.48 0.0774785L29.6856 0.0287037C13.6235 0.00282654 0.799086 0.0259356 0.660766 0.0834216ZM28.3773 7.07922L28.3732 11.7342L27.9468 11.803C27.7048 11.8374 27.0017 12.0326 26.3909 12.2164C23.4634 13.1356 21.0761 15.5186 20.0595 18.5365C19.7244 19.5041 19.6781 19.8152 19.6307 21.2439C19.583 23.0759 19.7205 23.9633 20.2838 25.3925C21.5599 28.5738 24.496 30.927 27.9292 31.5062L28.3554 31.5757L28.3513 36.2308L28.3471 40.8973L15.3268 40.8857L2.30658 40.874L2.31054 36.4379L2.31451 32.0018L6.55473 32.0056C11.1637 32.0097 11.1291 32.0097 11.4062 31.3532C11.4986 31.1113 11.5355 28.4842 11.5188 21.4325L11.4928 11.8229L11.1704 11.546L10.8481 11.2692L6.58479 11.2654L2.33304 11.2616L2.33701 6.8255L2.34097 2.3894L15.3612 2.40103L28.3815 2.41267L28.3773 7.07922ZM56.7225 6.8741L56.7185 11.3102L52.4668 11.3064L48.2035 11.3026L47.8806 11.5788L47.5578 11.8551L47.549 21.6721L47.5402 31.4892L47.8626 31.766L48.185 32.0428L52.4483 32.0466L56.7 32.0504L56.696 36.4865L56.6921 40.9226L43.6718 40.911L30.6516 40.8994L30.6557 36.2328L30.6599 31.5778L31.0978 31.5091C31.3283 31.4747 32.0313 31.2794 32.6422 31.0956C35.5581 30.1764 37.9339 27.8165 38.9851 24.7755C39.3548 23.7043 39.3664 23.6467 39.3681 21.6648C39.3699 19.683 39.3584 19.6254 38.9907 18.5534C37.9449 15.5106 35.5734 13.1464 32.659 12.222C32.0485 12.0371 31.3458 11.8406 31.1154 11.8058L30.6776 11.7363L30.6818 7.08128L30.686 2.41473L43.7062 2.42636L56.7265 2.438L56.7225 6.8741ZM9.12196 21.6378L9.11486 29.5882L5.71576 29.5852L2.31667 29.5821L2.32378 21.6317L2.33088 13.6813L5.72997 13.6843L9.12907 13.6874L9.12196 21.6378ZM56.7093 21.6803L56.7022 29.6307L53.3031 29.6277L49.904 29.6247L49.9111 21.6742L49.9182 13.7238L53.3173 13.7269L56.7164 13.7299L56.7093 21.6803ZM28.3643 21.6435L28.3576 29.1215L27.9083 29.0174C25.3624 28.4505 23.1634 26.4321 22.3476 23.9541C21.9799 22.8015 21.9355 20.9118 22.2591 19.7368C22.8603 17.5481 24.3252 15.798 26.354 14.8435C26.9188 14.579 27.3222 14.4411 28.3479 14.177C28.3595 14.1655 28.368 17.53 28.3643 21.6435ZM32.2305 14.6413C33.1175 14.9763 34.4993 15.9223 35.0863 16.6027C35.8 17.4214 36.4097 18.4935 36.697 19.4156C37.0646 20.5681 37.0627 22.7574 36.6929 23.9093C35.8956 26.4205 33.6815 28.4464 31.1115 29.0202L30.6621 29.1235L30.6688 21.6571L30.6754 14.1906L31.1247 14.2947C31.3781 14.3525 31.8735 14.5027 32.2305 14.6413Z" fill="#1B2024"/>
</svg>
