<svg width="57" height="40" viewBox="0 0 57 40" fill="none" xmlns="http://www.w3.org/2000/svg">
<path d="M0.238787 0.241032C0 0.481995 0 0.638622 0 20C0 39.3614 0 39.5181 0.238787 39.759C0.477574 40 0.632785 40 28.2962 40C55.9597 40 56.1149 40 56.3537 39.759C56.5925 39.5181 56.5925 39.3614 56.5925 20C56.5925 0.638622 56.5925 0.481995 56.3537 0.241032C56.1149 6.86646e-05 55.9597 6.86646e-05 28.2962 6.86646e-05C0.632785 6.86646e-05 0.477574 6.86646e-05 0.238787 0.241032ZM27.4605 7.59042V13.494H27.1859C26.7799 13.494 25.5979 13.9278 24.9652 14.3012C23.6877 15.0603 22.5654 16.4458 22.0639 17.9277C21.6818 19.0723 21.6818 20.9277 22.0639 22.0723C22.8041 24.2289 24.6906 25.9759 26.7561 26.4097L27.4605 26.5542V32.4337V38.3133H14.566H1.67151V35.1325V31.9639L3.49823 31.8916C5.67119 31.8193 6.84124 31.5542 8.42918 30.7952C9.8619 30.1085 10.4708 29.6747 11.6289 28.5663C12.799 27.4217 13.4676 26.482 14.1481 25.0362C14.96 23.3012 15.2107 22.1085 15.2107 20C15.2107 17.8916 14.96 16.6988 14.1481 14.9639C13.4676 13.5181 12.799 12.5784 11.6289 11.4338C10.4708 10.3254 9.8619 9.89162 8.42918 9.20487C6.84124 8.44584 5.67119 8.18078 3.49823 8.10849L1.67151 8.0362V4.86753V1.68681H14.566H27.4605V7.59042ZM54.921 4.86753V8.0362L53.1062 8.10849C50.9213 8.18078 49.7512 8.44584 48.1394 9.21692C46.7067 9.90367 45.7754 10.5784 44.6412 11.7591C43.5428 12.9278 43.113 13.5422 42.4324 14.988C41.6325 16.6988 41.3818 17.9037 41.3818 20C41.3818 22.1085 41.6325 23.3012 42.4444 25.0362C43.1249 26.482 43.7935 27.4217 44.9636 28.5663C46.1217 29.6747 46.7306 30.1085 48.1633 30.7952C49.7512 31.5542 50.9213 31.8193 53.1062 31.8916L54.921 31.9639V35.1325V38.3133H42.0265H29.132V32.4337V26.5542L29.8364 26.4097C31.9019 25.9759 33.7883 24.2289 34.5286 22.0723C34.9106 20.9277 34.9106 19.0723 34.5286 17.9277C34.0271 16.4458 32.9048 15.0603 31.6273 14.3012C30.9945 13.9278 29.8125 13.494 29.4066 13.494H29.132V7.59042V1.68681H42.0265H54.921V4.86753ZM6.24428 10.1687C9.68281 11.2049 12.1543 13.6868 13.2169 17.1928C13.4915 18.1326 13.5273 18.4458 13.5273 20C13.5273 21.5542 13.4915 21.8675 13.2169 22.8073C12.1543 26.3133 9.68281 28.7952 6.24428 29.8313C5.39658 30.0844 4.85931 30.1566 3.43853 30.2048L1.67151 30.2771V27.0121V23.7591L4.0355 23.7109C6.13682 23.6747 6.44724 23.6506 6.93676 23.4217C7.73669 23.0482 8.41724 22.3735 8.7993 21.5904C9.0739 21.0241 9.1336 20.747 9.12166 20C9.12166 18.494 8.39336 17.3253 7.06809 16.6627C6.39949 16.3374 6.32785 16.3253 4.0355 16.2892L1.67151 16.241V12.988V9.72294L3.43853 9.79523C4.85931 9.84343 5.39658 9.91571 6.24428 10.1687ZM54.921 13V16.241L52.5689 16.2892C50.2646 16.3253 50.193 16.3374 49.5244 16.6627C48.1991 17.3253 47.4708 18.494 47.4708 20C47.4589 20.747 47.5186 21.0241 47.7932 21.5904C48.1752 22.3735 48.8558 23.0482 49.6557 23.4217C50.1452 23.6506 50.4557 23.6747 52.5689 23.7109L54.921 23.7591V27.0121V30.2771L53.1659 30.2048C51.7332 30.1566 51.1959 30.0844 50.3482 29.8313C47.0291 28.8313 44.5218 26.3976 43.4831 23.1326C41.6086 17.2892 45.274 11.0844 51.2795 9.93981C51.7451 9.85547 52.748 9.77114 53.5241 9.77114L54.921 9.75909V13ZM27.4605 20.0121V24.8434L27.1023 24.7711C26.4218 24.6386 25.4547 24.0723 24.8577 23.4458C22.3624 20.8796 23.222 16.8434 26.565 15.3976C27.5321 14.9759 27.4605 14.5904 27.4605 20.0121ZM30.4811 15.6145C32.8451 16.7952 33.8361 19.7952 32.6541 22.1808C32.0691 23.3856 30.6483 24.5422 29.4902 24.7711L29.132 24.8434V20V15.1446L29.5021 15.229C29.7051 15.2651 30.1468 15.4338 30.4811 15.6145ZM6.24428 18.1205C6.74573 18.3253 7.23524 18.9157 7.41433 19.5181C7.59342 20.1085 7.42627 20.7711 6.96064 21.3374C6.42337 21.9759 6.08906 22.0482 3.76089 22.0482H1.67151V20V17.9518H3.76089C5.26525 17.9518 5.96967 18 6.24428 18.1205ZM54.921 20V22.0482H52.8316C50.5034 22.0482 50.1691 21.9759 49.6318 21.3374C48.9394 20.5061 48.9394 19.494 49.6318 18.6627C50.1691 18.0241 50.4676 17.9639 52.8077 17.9518H54.921V20Z" fill="#1B2024"/>
</svg>
