<svg width="48" height="34" viewBox="0 0 48 34" fill="none" xmlns="http://www.w3.org/2000/svg">
<path d="M0.222726 0.200127C0.0244141 0.400246 0.0244141 0.530327 0.0244141 16.61C0.0244141 32.6896 0.0244141 32.8197 0.222726 33.0198C0.421039 33.2199 0.549941 33.2199 23.5244 33.2199C46.4989 33.2199 46.6278 33.2199 46.8261 33.0198C47.0244 32.8197 47.0244 32.6896 47.0244 16.61C47.0244 0.530327 47.0244 0.400246 46.8261 0.200127C46.6278 7.62939e-06 46.4989 7.62939e-06 23.5244 7.62939e-06C0.549941 7.62939e-06 0.421039 7.62939e-06 0.222726 0.200127ZM22.8303 6.30378V11.2067H22.6023C22.2651 11.2067 21.2835 11.5669 20.758 11.8771C19.697 12.5075 18.7649 13.6582 18.3485 14.8889C18.0312 15.8395 18.0312 17.3804 18.3485 18.331C18.9632 20.1221 20.5299 21.5729 22.2453 21.9331L22.8303 22.0532V26.9361V31.8191H12.1215H1.4126V29.1775V26.5459L2.92969 26.4859C4.73433 26.4258 5.70606 26.2057 7.02484 25.5753C8.21471 25.005 8.72041 24.6448 9.68222 23.7242C10.6539 22.7737 11.2092 21.9932 11.7744 20.7925C12.4487 19.3516 12.6569 18.361 12.6569 16.61C12.6569 14.8589 12.4487 13.8683 11.7744 12.4275C11.2092 11.2267 10.6539 10.4463 9.68222 9.4957C8.72041 8.57514 8.21471 8.21493 7.02484 7.64459C5.70606 7.01421 4.73433 6.79408 2.92969 6.73404L1.4126 6.67401V4.04243V1.40085H12.1215H22.8303V6.30378ZM45.6362 4.04243V6.67401L44.1291 6.73404C42.3145 6.79408 41.3428 7.01421 40.0042 7.65459C38.8143 8.22494 38.0409 8.78527 37.0989 9.76586C36.1866 10.7364 35.8297 11.2467 35.2645 12.4475C34.6002 13.8683 34.3919 14.8689 34.3919 16.61C34.3919 18.361 34.6002 19.3516 35.2744 20.7925C35.8396 21.9932 36.3949 22.7737 37.3666 23.7242C38.3284 24.6448 38.8341 25.005 40.024 25.5753C41.3428 26.2057 42.3145 26.4258 44.1291 26.4859L45.6362 26.5459V29.1775V31.8191H34.9274H24.2185V26.9361V22.0532L24.8035 21.9331C26.5189 21.5729 28.0856 20.1221 28.7004 18.331C29.0177 17.3804 29.0177 15.8395 28.7004 14.8889C28.2839 13.6582 27.3518 12.5075 26.2909 11.8771C25.7653 11.5669 24.7837 11.2067 24.4466 11.2067H24.2185V6.30378V1.40085H34.9274H45.6362V4.04243ZM5.21028 8.44507C8.06598 9.30558 10.1185 11.3668 11.001 14.2786C11.2291 15.059 11.2588 15.3192 11.2588 16.61C11.2588 17.9007 11.2291 18.1609 11.001 18.9414C10.1185 21.8531 8.06598 23.9143 5.21028 24.7748C4.50627 24.985 4.06007 25.045 2.88011 25.085L1.4126 25.1451V22.4334V19.7318L3.37589 19.6918C5.12104 19.6618 5.37884 19.6418 5.78538 19.4517C6.44973 19.1415 7.01492 18.5811 7.33222 17.9307C7.56028 17.4605 7.60986 17.2303 7.59994 16.61C7.59994 15.3592 6.99509 14.3886 5.89446 13.8383C5.33918 13.5681 5.27969 13.5581 3.37589 13.5281L1.4126 13.4881V10.7865V8.07484L2.88011 8.13488C4.06007 8.17491 4.50627 8.23494 5.21028 8.44507ZM45.6362 10.7965V13.4881L43.6829 13.5281C41.7691 13.5581 41.7096 13.5681 41.1544 13.8383C40.0537 14.3886 39.4489 15.3592 39.4489 16.61C39.439 17.2303 39.4885 17.4605 39.7166 17.9307C40.0339 18.5811 40.5991 19.1415 41.2634 19.4517C41.67 19.6418 41.9278 19.6618 43.6829 19.6918L45.6362 19.7318V22.4334V25.1451L44.1786 25.085C42.9888 25.045 42.5426 24.985 41.8385 24.7748C39.082 23.9444 36.9997 21.9231 36.1371 19.2115C34.5803 14.3586 37.6244 9.20552 42.612 8.25495C42.9987 8.18491 43.8316 8.11487 44.4761 8.11487L45.6362 8.10486V10.7965ZM22.8303 16.62V20.6324L22.5329 20.5723C21.9677 20.4623 21.1645 19.992 20.6687 19.4717C18.5964 17.3404 19.3103 13.9884 22.0867 12.7877C22.8898 12.4375 22.8303 12.1173 22.8303 16.62ZM25.339 12.9678C27.3023 13.9484 28.1253 16.4399 27.1436 18.421C26.6577 19.4216 25.4778 20.3822 24.516 20.5723L24.2185 20.6324V16.61V12.5775L24.5259 12.6476C24.6945 12.6776 25.0613 12.8177 25.339 12.9678ZM5.21028 15.049C5.62673 15.2191 6.03327 15.7094 6.18201 16.2097C6.33074 16.7 6.19192 17.2503 5.80522 17.7206C5.35901 18.2509 5.08138 18.311 3.14783 18.311H1.4126V16.61V14.9089H3.14783C4.3972 14.9089 4.98222 14.949 5.21028 15.049ZM45.6362 16.61V18.311H43.901C41.9675 18.311 41.6898 18.2509 41.2436 17.7206C40.6685 17.0302 40.6685 16.1897 41.2436 15.4993C41.6898 14.969 41.9377 14.9189 43.8812 14.9089H45.6362V16.61Z" fill="#1B2024"/>
</svg>
