<svg width="55" height="43" viewBox="0 0 55 43" fill="none" xmlns="http://www.w3.org/2000/svg">
<path d="M0.292023 42.7079L0.572456 43H27.1086H53.6447L53.9252 42.7079L54.2173 42.4274V21.5V0.572556L53.9252 0.292122L53.6447 3.8147e-06H27.1086H0.572456L0.292023 0.292122L-9.91821e-05 0.572556V21.5V42.4274L0.292023 42.7079ZM3.73903 39.2609H5.6086V40.1957V41.1304H3.73903H1.86946V40.1957V39.2609H3.73903ZM3.73903 22.4348H5.6086V29.913V37.3913H3.73903H1.86946V29.913V22.4348H3.73903ZM3.73903 5.6087H5.6086V13.087V20.5652H3.73903H1.86946V13.087V5.6087H3.73903ZM3.73903 1.86957H5.6086V2.80435V3.73913H3.73903H1.86946V2.80435V1.86957H3.73903ZM14.0216 39.2609H20.5651V40.1957V41.1304H14.0216H7.47816V40.1957V39.2609H14.0216ZM14.0216 22.4348H20.5651V29.913V37.3913H14.0216H7.47816V29.913V22.4348H14.0216ZM14.0216 5.6087H20.5651V13.087V20.5652H14.0216H7.47816V13.087V5.6087H14.0216ZM14.0216 1.86957H20.5651V2.80435V3.73913H14.0216H7.47816V2.80435V1.86957H14.0216ZM24.3042 39.2609H26.1738V40.1957V41.1304H24.3042H22.4347V40.1957V39.2609H24.3042ZM27.1086 5.6087H31.7825L31.7825 21.5V37.3913H27.1086H22.4347V21.5L22.4347 5.6087H27.1086ZM24.3042 1.86957H26.1738V2.80435V3.73913H24.3042H22.4347V2.80435V1.86957H24.3042ZM29.9129 39.2609H31.7825V40.1957V41.1304H29.9129H28.0434V40.1957V39.2609H29.9129ZM29.9129 1.86957H31.7825V2.80435V3.73913H29.9129H28.0434V2.80435V1.86957H29.9129ZM40.1955 39.2609H46.739V40.1957V41.1304H40.1955H33.6521V40.1957V39.2609H40.1955ZM40.1955 22.4348H46.739V29.913V37.3913H40.1955H33.6521V29.913V22.4348H40.1955ZM40.1955 5.6087H46.739V13.087V20.5652H40.1955H33.6521V13.087V5.6087H40.1955ZM40.1955 1.86957H46.739V2.80435V3.73913H40.1955H33.6521V2.80435V1.86957H40.1955ZM50.4782 39.2609H52.3477V40.1957V41.1304H50.4782H48.6086V40.1957V39.2609H50.4782ZM50.4782 22.4348H52.3477V29.913V37.3913H50.4782H48.6086V29.913V22.4348H50.4782ZM50.4782 5.6087H52.3477V13.087V20.5652H50.4782H48.6086V13.087V5.6087H50.4782ZM50.4782 1.86957H52.3477V2.80435V3.73913H50.4782H48.6086V2.80435V1.86957H50.4782Z" fill="#1B2024"/>
<path d="M26.466 35.2296C26.6413 35.4166 26.8867 35.5217 27.1087 35.5217C27.3307 35.5217 27.5761 35.4166 27.7513 35.2296C28.0435 34.9492 28.0435 34.9258 28.0435 32.7174C28.0435 30.509 28.0435 30.4856 27.7513 30.2052C27.5761 30.0182 27.3307 29.913 27.1087 29.913C26.8867 29.913 26.6413 30.0182 26.466 30.2052C26.1739 30.4856 26.1739 30.509 26.1739 32.7174C26.1739 34.9258 26.1739 34.9492 26.466 35.2296Z" fill="#1B2024"/>
<path d="M26.466 27.7514C26.6413 27.9383 26.8867 28.0435 27.1087 28.0435C27.3307 28.0435 27.5761 27.9383 27.7513 27.7514C28.0435 27.4709 28.0435 27.4476 28.0435 25.2391C28.0435 23.0307 28.0435 23.0073 27.7513 22.7269C27.5761 22.5399 27.3307 22.4348 27.1087 22.4348C26.8867 22.4348 26.6413 22.5399 26.466 22.7269C26.1739 23.0073 26.1739 23.0307 26.1739 25.2391C26.1739 27.4476 26.1739 27.4709 26.466 27.7514Z" fill="#1B2024"/>
<path d="M26.466 20.2731C26.6413 20.4601 26.8867 20.5652 27.1087 20.5652C27.3307 20.5652 27.5761 20.4601 27.7513 20.2731C28.0435 19.9927 28.0435 19.9693 28.0435 17.7609C28.0435 15.5524 28.0435 15.5291 27.7513 15.2486C27.5761 15.0617 27.3307 14.9565 27.1087 14.9565C26.8867 14.9565 26.6413 15.0617 26.466 15.2486C26.1739 15.5291 26.1739 15.5524 26.1739 17.7609C26.1739 19.9693 26.1739 19.9927 26.466 20.2731Z" fill="#1B2024"/>
<path d="M26.466 12.7948C26.6413 12.9818 26.8867 13.087 27.1087 13.087C27.3307 13.087 27.5761 12.9818 27.7513 12.7948C28.0435 12.5144 28.0435 12.491 28.0435 10.2826C28.0435 8.07418 28.0435 8.05081 27.7513 7.77038C27.5761 7.58342 27.3307 7.47826 27.1087 7.47826C26.8867 7.47826 26.6413 7.58342 26.466 7.77038C26.1739 8.05081 26.1739 8.07418 26.1739 10.2826C26.1739 12.491 26.1739 12.5144 26.466 12.7948Z" fill="#1B2024"/>
</svg>
