<svg width="55" height="43" viewBox="0 0 55 43" fill="none" xmlns="http://www.w3.org/2000/svg">
<path d="M0.233563 42.7663C0.467259 43 0.619161 43 27.1086 43C53.598 43 53.7499 43 53.9836 42.7663C54.2173 42.5326 54.2173 42.3807 54.2173 21.5C54.2173 0.619303 54.2173 0.467401 53.9836 0.233705C53.7499 9.23872e-06 53.598 9.23872e-06 27.1086 9.23872e-06C0.619161 9.23872e-06 0.467259 9.23872e-06 0.233563 0.233705C-0.000132978 0.467401 -0.000132978 0.619303 -0.000132978 21.5C-0.000132978 42.3807 -0.000132978 42.5326 0.233563 42.7663ZM2.71074 39.2142C9.66319 38.5481 15.6809 33.6989 17.8542 27.0503C18.5319 24.9821 18.6371 24.2343 18.6371 21.5C18.6371 19.2916 18.6021 18.8359 18.3684 17.7609C16.6741 10.1891 10.3292 4.52202 2.71074 3.78588L1.86943 3.70409V2.79267V1.86958H14.0216H26.1738L26.1504 9.35952L26.1154 16.8612L25.6246 17.0014C24.4795 17.3402 23.4045 18.2984 22.8086 19.5136C22.5165 20.0978 22.4931 20.2731 22.4931 21.5C22.4931 22.7269 22.5165 22.9022 22.8086 23.4864C23.4045 24.7017 24.4795 25.6598 25.6246 25.9987L26.1154 26.1389L26.1504 33.6405L26.1738 41.1305H14.0216H1.86943V40.2074V39.296L2.71074 39.2142ZM6.91726 26.1506L11.9768 26.1155L12.6779 25.7767C14.5474 24.8536 15.5757 22.8905 15.2836 20.7639C15.0849 19.2916 14.0684 17.9128 12.6779 17.2234L11.9768 16.8845L6.91726 16.8495L1.86943 16.8144V11.2525V5.6905L2.68737 5.77229C3.13139 5.81903 4.03112 5.98262 4.67378 6.14621C11.2523 7.73534 16.23 13.5894 16.6857 20.2731C16.9779 24.4329 15.7626 28.2655 13.1569 31.5022C10.6447 34.6337 6.59009 36.8421 2.68737 37.2277L1.86943 37.3095V31.7476V26.1856L6.91726 26.1506ZM5.60857 18.6957H9.3477V21.5V24.3044H5.60857H1.86943V21.5V18.6957H5.60857ZM11.2757 18.8125C11.4626 18.8125 12.1404 19.2332 12.4792 19.5603C13.8931 20.8807 13.5425 23.0658 11.7781 23.9655C11.5444 24.0824 11.3107 24.1875 11.2757 24.1875C11.2406 24.1875 11.2173 22.9723 11.2173 21.5C11.2173 20.0161 11.2406 18.8125 11.2757 18.8125ZM24.608 20.4718C24.8067 19.9693 25.3909 19.3383 25.8466 19.093L26.1738 18.9177V21.5V24.0824L25.8466 23.9071C25.4026 23.6734 24.8184 23.0307 24.608 22.5517C24.3743 22.0142 24.3743 21.0209 24.608 20.4718ZM28.7094 25.9402C29.9129 25.5196 30.801 24.7017 31.4086 23.4864C31.7007 22.9022 31.7241 22.7269 31.7241 21.5C31.7241 20.2731 31.7007 20.0978 31.4086 19.5136C30.8127 18.2984 29.7377 17.3402 28.5925 17.0014L28.1018 16.8612L28.0667 9.35952L28.0434 1.86958H40.1955H52.3477V2.79267V3.70409L51.4947 3.78588C51.039 3.83262 50.1743 3.97284 49.6018 4.10137C42.5909 5.60871 37.3445 10.8785 35.8021 17.9946C35.6268 18.7891 35.58 19.4902 35.58 21.5C35.58 23.7084 35.6151 24.1642 35.8488 25.2392C37.5431 32.8226 43.8762 38.478 51.4947 39.2142L52.3477 39.296V40.2074V41.1305H40.1955H28.0434L28.0667 33.6405L28.1018 26.1506L28.7094 25.9402ZM28.3588 19.093C29.2118 19.537 29.7961 20.5068 29.7961 21.5C29.7961 22.4932 29.2118 23.4631 28.3588 23.9071L28.0434 24.0824V21.5V18.9177L28.3588 19.093ZM37.5548 19.981C37.8118 16.1133 40.0904 11.8484 43.2803 9.27773C45.7108 7.32637 48.7021 6.05273 51.5298 5.77229L52.3477 5.6905V11.2525V16.8144L47.2882 16.8495L42.2404 16.8845L41.5393 17.2234C40.1488 17.9128 39.1322 19.2916 38.9336 20.7639C38.6415 22.8905 39.6697 24.8536 41.5393 25.7767L42.2404 26.1155L47.2999 26.1506L52.3477 26.1856V31.7476V37.3095L51.5298 37.2277C51.0858 37.181 50.186 37.0174 49.5434 36.8538C43.8295 35.475 39.2958 30.918 37.9053 25.1807C37.6249 24.0122 37.3912 21.944 37.4613 21.2663C37.4847 21.1027 37.5197 20.5302 37.5548 19.981ZM41.1303 20.3315C41.3991 19.8057 41.8898 19.315 42.439 19.0345C42.6727 18.9177 42.9064 18.8125 42.9415 18.8125C42.9765 18.8125 42.9999 20.0161 42.9999 21.5C42.9999 22.9723 42.9765 24.1875 42.9415 24.1875C42.9064 24.1875 42.6727 24.0824 42.439 23.9655C41.0368 23.2527 40.4643 21.6636 41.1303 20.3315ZM48.6086 18.6957H52.3477V21.5V24.3044H48.6086H44.8695V21.5V18.6957H48.6086Z" fill="#1B2024"/>
</svg>
