<svg width="57" height="56" viewBox="0 0 57 56" fill="none" xmlns="http://www.w3.org/2000/svg">
<path d="M0.301582 49.9075L0.59127 50.2093H8.99218H17.381V50.8732C17.381 51.4284 17.4293 51.5974 17.6828 51.8388L17.9725 52.1405L17.6828 52.4423C17.3931 52.7199 17.381 52.8165 17.381 54.0718C17.381 55.3271 17.3931 55.4236 17.6828 55.7013C18.069 56.0996 18.6242 56.0996 19.0105 55.7013C19.3002 55.4236 19.3123 55.3271 19.3123 54.0718C19.3123 52.8165 19.3002 52.7199 19.0105 52.4423L18.7208 52.1405L19.0105 51.8388C19.264 51.5974 19.3123 51.4284 19.3123 50.8732V50.2093H28.0028H36.6934V50.8732C36.6934 51.4284 36.7417 51.5974 36.9952 51.8388L37.2849 52.1405L36.9952 52.4423C36.7055 52.7199 36.6934 52.8165 36.6934 54.0718C36.6934 55.3271 36.7055 55.4236 36.9952 55.7013C37.3814 56.0996 37.9367 56.0996 38.3229 55.7013C38.6126 55.4236 38.6247 55.3271 38.6247 54.0718C38.6247 52.8165 38.6126 52.7199 38.3229 52.4423L38.0332 52.1405L38.3229 51.8388C38.5764 51.5974 38.6247 51.4284 38.6247 50.8732V50.2093H47.0135H55.4144L55.7041 49.9075L56.0059 49.6178V28V6.38215L55.7041 6.09246L55.4144 5.79071H47.0135H38.6247V5.12684C38.6247 4.57161 38.5764 4.40263 38.3229 4.16122L38.0332 3.85947L38.3229 3.55771C38.6126 3.28009 38.6247 3.18353 38.6247 1.92822C38.6247 0.672916 38.6126 0.576355 38.3229 0.298737C37.9367 -0.0995827 37.3814 -0.0995827 36.9952 0.298737C36.7055 0.576355 36.6934 0.672916 36.6934 1.92822C36.6934 3.18353 36.7055 3.28009 36.9952 3.55771L37.2849 3.85947L36.9952 4.16122C36.7417 4.40263 36.6934 4.57161 36.6934 5.12684V5.79071H28.0028H19.3123V5.12684C19.3123 4.57161 19.264 4.40263 19.0105 4.16122L18.7208 3.85947L19.0105 3.55771C19.3002 3.28009 19.3123 3.18353 19.3123 1.92822C19.3123 0.672916 19.3002 0.576355 19.0105 0.298737C18.6242 -0.0995827 18.069 -0.0995827 17.6828 0.298737C17.3931 0.576355 17.381 0.672916 17.381 1.92822C17.381 3.18353 17.3931 3.28009 17.6828 3.55771L17.9725 3.85947L17.6828 4.16122C17.4293 4.40263 17.381 4.57161 17.381 5.12684V5.79071H8.99218H0.59127L0.301582 6.09246L-0.000171661 6.38215V28V49.6178L0.301582 49.9075ZM9.65604 7.72195H17.381V28V48.278H9.65604H1.93107V28V7.72195H9.65604ZM23.1747 7.72195H27.0372L27.0372 28V48.278H23.1747H19.3123V28V7.72195H23.1747ZM32.8309 7.72195H36.6934V28V48.278H32.8309H28.9685V28L28.9685 7.72195H32.8309ZM46.3496 7.72195H54.0746V28V48.278H46.3496H38.6247V28V7.72195H46.3496Z" fill="#1B2024"/>
</svg>
