<svg width="74" height="52" viewBox="0 0 74 52" fill="none" xmlns="http://www.w3.org/2000/svg">
<path d="M71.6622 51.8598C72.6556 51.8237 73.3936 51.7588 73.5167 51.6928C73.6303 51.6267 73.7536 51.4567 73.7917 51.3148C73.8964 50.9461 74.0442 4.42969 73.9438 2.30093C73.88 0.919603 73.8334 0.541107 73.7106 0.417907C73.5878 0.294707 73.1622 0.256119 71.1662 0.176938C68.2999 0.0678507 1.17867 0.0164395 0.724396 0.119707C0.544582 0.157234 0.345664 0.298791 0.250827 0.43107C0.0990625 0.657852 0.0866177 2.3607 0.0453672 25.898C0.00411667 49.4353 0.0105927 51.1382 0.161562 51.3655C0.255934 51.4982 0.454354 51.6404 0.634036 51.6786C1.00284 51.7644 69.278 51.9408 71.6622 51.8598ZM37.9948 45.2637L38.0026 40.8173L36.9147 40.8154L35.8267 40.8135L35.8189 45.2599L35.8111 49.7062L18.9717 49.6767L2.13233 49.6472L2.13953 45.5414L2.14673 41.4356L3.25368 41.3808C7.64366 41.1709 8.72252 40.9552 11.1843 39.777C12.8696 38.9758 13.8642 38.2586 15.3521 36.7664C16.8305 35.2837 17.409 34.509 18.178 32.9683C19.5545 30.2461 19.9456 28.4021 19.8376 25.2232C19.7568 22.7823 19.4093 21.3248 18.4101 19.2606C17.5617 17.5185 16.8822 16.5807 15.3524 15.036C13.7847 13.4723 12.9532 12.8653 11.1762 12.0202C8.71852 10.8523 7.74445 10.6519 3.30793 10.4266L2.20117 10.3679L2.20837 6.26209L2.21557 2.1563L19.055 2.18581L35.8944 2.21532L35.8865 6.70899L35.8786 11.2026L36.9666 11.2046L38.0545 11.2065L38.0624 6.7128L38.0702 2.21914L54.957 2.24873L71.8437 2.27833L71.8364 6.39358L71.8292 10.5088L71.6116 10.5084C70.5899 10.5161 67.4487 10.7187 66.7674 10.8311C64.4868 11.1866 61.9116 12.3078 60.1022 13.7332C59.0601 14.5544 57.5816 16.0844 56.8893 17.0576C56.1875 18.0402 55.1243 20.1197 54.7629 21.2164C54.2398 22.7954 54.1631 23.3818 54.1585 25.9929C54.1539 28.6039 54.2286 29.1811 54.7461 30.7714C55.1225 31.9262 56.2822 34.1703 56.9901 35.1082C57.764 36.1407 59.2751 37.657 60.3332 38.463C61.2402 39.1457 63.4708 40.3133 64.6338 40.6937C66.0993 41.1788 67.2721 41.3416 70.564 41.4988L71.7748 41.5577L71.7676 45.6634L71.7604 49.7692L54.8737 49.7396L37.987 49.71L37.9948 45.2637ZM68.2692 39.1675C66.8409 39.0609 65.9425 38.8512 64.5433 38.3001C62.7187 37.5874 61.2636 36.5915 59.7999 35.0469C58.4307 33.6159 57.4875 32.006 56.8099 29.9614C56.377 28.6646 56.2836 28.0022 56.2871 25.9871C56.2904 24.1045 56.415 23.1776 56.8619 21.8823C58.2313 17.8641 61.2166 14.8515 65.1923 13.4867C66.4702 13.0443 67.3787 12.8945 69.129 12.8219C69.9048 12.7949 70.832 12.7492 71.1821 12.7214L71.8254 12.6752L71.8181 16.8756L71.8107 21.0855L71.593 21.1419C71.4794 21.17 70.5144 21.1967 69.4454 21.1949C66.5411 21.1898 65.4813 21.3014 64.7333 21.6691C63.8527 22.1027 62.9429 23.0188 62.4777 23.964C62.1454 24.6446 62.1073 24.7864 62.0775 25.6283C62.0577 26.1297 62.0849 26.773 62.1412 27.0569C62.4226 28.4292 63.3854 29.6513 64.7087 30.3064C65.5972 30.7431 66.3255 30.8295 69.2866 30.8442C70.4313 30.8462 71.4624 30.8764 71.5759 30.9049L71.7934 30.9621L71.786 35.153L71.7787 39.3439L70.6624 39.3041C70.057 39.2747 68.9787 39.2161 68.2692 39.1675ZM2.15802 34.9931C2.1645 31.2941 2.18423 30.8306 2.31675 30.7836C2.40195 30.7553 3.4048 30.7287 4.55895 30.7307C7.61466 30.7266 8.33378 30.6522 9.22383 30.2091C11.0418 29.3136 12.0478 27.4895 11.8907 25.3606C11.7798 23.8751 10.6756 22.3217 9.23892 21.6002C8.38822 21.1825 7.61262 21.096 4.59479 21.0812C3.49739 21.0793 2.51356 21.0492 2.39063 21.0206L2.1826 20.9635L2.18998 16.7536L2.19734 12.5532L2.8311 12.6016C3.19054 12.6306 4.10811 12.6795 4.89327 12.7093C7.1163 12.7983 8.60093 13.1699 10.4346 14.0908C14.2154 15.9895 16.7637 19.428 17.5604 23.7055C17.776 24.8412 17.7722 27.0076 17.5526 28.1519C16.5595 33.3817 12.8629 37.3959 7.80876 38.7304C6.68246 39.0312 5.70787 39.1241 3.73062 39.1395L2.15074 39.1462L2.15802 34.9931ZM65.7243 28.3971C64.4577 27.7705 63.8646 26.1234 64.4722 24.9041C64.776 24.3086 65.4204 23.7043 65.9031 23.5443C66.1397 23.4785 67.2562 23.4237 69.0348 23.3984L71.8067 23.356L71.802 26.0238L71.7974 28.6916L68.9783 28.6488C66.2726 28.6157 66.1497 28.606 65.7243 28.3971ZM2.17397 25.8923L2.17863 23.2339L4.94096 23.2861C6.88028 23.3179 7.81677 23.3668 8.07205 23.4524C8.57313 23.633 9.09262 24.1069 9.41325 24.6941C9.65844 25.1391 9.696 25.3 9.69492 25.9149C9.69356 26.6907 9.57004 26.9932 9.02014 27.6734C8.3944 28.448 7.96854 28.5324 4.55332 28.5454L2.16931 28.5506L2.17397 25.8923Z" fill="#1B2024"/>
<path d="M37.5863 13.3478C31.457 13.3478 26.4825 18.3223 26.4825 24.4516C26.4825 30.5809 31.457 35.5554 37.5863 35.5554C43.7156 35.5554 48.6901 30.5809 48.6901 24.4516C48.6901 18.3223 43.7156 13.3478 37.5863 13.3478ZM38.6967 17.0121L40.1957 15.9572C42.2043 16.5796 43.9274 17.8936 45.0592 19.6659L44.6261 21.1538L43.1271 21.6645L38.6967 18.5666V17.0121ZM34.9769 15.9572L36.4759 17.0121V18.5666L32.0455 21.6645L30.5465 21.1538L30.1134 19.6659C31.2518 17.8997 32.9724 16.5876 34.9769 15.9572ZM32.1232 30.1257L30.8574 30.2367C29.4655 28.631 28.7005 26.5766 28.7032 24.4516C28.7032 24.3184 28.7143 24.1962 28.7255 24.063L29.8358 23.2524L31.3682 23.7854L32.9893 28.6044L32.1232 30.1257ZM40.3623 32.8794C39.485 33.1681 38.5523 33.3347 37.5863 33.3347C36.6203 33.3347 35.6875 33.1681 34.8103 32.8794L34.0442 31.2249L34.7548 30.0035H40.4289L41.1395 31.236L40.3623 32.8794ZM40.1069 27.7828H35.0657L33.5667 23.319L37.5863 20.4986L41.617 23.319L40.1069 27.7828ZM44.3152 30.2367L43.0494 30.1257L42.1722 28.6044L43.7933 23.7854L45.3368 23.2635L46.4471 24.0741C46.4582 24.1962 46.4693 24.3184 46.4693 24.4516C46.4693 26.6613 45.6588 28.6822 44.3152 30.2367Z" fill="#61C4FF"/>
</svg>
