<svg width="49" height="35" viewBox="0 0 49 35" fill="none" xmlns="http://www.w3.org/2000/svg">
<path d="M47.452 34.3396C48.1098 34.3157 48.5985 34.2727 48.68 34.229C48.7552 34.1853 48.8368 34.0727 48.8621 33.9787C48.9314 33.7346 49.0292 2.93317 48.9628 1.52359C48.9206 0.608925 48.8897 0.358299 48.8084 0.276721C48.7271 0.195142 48.4452 0.169591 47.1236 0.11716C45.2256 0.0449267 0.780462 0.0108841 0.479656 0.0792643C0.36059 0.104113 0.228875 0.197846 0.166081 0.285437C0.0655861 0.435604 0.0573462 1.56316 0.0300317 17.1487C0.00271713 32.7342 0.00700472 33.8618 0.106972 34.0123C0.16946 34.1001 0.300845 34.1943 0.419823 34.2196C0.664028 34.2764 45.8733 34.3932 47.452 34.3396ZM25.1587 29.9719L25.1639 27.0277L24.4435 27.0264L23.7231 27.0252L23.7179 29.9694L23.7128 32.9136L12.5624 32.894L1.41194 32.8745L1.4167 30.1558L1.42147 27.4371L2.15446 27.4008C5.06133 27.2618 5.77571 27.119 7.4058 26.3388C8.52177 25.8083 9.18036 25.3334 10.1656 24.3453C11.1445 23.3636 11.5276 22.8506 12.0368 21.8304C12.9482 20.0279 13.2072 18.8068 13.1357 16.7018C13.0822 15.0856 12.8521 14.1205 12.1905 12.7537C11.6287 11.6001 11.1788 10.9791 10.1657 9.95625C9.12769 8.92082 8.57713 8.51894 7.40042 7.95935C5.77306 7.18599 5.12807 7.05331 2.19038 6.90409L1.45752 6.86521L1.46229 4.14652L1.46705 1.42782L12.6175 1.44736L23.7679 1.4669L23.7627 4.44244L23.7575 7.41797L24.4779 7.41923L25.1982 7.42049L25.2035 4.44496L25.2087 1.46943L36.3904 1.48902L47.5722 1.50862L47.5674 4.23358L47.5626 6.95855L47.4185 6.95829C46.742 6.96337 44.662 7.09754 44.2108 7.17192C42.7007 7.40732 40.9955 8.14978 39.7974 9.09359C39.1074 9.63738 38.1284 10.6505 37.6699 11.2949C37.2052 11.9456 36.5012 13.3225 36.2619 14.0487C35.9155 15.0943 35.8647 15.4825 35.8617 17.2115C35.8587 18.9404 35.9081 19.3226 36.2508 20.3756C36.5001 21.1403 37.268 22.6263 37.7367 23.2473C38.2492 23.931 39.2497 24.935 39.9504 25.4687C40.5509 25.9208 42.028 26.6939 42.798 26.9458C43.7684 27.267 44.545 27.3749 46.7248 27.4789L47.5266 27.5179L47.5218 30.2366L47.517 32.9553L36.3353 32.9357L25.1536 32.9161L25.1587 29.9719ZM45.2053 25.9352C44.2595 25.8647 43.6646 25.7258 42.7382 25.3609C41.53 24.8889 40.5664 24.2295 39.5973 23.2067C38.6906 22.2592 38.066 21.1932 37.6174 19.8393C37.3307 18.9806 37.2689 18.542 37.2712 17.2077C37.2734 15.9611 37.3559 15.3473 37.6518 14.4897C38.5585 11.8289 40.5353 9.83407 43.1679 8.93036C44.0141 8.63742 44.6156 8.53825 45.7746 8.49017C46.2883 8.47227 46.9023 8.44203 47.1341 8.42364L47.5601 8.39307L47.5552 11.1744L47.5503 13.962L47.4062 13.9993C47.331 14.018 46.692 14.0357 45.9841 14.0344C44.061 14.0311 43.3593 14.105 42.864 14.3484C42.2809 14.6356 41.6784 15.2422 41.3704 15.8681C41.1503 16.3187 41.1251 16.4126 41.1054 16.9701C41.0922 17.3021 41.1103 17.7281 41.1475 17.9161C41.3339 18.8247 41.9714 19.634 42.8477 20.0677C43.436 20.3569 43.9183 20.4141 45.879 20.4238C46.6369 20.4252 47.3197 20.4452 47.3949 20.4641L47.5389 20.5019L47.534 23.277L47.5291 26.0521L46.79 26.0257C46.3891 26.0062 45.6751 25.9674 45.2053 25.9352ZM1.42895 23.1711C1.43324 20.7218 1.4463 20.4149 1.53406 20.3837C1.59047 20.365 2.25452 20.3474 3.01876 20.3487C5.04213 20.346 5.51831 20.2967 6.10766 20.0033C7.31145 19.4103 7.97758 18.2025 7.87356 16.7928C7.80011 15.8092 7.06899 14.7806 6.11766 14.3028C5.55435 14.0262 5.04078 13.9689 3.04249 13.9592C2.31583 13.9579 1.66438 13.938 1.58297 13.919L1.44523 13.8812L1.45011 11.0936L1.45499 8.31226L1.87464 8.34432C2.11265 8.36353 2.72023 8.39592 3.24013 8.41562C4.71214 8.47458 5.6952 8.72061 6.90941 9.33037C9.41292 10.5876 11.1003 12.8645 11.6278 15.6969C11.7706 16.4489 11.768 17.8834 11.6226 18.6411C10.9651 22.1041 8.51734 24.7622 5.17066 25.6458C4.42486 25.845 3.77953 25.9065 2.47027 25.9167L1.42413 25.9212L1.42895 23.1711ZM43.5202 18.8035C42.6815 18.3886 42.2887 17.2979 42.6911 16.4905C42.8922 16.0962 43.3189 15.6961 43.6386 15.5901C43.7952 15.5466 44.5345 15.5103 45.7122 15.4935L47.5477 15.4654L47.5446 17.232L47.5415 18.9985L45.6748 18.9702C43.8832 18.9482 43.8018 18.9418 43.5202 18.8035ZM1.43951 17.1449L1.44259 15.3846L3.2717 15.4192C4.55585 15.4402 5.17596 15.4726 5.345 15.5293C5.67679 15.6489 6.02078 15.9627 6.23308 16.3515C6.39544 16.6462 6.42031 16.7527 6.4196 17.1599C6.4187 17.6736 6.33691 17.8739 5.97279 18.3243C5.55845 18.8372 5.27646 18.8931 3.01503 18.9017L1.43642 18.9052L1.43951 17.1449Z" fill="#1B2024"/>
<path d="M24.8882 8.83841C20.8296 8.83841 17.5356 12.1323 17.5356 16.1909C17.5356 20.2495 20.8296 23.5435 24.8882 23.5435C28.9468 23.5435 32.2407 20.2495 32.2407 16.1909C32.2407 12.1323 28.9468 8.83841 24.8882 8.83841ZM25.6234 11.2647L26.616 10.5663C27.946 10.9784 29.087 11.8485 29.8364 13.022L29.5497 14.0072L28.5571 14.3455L25.6234 12.2941V11.2647ZM23.1603 10.5663L24.1529 11.2647V12.2941L21.2193 14.3455L20.2267 14.0072L19.9399 13.022C20.6937 11.8525 21.833 10.9837 23.1603 10.5663ZM21.2707 19.9481L20.4325 20.0216C19.5109 18.9584 19.0043 17.598 19.0061 16.1909C19.0061 16.1027 19.0135 16.0218 19.0209 15.9336L19.7561 15.3969L20.7708 15.7498L21.8442 18.9408L21.2707 19.9481ZM26.7263 21.7715C26.1455 21.9627 25.5278 22.073 24.8882 22.073C24.2485 22.073 23.6309 21.9627 23.05 21.7715L22.5427 20.676L23.0133 19.8672H26.7704L27.241 20.6833L26.7263 21.7715ZM26.5572 18.3967H23.2191L22.2266 15.441L24.8882 13.5734L27.5571 15.441L26.5572 18.3967ZM29.3438 20.0216L28.5056 19.9481L27.9248 18.9408L28.9982 15.7498L30.0202 15.4042L30.7555 15.941C30.7628 16.0218 30.7702 16.1027 30.7702 16.1909C30.7702 17.6541 30.2335 18.9922 29.3438 20.0216Z" fill="#61C4FF"/>
</svg>
