<svg width="37" height="38" viewBox="0 0 37 38" fill="none" xmlns="http://www.w3.org/2000/svg">
<path d="M27.5177 0.893066H9.20496C4.15966 0.893066 0.0549011 4.98402 0.0549011 10.0124V28.413C0.0549011 33.441 4.15966 37.5324 9.20496 37.5324H27.5177C32.563 37.5324 36.6676 33.441 36.6676 28.413V10.0123C36.6676 4.98402 32.563 0.893103 27.5177 0.893103V0.893066ZM33.2789 28.4129C33.2789 31.5787 30.6945 34.1547 27.5177 34.1547H9.20499C6.02822 34.1547 3.44384 31.5787 3.44384 28.4129V16.5286H10.683C10.1545 17.6465 9.85725 18.8935 9.85725 20.2086C9.85725 24.9852 13.7562 28.8707 18.5487 28.8707C23.3411 28.8707 27.2401 24.9852 27.2401 20.2086C27.2401 18.8935 26.9429 17.6465 26.4142 16.5286H33.2788V28.4129H33.2789ZM14.9407 20.2087C14.9407 18.2262 16.5592 16.613 18.5487 16.613C20.5383 16.613 22.1567 18.2262 22.1567 20.2087C22.1567 22.1916 20.5383 23.8045 18.5487 23.8045C16.5592 23.8045 14.9407 22.1916 14.9407 20.2087ZM33.2789 13.1512H23.5784C22.1573 12.1426 20.4222 11.5467 18.5487 11.5467C16.6752 11.5467 14.9399 12.1426 13.5191 13.1512H3.44384V10.0124C3.44384 6.84626 6.02822 4.27059 9.20499 4.27059H27.5177C30.6945 4.27059 33.2789 6.84626 33.2789 10.0124V13.1512H33.2789H33.2789ZM29.6067 6.319H26.4653C25.906 6.319 25.4486 6.77499 25.4486 7.33225V10.4632C25.4486 11.0204 25.9059 11.4764 26.4653 11.4764H29.6067C30.1659 11.4764 30.6233 11.0204 30.6233 10.4632V7.33225C30.6233 6.77499 30.166 6.319 29.6067 6.319Z" fill="#F3FAFE"/>
</svg>
