<svg width="33" height="41" viewBox="0 0 33 41" fill="none" xmlns="http://www.w3.org/2000/svg">
<path d="M15.6188 0.128129C14.9942 0.296293 14.3856 0.688676 13.9212 1.20918C13.2485 1.96993 13.0964 2.02598 11.4548 2.08204C10.2696 2.12207 9.99733 2.15411 9.69303 2.29024C9.31667 2.46641 8.68405 3.05098 8.61198 3.29922C8.56393 3.42735 8.37174 3.43536 5.98542 3.45938C3.51901 3.4834 3.39088 3.49141 2.95846 3.66758C2.10163 4.01192 1.37292 4.74063 1.02858 5.59746L0.844401 6.0459L0.820377 22.0615C0.804361 36.5637 0.812369 38.1092 0.932486 38.5096C1.27682 39.7107 2.1737 40.5516 3.42292 40.8799C4.11159 41.0641 28.8878 41.0641 29.5764 40.8799C30.8256 40.5516 31.7225 39.7107 32.0669 38.5096C32.187 38.1092 32.195 36.5637 32.179 22.0615L32.1549 6.0459L31.9708 5.59746C31.6264 4.74063 30.8977 4.01192 30.0409 3.66758C29.6085 3.49141 29.4803 3.4834 27.0139 3.45938C24.6276 3.43536 24.4354 3.42735 24.3874 3.29922C24.3153 3.05098 23.6827 2.46641 23.3063 2.29024C23.002 2.15411 22.7298 2.12207 21.5446 2.08204C19.903 2.02598 19.7508 1.96993 19.0782 1.20918C18.1813 0.200199 16.876 -0.208199 15.6188 0.128129ZM17.1323 1.48946C17.4846 1.59356 17.6688 1.72168 18.2133 2.27422C19.2063 3.2752 19.6868 3.44336 21.6167 3.44336H22.6817L22.994 3.75567L23.3063 4.06797V5.79766V7.52735H16.4997H9.69303V5.79766V4.06797L10.0053 3.75567L10.3176 3.44336H11.3827C13.3206 3.44336 13.793 3.2752 14.786 2.26621C15.6589 1.38536 16.2034 1.20918 17.1323 1.48946ZM8.25163 5.48536V6.16602H6.74616C4.96842 6.16602 4.67213 6.23809 4.13561 6.77461C3.47897 7.43125 3.52702 6.10996 3.52702 22.2537V36.6357L3.71921 37.0361C3.8153 37.2523 4.04753 37.5727 4.23171 37.7328C4.87233 38.3094 4.13561 38.2773 16.4997 38.2773C28.8637 38.2773 28.127 38.3094 28.7676 37.7328C28.9518 37.5727 29.184 37.2523 29.2801 37.0361L29.4723 36.6357V22.2537C29.4723 6.10996 29.5204 7.43125 28.8637 6.77461C28.3272 6.23809 28.0309 6.16602 26.2532 6.16602H24.7477V5.48536V4.80469H27.0219H29.2962L29.7206 5.02891C30.209 5.27715 30.6255 5.77364 30.7536 6.23809C30.8096 6.44629 30.8256 11.6514 30.8176 22.3498C30.7936 37.3725 30.7856 38.1732 30.6495 38.4455C30.4573 38.8219 30.0809 39.2063 29.6805 39.4225L29.3522 39.5986H16.4997H3.64713L3.31881 39.4225C2.91842 39.2063 2.54206 38.8219 2.34987 38.4455C2.21374 38.1732 2.20573 37.3725 2.18171 22.3498C2.1737 11.6514 2.18971 6.44629 2.24577 6.23809C2.37389 5.77364 2.7903 5.27715 3.27878 5.02891L3.70319 4.80469H5.97741H8.25163V5.48536ZM8.27565 8.02383C8.31569 8.43223 8.35573 8.56036 8.5319 8.7045L8.7401 8.88868H16.4997H24.2592L24.4674 8.7045C24.6436 8.56036 24.6837 8.43223 24.7237 8.02383L24.7717 7.52735H26.2212C27.7346 7.53536 27.8307 7.55137 28.0149 7.90371C28.087 8.03184 28.111 11.6273 28.111 22.2537V36.4275L27.9188 36.6518L27.7266 36.876H16.4997H5.27272L5.08053 36.6518L4.88835 36.4275V22.2537C4.88835 11.6273 4.91237 8.03184 4.98444 7.90371C5.16862 7.55137 5.26471 7.53536 6.77819 7.52735H8.2276L8.27565 8.02383Z" fill="black"/>
<path d="M15.2185 2.89883C14.6019 3.21914 14.4177 3.63555 14.4177 4.76465C14.4177 5.82969 14.5779 6.24609 15.1384 6.62246C15.3787 6.79063 15.4908 6.80664 16.4998 6.80664C17.5087 6.80664 17.6208 6.79063 17.8611 6.62246C18.4216 6.24609 18.5818 5.82969 18.5818 4.76465C18.5818 3.63555 18.3976 3.21914 17.781 2.89883C17.4767 2.74668 17.3005 2.72266 16.4998 2.72266C15.699 2.72266 15.5228 2.74668 15.2185 2.89883ZM17.2044 4.78066L17.2285 5.44531H16.4998H15.7791V4.8207C15.7791 4.47637 15.8031 4.16406 15.8351 4.13203C15.8671 4.1 16.1794 4.09199 16.5398 4.1L17.1804 4.12402L17.2044 4.78066Z" fill="black"/>
<path d="M7.33081 11.7074C7.07456 11.8436 6.97046 12.0197 6.97046 12.324C6.97046 12.5723 7.08257 12.7164 8.17163 13.8055L9.3648 15.0146L8.17163 16.2238C7.03452 17.377 6.97046 17.457 6.97046 17.7533C6.97046 18.1697 7.2187 18.418 7.64312 18.418C7.92339 18.418 8.02749 18.3379 9.15659 17.2248L10.3738 16.0236L11.583 17.2248C12.672 18.2979 12.8162 18.418 13.0644 18.418C13.5128 18.41 13.8412 18.0336 13.7371 17.6332C13.705 17.5051 13.2005 16.9285 12.5119 16.2398L11.3427 15.0547L12.5119 13.8695C13.1765 13.1969 13.713 12.5883 13.7371 12.4762C13.8572 12.0117 13.3847 11.5313 12.9283 11.6434C12.7761 11.6834 12.2796 12.1158 11.5109 12.8766L10.3337 14.0457L9.18862 12.9166C7.8353 11.5793 7.71519 11.4912 7.33081 11.7074Z" fill="black"/>
<path d="M19.4864 14.5102C17.9009 16.0877 17.7487 16.3039 17.9489 16.6723C18.0931 16.9445 18.2692 17.0486 18.5735 17.0566C18.8058 17.0566 18.9419 16.9605 19.6386 16.2719C20.5355 15.399 20.5194 15.391 20.087 16.6963C19.1741 19.427 16.956 21.7092 14.2974 22.6461C13.2884 22.9984 12.6878 23.1186 11.4706 23.2146C10.862 23.2627 10.6939 23.3107 10.5497 23.4469C10.3175 23.6871 10.3255 24.1195 10.5737 24.3838C10.7419 24.56 10.822 24.584 11.3665 24.584C12.0151 24.584 13.0401 24.4318 13.8249 24.2316C17.6366 23.2467 20.8317 19.9475 21.6646 16.1357C21.7446 15.7834 21.8167 15.4471 21.8327 15.383C21.8567 15.3189 22.2171 15.6152 22.7856 16.1678C23.6024 16.9605 23.7386 17.0566 23.9868 17.0566C24.3792 17.0566 24.6675 16.7684 24.6675 16.36C24.6675 16.0797 24.5794 15.9756 23.122 14.5182C21.7206 13.1168 21.5524 12.9727 21.3042 12.9727C21.056 12.9727 20.8878 13.1168 19.4864 14.5102Z" fill="black"/>
<path d="M21.0317 22.7422C20.4391 22.9744 20.0467 23.2787 19.7104 23.7912C18.3811 25.7852 20.1188 28.3877 22.4811 27.9473C24.6032 27.5469 25.4039 24.9123 23.8745 23.3748C23.1137 22.6141 21.9926 22.3658 21.0317 22.7422ZM22.7213 24.1516C23.0897 24.4318 23.2498 24.7121 23.2899 25.1766C23.418 26.7381 21.2639 27.2186 20.7034 25.7451C20.4631 25.1285 20.7114 24.4559 21.3039 24.1035C21.6643 23.8873 22.401 23.9113 22.7213 24.1516Z" fill="black"/>
<path d="M10.0691 28.2195C8.87598 28.724 8.2834 29.6369 8.34747 30.8941C8.39551 31.9352 8.90001 32.7119 9.83692 33.1684C10.3174 33.4086 10.4455 33.4326 11.0541 33.4326C11.8709 33.4326 12.2953 33.2645 12.8799 32.7199C14.041 31.6309 14.041 29.8691 12.8799 28.7801C12.3514 28.2836 11.8709 28.0834 11.1342 28.0514C10.6377 28.0273 10.4535 28.0514 10.0691 28.2195ZM11.5586 29.5008C12.1512 29.741 12.5195 30.4938 12.3434 31.0863C12.0631 32.0072 11.0381 32.3836 10.2533 31.8471C9.66876 31.4547 9.51661 30.5338 9.93301 29.9572C10.2693 29.4688 11.0061 29.2686 11.5586 29.5008Z" fill="black"/>
<path d="M22.2169 30.9422C22.0488 31.0863 21.9927 31.1984 21.9927 31.4227C21.9927 31.6789 22.0648 31.783 22.5292 32.2555L23.0657 32.8L22.6173 33.2324C21.8966 33.9451 21.8005 34.3215 22.2409 34.6738C22.6173 34.9621 22.8656 34.89 23.4741 34.2975L24.0267 33.7689L24.5792 34.2975C25.0197 34.7299 25.1798 34.834 25.38 34.834C25.7404 34.834 26.0286 34.5297 26.0286 34.1453C26.0286 33.8971 25.9566 33.785 25.5161 33.3205L24.9956 32.792L25.5161 32.2555C25.9566 31.799 26.0286 31.6869 26.0286 31.4387C26.0286 31.0703 25.7163 30.75 25.372 30.75C25.1878 30.75 25.0036 30.8701 24.5792 31.2865L24.0187 31.823L23.5622 31.3746C22.8656 30.6939 22.6013 30.6059 22.2169 30.9422Z" fill="black"/>
</svg>
