<svg width="21" height="26" viewBox="0 0 21 26" fill="none" xmlns="http://www.w3.org/2000/svg">
<path d="M7.37201 0.0737228C4.03915 0.530977 1.22958 3.15764 0.309997 6.67849C0.0712092 7.58791 0.0051616 8.13154 8.10182e-05 9.16798C-0.00499957 10.6312 0.228707 11.8505 0.746927 13.0546C1.59539 15.031 2.84013 16.4231 4.74027 17.5255C5.81227 18.1454 6.03582 18.3384 6.31017 18.8973L6.44735 19.1767L6.47275 21.8186C6.49815 24.4301 6.50323 24.4656 6.62009 24.7552C6.8792 25.4005 7.57524 25.9288 8.25603 25.9898C8.85554 26.0457 9.34836 25.8729 9.80053 25.4462C10.1206 25.1413 10.3188 24.7603 10.3848 24.298C10.4102 24.11 10.4356 22.9059 10.4356 21.6307V19.3037L10.5677 18.9735C10.715 18.6128 10.9945 18.2622 11.3196 18.0387C11.4365 17.9574 11.8175 17.7237 12.1681 17.5255C13.5602 16.7126 14.4645 15.8845 15.2876 14.655C15.9023 13.7354 16.5374 12.2875 16.6187 11.6219C16.6441 11.4034 16.6339 11.3679 16.4917 11.2307C16.3697 11.1088 16.2935 11.0732 16.136 11.0732C15.8159 11.0732 15.7397 11.1799 15.4857 11.9267C15.3638 12.3027 15.1606 12.8158 15.0335 13.08C14.368 14.4721 13.2147 15.727 11.8836 16.5094C10.9233 17.0734 10.5728 17.3071 10.334 17.5306C10.0495 17.7999 9.77005 18.2216 9.62779 18.5772L9.53126 18.8211L8.46942 18.8363L7.4025 18.8465L7.19927 18.4299C6.84363 17.6881 6.51339 17.3833 5.34994 16.6974C4.38463 16.1284 3.91213 15.7677 3.31262 15.1478C2.20506 13.9895 1.43281 12.45 1.13305 10.7887C0.975554 9.93006 0.975554 8.5075 1.13305 7.64888C1.61571 4.98157 3.30754 2.69531 5.5684 1.65379C6.53372 1.2067 7.31105 1.04412 8.45418 1.04412C9.41441 1.04412 9.8869 1.12033 10.6998 1.39976C11.787 1.7808 12.5796 2.28378 13.4636 3.1678C14.4442 4.15343 15.0386 5.13399 15.4959 6.54131C15.7499 7.31864 15.8566 7.46598 16.1563 7.46598C16.2884 7.46598 16.3799 7.42533 16.4917 7.30848C16.639 7.16623 16.6441 7.14082 16.6187 6.86647C16.5526 6.18059 15.9328 4.74278 15.2876 3.78255C13.4636 1.05936 10.4661 -0.347965 7.37201 0.0737228ZM9.40933 21.9202C9.42457 24.1201 9.39917 24.3793 9.17562 24.6485C9.01304 24.8416 8.69297 24.994 8.45418 24.994C8.05789 24.994 7.64636 24.679 7.53967 24.2929C7.50919 24.176 7.48887 23.2869 7.48887 21.9812V19.8626L8.44402 19.8728L9.39409 19.888L9.40933 21.9202Z" fill="#1B2024"/>
<path d="M7.35163 2.28886C6.08148 2.55305 4.99932 3.1678 4.10513 4.13311C3.18555 5.11875 2.56064 6.36857 2.27104 7.79622C2.14403 8.44145 2.14403 9.99611 2.27104 10.6413C2.7283 12.9022 4.05941 14.7414 5.88842 15.6457C6.76228 16.0725 7.51929 16.2554 8.4592 16.2554C10.0393 16.2554 11.4618 15.6457 12.6456 14.4569C13.6668 13.4306 14.3273 12.1604 14.6372 10.6413C14.7744 9.9453 14.7642 8.38556 14.6118 7.68444C13.9005 4.40238 11.3856 2.16693 8.41347 2.18725C8.03243 2.18725 7.65138 2.22281 7.35163 2.28886ZM7.94606 4.39222V5.58616H7.05696H6.16785V4.67674V3.77239L6.51333 3.61489C6.89946 3.44215 7.32115 3.31006 7.68187 3.24909C7.81396 3.22877 7.92574 3.20845 7.9359 3.20337C7.94098 3.20337 7.94606 3.73683 7.94606 4.39222ZM9.76491 3.37611C9.92241 3.42183 10.2069 3.52852 10.4 3.61489L10.7404 3.77239V4.67674V5.58616H9.85128H8.96218V4.3973V3.21353L9.22129 3.25417C9.36354 3.27449 9.60741 3.33038 9.76491 3.37611ZM5.15174 5.0527V5.58616H4.6894H4.22707L4.38457 5.37278C4.56747 5.12891 5.09585 4.51924 5.13141 4.51924C5.14157 4.51924 5.15174 4.75803 5.15174 5.0527ZM12.5186 5.3677L12.6761 5.58616H12.2188H11.7565V5.03746L11.7616 4.49383L12.0613 4.81899C12.229 5.00189 12.4322 5.24576 12.5186 5.3677ZM5.15174 7.6946V8.78693H4.1915C3.63264 8.78693 3.21603 8.76661 3.19571 8.73612C3.12458 8.61927 3.36337 7.4609 3.58183 6.87155L3.68345 6.60228H4.42013H5.15174V7.6946ZM7.94606 7.6946V8.78693L7.0722 8.77677L6.19326 8.76153L6.17801 7.67936L6.16785 6.60228H7.05696H7.94606V7.6946ZM10.7302 7.67936L10.715 8.76153L9.84112 8.77677L8.96218 8.78693V7.6946V6.60228H9.85128H10.7404L10.7302 7.67936ZM13.3264 6.87663C13.5347 7.43041 13.7786 8.62943 13.7074 8.74629C13.6922 8.76661 13.2502 8.78693 12.7167 8.78693H11.7565V7.6946V6.60228H12.4881H13.2248L13.3264 6.87663ZM5.15174 10.87V11.942L4.43029 11.9267L3.70885 11.9115L3.57167 11.5304C3.41417 11.1088 3.29224 10.6007 3.23127 10.118L3.18555 9.80305H4.17118H5.15174V10.87ZM7.94606 10.87V11.9369H7.05696H6.16785V10.87V9.80305H7.05696H7.94606V10.87ZM10.7404 10.87V11.9369H9.85128H8.96218V10.87V9.80305H9.85128H10.7404V10.87ZM13.677 10.1434C13.6262 10.5448 13.4331 11.2967 13.2908 11.6575L13.1892 11.9115L12.4729 11.9267L11.7565 11.942V10.87V9.80305H12.7371H13.7227L13.677 10.1434ZM5.15174 13.4458V13.9386L4.99424 13.7862C4.8215 13.6236 4.33884 13.0343 4.33884 12.9835C4.33884 12.9683 4.52174 12.953 4.74529 12.953H5.15174V13.4458ZM7.94606 14.0911V15.224L7.68695 15.1834C7.31607 15.1224 6.9147 15.0005 6.51333 14.8227L6.16785 14.6652V13.8116V12.953H7.05696H7.94606V14.0911ZM10.7404 13.8116V14.6652L10.4 14.8227C10.0139 14.9954 9.60233 15.1224 9.22129 15.1834L8.96218 15.224V14.0911V12.953H9.85128H10.7404V13.8116ZM12.5694 12.9835C12.5694 13.0292 12.0512 13.6592 11.8886 13.8116L11.7565 13.9336V13.4458V12.953H12.1629C12.3865 12.953 12.5694 12.9683 12.5694 12.9835Z" fill="#1B2024"/>
<path d="M16.2935 8.77169C16.1157 8.80725 15.9226 9.07144 15.9226 9.27975C15.9226 9.68619 16.4764 9.91482 16.7609 9.63031C17.1267 9.2645 16.8066 8.67516 16.2935 8.77169Z" fill="#1B2024"/>
<path d="M15.7246 18.3435C14.4596 18.5925 13.3266 19.512 12.8592 20.6653C12.534 21.4579 12.4832 22.474 12.722 23.2412C13.1284 24.5418 14.109 25.5021 15.3995 25.8679C15.9177 26.0152 16.8932 26.0254 17.3961 25.8882C18.6307 25.5529 19.6265 24.6384 20.0584 23.4292C20.5613 22.0269 20.1955 20.4672 19.1235 19.4054C18.5494 18.8363 17.9347 18.5112 17.1624 18.3588C16.7458 18.2825 16.0803 18.2724 15.7246 18.3435ZM16.2174 19.5832C16.0295 20.7873 15.0642 21.7475 13.8601 21.9406L13.5755 21.9812L13.606 21.7424C13.7584 20.5891 14.7034 19.5832 15.8466 19.3546C16.2733 19.2682 16.2682 19.2682 16.2174 19.5832ZM17.7619 19.6441C18.2446 19.8982 18.7069 20.3656 18.9406 20.833C19.0423 21.0311 19.1235 21.2242 19.1235 21.2598C19.1235 21.2953 19.0168 21.336 18.8593 21.3563C17.8585 21.4884 16.8271 22.154 16.2327 23.038C15.9583 23.4495 15.684 24.1455 15.6383 24.5622C15.6129 24.7603 15.5824 24.8416 15.5316 24.8416C15.3537 24.8416 14.7085 24.4402 14.4189 24.1557C14.0938 23.8305 13.8092 23.3835 13.7584 23.1193C13.728 22.9719 13.733 22.9618 13.8702 22.9618C14.0938 22.9618 14.6475 22.8094 14.9879 22.6569C15.684 22.347 16.3699 21.7323 16.7509 21.0769C16.9592 20.7212 17.1828 20.076 17.2285 19.695C17.2488 19.5324 17.2793 19.4562 17.3301 19.4562C17.3707 19.4562 17.5689 19.5425 17.7619 19.6441ZM19.2455 22.5147C19.0219 23.8153 18.1227 24.7298 16.8271 24.9635C16.6341 24.9991 16.6341 24.9991 16.6341 24.8263C16.6341 24.5876 16.7712 24.1557 16.9541 23.8001C17.3555 23.0481 18.3462 22.3826 19.1083 22.3572C19.2658 22.3521 19.2709 22.3572 19.2455 22.5147Z" fill="#1B2024"/>
</svg>
