<svg width="21" height="21" viewBox="0 0 21 21" fill="none" xmlns="http://www.w3.org/2000/svg">
<path d="M9.65398 0.0120125C7.19114 0.237488 4.94919 1.25682 3.18196 2.95728C1.79543 4.29134 0.766115 6.06226 0.305506 7.90365C0.0564011 8.8948 0 9.39742 0 10.506C0 11.6146 0.0564011 12.1172 0.305506 13.1084C1.21732 16.7535 4.12668 19.6894 7.79745 20.6665C8.79387 20.9342 9.34848 21 10.5 21C11.6092 21 12.1121 20.9436 13.0897 20.6994C16.7652 19.7787 19.7169 16.8522 20.671 13.1835C20.9389 12.1454 21 11.6475 21 10.506C21 9.36454 20.9389 8.86661 20.671 7.82849C19.7169 4.16451 16.7746 1.24273 13.1038 0.317343C12.7983 0.237488 12.333 0.143539 12.0745 0.101263C11.6186 0.0308018 10.077 -0.025568 9.65398 0.0120125ZM11.9335 1.60443C12.1685 1.64201 12.5633 1.73126 12.8124 1.79233C13.3013 1.91916 14.2601 2.27146 14.2601 2.32313C14.2601 2.34192 14.0204 2.41708 13.7337 2.49224C12.1873 2.88212 10.3543 3.62431 8.92547 4.44166C8.22986 4.83624 7.05953 5.62071 6.47202 6.08105L5.99261 6.46154L5.68241 6.13273C5.1372 5.55494 4.15488 4.26316 4.15488 4.12224C4.15488 4.09875 4.29588 3.95313 4.47448 3.80281C5.91741 2.53921 7.53424 1.80172 9.41898 1.55276C10.0347 1.4729 11.346 1.50109 11.9335 1.60443ZM16.8122 4.07996C17.536 4.79866 18.1235 5.59722 18.556 6.45215C18.6406 6.62595 18.6594 6.70111 18.6171 6.70111C18.5842 6.70111 18.2974 6.73399 17.9825 6.77157C15.5338 7.0769 13.0427 7.95062 11.0875 9.18604C10.2885 9.69336 10.4107 9.66517 9.99709 9.44909C9.43778 9.15785 8.68577 8.69751 8.18756 8.3405C7.68465 7.9835 7.14414 7.56074 7.13004 7.50906C7.11124 7.45739 8.25806 6.62125 8.92077 6.20788C10.9653 4.92549 13.0944 4.08936 15.4116 3.6525C16.2576 3.49279 16.2012 3.474 16.8122 4.07996ZM3.45457 5.79451C4.97739 7.85667 7.02663 9.6135 9.19337 10.7174L9.79029 11.0227L9.82319 11.2435C9.90309 11.7837 9.77619 14.1136 9.62578 14.7947C9.58818 14.9685 9.56468 14.9591 8.62936 14.5411C6.08662 13.3996 3.89637 11.7649 2.12444 9.68866L1.60743 9.08269L1.63563 8.85252C1.72493 8.18549 2.07744 7.16615 2.49105 6.37699C2.70725 5.95892 3.07386 5.33887 3.10676 5.33887C3.11146 5.33887 3.26656 5.54555 3.45457 5.79451ZM19.2751 8.40627C19.5806 9.63699 19.5947 11.1449 19.308 12.4272C19.1247 13.2352 18.9414 13.7472 18.556 14.5223C18.1846 15.2739 17.7851 15.8704 17.2305 16.4999C16.7182 17.0918 15.5996 18.0359 15.6889 17.8058C15.7077 17.7588 15.8158 17.3548 15.9286 16.918C16.1354 16.1053 16.3328 15.0249 16.4221 14.217C16.5772 12.8265 16.5584 10.8771 16.3751 9.44909C16.3187 9.01693 16.2905 8.64583 16.314 8.62235C16.4315 8.51431 18.8521 8.13852 19.1717 8.18079C19.1999 8.18549 19.2422 8.28883 19.2751 8.40627ZM14.8241 9.15315C14.8241 9.18604 14.857 9.45849 14.8993 9.75442C15.0638 10.9898 15.0591 13.0379 14.8946 14.3297C14.7066 15.7859 14.34 17.2515 13.8277 18.5902L13.6961 18.9472L13.306 19.0694C12.4364 19.3512 11.7549 19.4733 10.829 19.5109C10.453 19.525 10.0488 19.525 9.93129 19.5062L9.71509 19.4733L9.96419 18.8909C10.4342 17.7964 10.8243 16.5563 11.0358 15.4618C11.2755 14.2076 11.3131 13.8036 11.3272 12.2722L11.3366 10.8207L11.7925 10.5295C12.3706 10.1537 13.2261 9.71214 14.0251 9.36924C14.6784 9.09209 14.8241 9.05451 14.8241 9.15315ZM3.23366 12.9111C4.23478 13.7519 5.3393 14.5176 6.38742 15.1001C7.05483 15.4712 8.24396 16.0395 8.77977 16.2415C9.00537 16.3308 9.20278 16.4247 9.21688 16.4576C9.28268 16.622 8.25806 19.1962 8.12645 19.1962C8.08885 19.1962 7.81155 19.1069 7.50604 19.0036C6.22762 18.5527 5.1043 17.848 4.12668 16.8757C2.70255 15.4524 1.76253 13.5264 1.54163 11.5676L1.50873 11.2905L2.09154 11.8683C2.41115 12.183 2.92816 12.6527 3.23366 12.9111Z" fill="#1B2024"/>
</svg>
