<svg width="64" height="64" viewBox="0 0 64 64" fill="none" xmlns="http://www.w3.org/2000/svg">
<path d="M58 14H48V10.5C48 10.225 47.775 10 47.5 10H44C43.725 10 43.5 10.225 43.5 10.5V14H34.25V10.5C34.25 10.225 34.025 10 33.75 10H30.25C29.975 10 29.75 10.225 29.75 10.5V14H20.5V10.5C20.5 10.225 20.275 10 20 10H16.5C16.225 10 16 10.225 16 10.5V14H6C4.89375 14 4 14.8938 4 16V52C4 53.1063 4.89375 54 6 54H58C59.1063 54 60 53.1063 60 52V16C60 14.8938 59.1063 14 58 14ZM55.5 49.5H8.5V18.5H16V22C16 22.275 16.225 22.5 16.5 22.5H20C20.275 22.5 20.5 22.275 20.5 22V18.5H29.75V22C29.75 22.275 29.975 22.5 30.25 22.5H33.75C34.025 22.5 34.25 22.275 34.25 22V18.5H43.5V22C43.5 22.275 43.725 22.5 44 22.5H47.5C47.775 22.5 48 22.275 48 22V18.5H55.5V49.5ZM26 31H14.5C14.225 31 14 31.225 14 31.5V34.5C14 34.775 14.225 35 14.5 35H26C26.275 35 26.5 34.775 26.5 34.5V31.5C26.5 31.225 26.275 31 26 31ZM26 39.5H14.5C14.225 39.5 14 39.725 14 40V43C14 43.275 14.225 43.5 14.5 43.5H26C26.275 43.5 26.5 43.275 26.5 43V40C26.5 39.725 26.275 39.5 26 39.5ZM45.2625 28.4125L38.7875 37.3937L35.4875 32.825C35.3 32.5625 35 32.4125 34.6813 32.4125H31.25C30.8438 32.4125 30.6063 32.875 30.8438 33.2062L37.975 43.0938C38.0671 43.2215 38.1882 43.3256 38.3284 43.3974C38.4685 43.4691 38.6238 43.5066 38.7812 43.5066C38.9387 43.5066 39.094 43.4691 39.2341 43.3974C39.3743 43.3256 39.4954 43.2215 39.5875 43.0938L49.9 28.8C50.1375 28.4688 49.9 28.0063 49.4938 28.0063H46.0625C45.75 28 45.45 28.1562 45.2625 28.4125Z" fill="#8FD5FE"/>
</svg>
