<svg width="387" height="312" viewBox="0 0 387 312" fill="none" xmlns="http://www.w3.org/2000/svg">
<g clip-path="url(#clip0)">
<path d="M178.268 7.29083C142.871 17.8572 131.354 21.9781 118.991 28.2123C106.628 34.3408 92.5748 44.6959 82.431 55.051C70.491 67.4137 4.87362 144.231 4.3453 146.662C3.92264 147.93 4.02831 150.149 4.3453 151.628C5.19061 154.798 77.8875 242.393 81.1631 244.084C85.0726 246.303 89.7219 244.507 102.507 236.265C109.375 231.827 115.081 228.234 115.398 228.234C115.715 228.234 115.927 294.486 115.927 375.53C115.927 522.403 115.927 522.72 118.146 525.467C120.893 529.166 123.851 529.8 150.267 532.97C238.92 543.642 315.42 543.536 403.333 532.441C424.888 529.8 428.058 528.954 430.7 525.467C432.919 522.72 432.919 522.403 432.919 375.53C432.919 294.486 433.236 228.234 433.553 228.234C433.975 228.234 439.787 231.827 446.444 236.265C459.018 244.507 463.667 246.303 467.682 244.084C470.958 242.393 543.655 154.798 544.5 151.628C544.817 150.149 544.923 147.93 544.5 146.556C543.972 144.231 478.354 67.4137 466.414 55.051C455.531 43.8506 442.006 34.1295 428.164 27.4727C413.477 20.3932 411.152 19.5479 373.853 8.34747L345.957 0L274 0.105652L202.043 0.211304L178.268 7.29083ZM351.5 24.7521C342.096 36.7979 282.559 58.1152 274.423 58.1152C266.286 58.1152 236.278 37.6164 225.395 24.514L222.436 21.1328H274.423H326.304L351.5 24.7521ZM222.436 21.1328C228.459 29.1633 213.771 15.2156 223.915 22.8234C234.799 30.8539 252.691 50.3844 261.567 52.9203C267.167 54.5053 270.466 59.4847 276.067 57.8997C294.769 52.4052 334.699 44.3 351.5 24.7521C355.621 19.8916 350.289 25.782 350.712 25.0424C351.557 23.6687 363.814 26.9443 392.555 36.1371C421.084 45.2242 433.13 52.0924 449.297 68.1533C458.701 77.5574 519.458 147.613 519.669 149.303C519.669 149.832 506.567 165.998 490.506 185.44L461.131 220.627L448.874 212.596C431.228 201.079 432.919 203.826 432.919 186.92C432.919 173.289 432.707 172.127 430.488 169.591C425.1 163.251 415.167 165.787 412.843 174.134C412.209 176.776 411.786 233.518 411.786 344.042V510.04L402.065 511.308C354.833 517.437 324.613 519.233 274.423 519.233C224.761 519.233 195.386 517.543 152.381 511.942C146.041 511.097 139.912 510.357 138.961 510.357C137.165 510.357 137.059 501.693 137.059 344.148C137.059 236.688 136.637 176.67 136.003 174.24C134.418 168.746 131.459 166.421 125.753 166.421C121.844 166.421 120.576 166.949 118.462 169.38C116.032 172.232 115.927 173.078 115.927 186.92C115.927 199.494 115.715 201.713 114.13 203.086C113.074 204.037 106.734 208.264 99.9713 212.702L87.7142 220.627L58.551 185.546C42.49 166.315 29.3877 150.043 29.282 149.515C29.1764 147.824 95.4277 71.3232 102.613 64.7721C115.927 52.7263 130.086 44.6959 149.739 38.2504C164.532 33.2842 194.435 24.4084 196.231 24.4084C197.077 24.4084 220.428 18.4912 222.436 21.1328Z" fill="#1B2024"/>
<path d="M324.494 111.476C294.803 119.823 283.814 157.545 304.524 180.263C324.177 201.713 360.526 197.169 373.1 171.704C377.749 162.3 379.017 151.945 376.798 142.858C372.149 123.944 357.145 111.264 338.336 110.313C333.053 109.996 328.193 110.419 324.494 111.476ZM342.457 132.291C355.243 136.624 360.631 151.1 353.658 162.934C349.748 169.591 341.612 173.817 333.793 173.078C319.634 171.704 310.864 156.277 316.887 143.175C321.324 133.454 332.313 128.804 342.457 132.291Z" fill="#1B2024"/>
<rect x="281.455" y="109.548" width="107.863" height="107.863" fill="#F3FAFE"/>
<g clip-path="url(#clip1)">
<path d="M327.25 172.062V265.562H292.187V172.062H327.25ZM327.25 137H292.187C272.786 137 257.125 152.661 257.125 172.062V265.562C257.125 284.964 272.786 300.625 292.187 300.625H327.25C346.651 300.625 362.312 284.964 362.312 265.562V172.062C362.312 152.661 346.651 137 327.25 137ZM187 172.062H210.375V300.625H245.437V137H187V172.062ZM391.531 207.125C381.831 207.125 374 215.072 374 224.656V248.031C374 257.615 381.831 265.562 391.531 265.562H420.75V277.25H374V300.625H426.594C436.294 300.625 444.125 292.794 444.125 283.094V259.719C444.125 250.018 436.294 242.187 426.594 242.187H397.375V230.5H444.125V207.125H391.531Z" fill="#8FD5FE"/>
</g>
<path d="M218 26C218 24.8954 218.895 24 220 24H346C347.105 24 348 24.8954 348 26V62C348 63.1046 347.105 64 346 64H220C218.895 64 218 63.1046 218 62V26Z" fill="#F3FAFE"/>
<path d="M328.759 20.9579C328.984 19.8766 330.044 19.1828 331.125 19.4084L386.86 31.0333C387.941 31.2588 388.635 32.3182 388.409 33.3995L381.059 68.6411C380.833 69.7224 379.774 70.4161 378.692 70.1906L322.958 58.5657C321.877 58.3401 321.183 57.2807 321.408 56.1994L328.759 20.9579Z" fill="#F3FAFE"/>
<path d="M219 22C219 20.8954 219.895 20 221 20H328C329.105 20 330 20.8954 330 22V58C330 59.1046 329.105 60 328 60H221C219.895 60 219 59.1046 219 58V22Z" fill="#F3FAFE"/>
<path d="M146.858 104H155.271V90.9981H156.079L166.087 104H176.773L165.06 89.9711C167.449 89.1407 169.292 87.7859 170.589 85.9067C171.885 84.0128 172.534 81.7475 172.534 79.1107C172.534 76.7507 172.024 74.7404 171.004 73.0796C169.984 71.4043 168.549 70.1296 166.699 69.2556C164.864 68.3815 162.693 67.9444 160.187 67.9444H146.858V104ZM155.271 84.0056V74.653H157.478C159.474 74.653 161.003 75.0609 162.067 75.8767C163.13 76.6779 163.662 77.836 163.662 79.3511C163.662 80.8516 163.13 82.0025 162.067 82.8037C161.018 83.6049 159.488 84.0056 157.478 84.0056H155.271ZM180.703 104H201.418V96.6141H189.115V89.6215H200.894V82.2356H189.115V75.3304H201.418V67.9444H180.703V104ZM219.23 104.699C222.013 104.699 224.431 104.255 226.485 103.366C228.539 102.463 230.127 101.167 231.249 99.4767C232.385 97.7868 232.953 95.7546 232.953 93.38C232.953 91.3259 232.516 89.6288 231.642 88.2885C230.782 86.9337 229.515 85.7537 227.84 84.7485C226.179 83.7433 224.154 82.7309 221.765 81.7111C220.206 81.0556 219.041 80.5093 218.269 80.0722C217.496 79.6206 217.11 78.9359 217.11 78.0181C217.11 77.1149 217.467 76.3793 218.181 75.8111C218.91 75.243 219.915 74.9589 221.197 74.9589C222.435 74.9589 223.702 75.192 224.999 75.6581C226.31 76.1098 227.49 76.6925 228.539 77.4063L231.948 70.6978C231.059 70.0568 230.003 69.4814 228.779 68.9715C227.556 68.4616 226.266 68.0537 224.912 67.7478C223.571 67.4418 222.267 67.2889 221 67.2889C218.567 67.2889 216.433 67.8133 214.597 68.8622C212.776 69.8965 211.363 71.2514 210.358 72.9267C209.353 74.5874 208.85 76.3501 208.85 78.2148C208.85 80.4146 209.521 82.2647 210.861 83.7652C212.201 85.2511 213.876 86.453 215.887 87.3707C217.679 88.1865 219.15 88.8858 220.301 89.4685C221.466 90.0512 222.326 90.6485 222.879 91.2604C223.433 91.8722 223.71 92.637 223.71 93.5548C223.71 94.6765 223.324 95.5142 222.552 96.0678C221.794 96.6214 220.767 96.8981 219.47 96.8981C218.247 96.8981 217.038 96.6869 215.843 96.2644C214.663 95.842 213.563 95.3248 212.543 94.713C211.524 94.1011 210.635 93.5111 209.877 92.943L205.66 100.023C206.388 100.649 207.401 101.327 208.697 102.055C210.009 102.784 211.553 103.41 213.33 103.934C215.122 104.444 217.089 104.699 219.23 104.699ZM239.472 104H260.188V96.6141H247.885V89.6215H259.663V82.2356H247.885V75.3304H260.188V67.9444H239.472V104ZM268.494 104H276.907V81.9515L291.067 104H299.48V67.9444H291.067V89.993L276.907 67.9444H268.494V104ZM308.655 104H317.068V89.6215H328.3V104H336.735V67.9444H328.3V82.2356H317.068V67.9444H308.655V104ZM341.042 104H350.11L352.71 96.9637H366.39L368.968 104H378.037L363.462 67.9444H355.639L341.042 104ZM355.573 89.5778L359.55 79.373L363.505 89.5778H355.573Z" fill="#8FD5FE"/>
</g>
<defs>
<clipPath id="clip0">
<rect width="391" height="312" fill="white"/>
</clipPath>
<clipPath id="clip1">
<rect width="187" height="181.657" fill="white" transform="translate(175 137)"/>
</clipPath>
</defs>
</svg>
