<svg width="57" height="57" viewBox="0 0 57 57" fill="none" xmlns="http://www.w3.org/2000/svg">
<path d="M42.75 14.25V14.2738" stroke="#61C4FF" stroke-width="4.75" stroke-linecap="round" stroke-linejoin="round"/>
<path d="M42.75 30.8749L34.4375 18.9999C33.6373 17.5536 33.2283 15.9236 33.2509 14.2708C33.2735 12.6181 33.7269 10.9998 34.5664 9.57593C35.4059 8.15206 36.6023 6.97186 38.0375 6.15194C39.4728 5.33202 41.0971 4.90076 42.75 4.90076C44.4029 4.90076 46.0272 5.33202 47.4624 6.15194C48.8976 6.97186 50.0941 8.15206 50.9336 9.57593C51.773 10.9998 52.2265 12.6181 52.2491 14.2708C52.2717 15.9236 51.8627 17.5536 51.0625 18.9999L42.75 30.8749Z" stroke="#61C4FF" stroke-width="4.75" stroke-linecap="round" stroke-linejoin="round"/>
<path d="M24.9375 11.2812L21.375 9.5L7.125 16.625V47.5L21.375 40.375L35.625 47.5L49.875 40.375V35.625" stroke="#61C4FF" stroke-width="4.75" stroke-linecap="round" stroke-linejoin="round"/>
<path d="M21.375 9.5V40.375" stroke="#61C4FF" stroke-width="4.75" stroke-linecap="round" stroke-linejoin="round"/>
<path d="M35.625 35.625V47.5" stroke="#61C4FF" stroke-width="4.75" stroke-linecap="round" stroke-linejoin="round"/>
</svg>
