<svg width="149" height="160" viewBox="0 0 149 160" fill="none" xmlns="http://www.w3.org/2000/svg">
<g clip-path="url(#clip0_169:11)">
<path d="M69.6514 15.5034C59.3322 17.4134 51.444 25.1032 49.3355 35.2983C48.8146 37.7789 48.8146 42.616 49.3355 45.0718C51.2703 54.498 58.3152 61.9397 67.6669 64.4202C69.825 64.9908 70.6188 65.0652 73.8683 65.0652C77.0435 65.0652 77.9365 64.966 79.9457 64.445C84.5844 63.2048 88.4541 60.9226 91.7284 57.4994C94.9284 54.1755 96.9376 50.6531 98.0787 46.3865C98.5748 44.6005 98.6492 43.6827 98.6492 40.1851C98.6492 36.7123 98.5748 35.7697 98.0787 33.9836C95.6973 25.1032 88.8014 18.232 80.045 15.9747C76.8946 15.1809 72.5288 14.9825 69.6514 15.5034ZM77.1427 23.7141C89.4215 26.2443 94.6803 40.6068 87.0154 50.6283C85.0805 53.1336 82.1286 55.1677 78.8295 56.2344C77.2171 56.7553 76.3241 56.8793 74.1164 56.9041C70.9165 56.9289 69.4281 56.6064 66.6747 55.3165C63.1027 53.6298 60.4485 51.0004 58.7369 47.5028C57.447 44.8485 57.0501 42.8145 57.1741 39.4409C57.3477 34.7774 58.7369 31.6767 62.0856 28.2535C66.0049 24.3094 71.6854 22.573 77.1427 23.7141Z" fill="#F3FAFE"/>
<path d="M30.6825 42.3928C25.0268 43.7819 20.5866 48.1477 19.1726 53.729C16.7169 63.3536 23.5632 72.755 33.4359 73.3503C39.7118 73.7224 45.6899 70.2744 48.3689 64.7427C49.6588 62.0637 50.0309 60.4761 50.0309 57.6731C50.0309 54.8701 49.6588 53.2825 48.3689 50.6035C45.2434 44.1788 37.6777 40.6812 30.6825 42.3928ZM37.7025 50.9259C40.3319 52.2903 41.845 54.7212 41.845 57.6731C41.845 60.625 40.3567 63.0063 37.6529 64.4451C36.611 64.9908 36.0901 65.1148 34.4281 65.1148C32.7414 65.1148 32.2204 65.0156 31.0298 64.4202C29.5166 63.6761 28.4252 62.5846 27.557 60.9474C27.0857 60.0793 26.9864 59.5087 26.9864 57.6731C26.9864 55.639 27.0608 55.3166 27.7554 54.0763C28.6484 52.5135 30.4344 51.0252 32.0716 50.4794C33.6592 49.9585 36.1645 50.157 37.7025 50.9259Z" fill="#F3FAFE"/>
<path d="M109.713 42.3186C105.298 43.2612 101.081 46.5603 99.1212 50.6037C97.8313 53.2827 97.4592 54.8702 97.4592 57.6733C97.4592 62.0391 98.9475 65.6607 102.023 68.7366C108.225 74.9381 118.098 74.9381 124.225 68.7366C127.127 65.7847 128.516 62.6344 128.739 58.5167C128.913 55.5648 128.417 53.109 127.152 50.5292C125.887 47.9991 122.687 44.8239 120.132 43.6085C116.808 41.9961 113.211 41.5496 109.713 42.3186ZM115.369 50.4796C117.08 51.0006 118.842 52.4641 119.76 54.1013C120.429 55.3167 120.504 55.664 120.504 57.6733C120.504 59.6825 120.429 60.0298 119.76 61.2453C115.989 68.0421 105.645 65.4375 105.645 57.6733C105.645 52.5633 110.433 49.0161 115.369 50.4796Z" fill="#F3FAFE"/>
<path d="M20.0156 77.7163C17.5598 78.8326 15.1537 79.9985 14.6575 80.3209C13.2932 81.1643 12.0033 82.7271 11.1351 84.5627L10.3662 86.1999L10.2917 91.161C10.2173 95.9733 10.2173 96.147 10.7879 97.2136C11.4576 98.4787 13.0452 99.4709 14.3351 99.4709C15.625 99.4709 17.2125 98.4787 17.8575 97.2384C18.3784 96.2462 18.428 95.8741 18.428 92.1284C18.428 88.2836 18.4528 88.0603 18.9985 87.465C19.2962 87.1425 21.0822 86.1751 22.9923 85.3565L26.4403 83.8433H33.0138H39.5873L37.9749 85.5301C36.0897 87.465 34.6757 90.0448 34.1548 92.5005C33.9068 93.6912 33.8075 96.1222 33.8075 101.455C33.8075 108.575 33.8323 108.798 34.3781 109.765C35.916 112.544 40.2074 112.42 41.5221 109.542C41.9438 108.624 41.9934 107.806 41.9934 101.703C41.9934 97.5113 42.0926 94.5098 42.2663 93.8896C42.6384 92.5749 43.7794 90.9378 44.7717 90.3424C46.3344 89.375 58.9605 83.8433 59.6055 83.8433C60.0768 83.8433 60.3993 84.141 60.9698 85.1084C62.6814 88.0355 66.4022 90.7393 69.8998 91.6571C71.8347 92.1781 75.6548 92.1781 77.5896 91.6571C81.0872 90.7393 84.8081 88.0355 86.5196 85.1084C87.0902 84.141 87.4127 83.8433 87.884 83.8433C88.2312 83.8433 91.6792 85.2573 95.5737 86.9937C105.868 91.6075 105.322 90.8137 105.496 101.455C105.62 108.475 105.645 109.096 106.116 109.889C106.687 110.882 108.423 111.874 109.589 111.874C110.928 111.874 112.491 110.882 113.136 109.641C113.657 108.575 113.682 108.327 113.682 101.331C113.682 96.1222 113.583 93.6912 113.335 92.5005C112.814 90.0448 111.4 87.465 109.515 85.5301L107.902 83.8433H114.476H121.049L124.497 85.3565C126.407 86.1751 128.193 87.1425 128.516 87.465C129.037 88.0603 129.061 88.2836 129.061 92.1284C129.061 95.8741 129.111 96.2462 129.632 97.2384C130.277 98.4787 131.864 99.4709 133.154 99.4709C134.444 99.4709 136.032 98.4787 136.702 97.2136C137.272 96.147 137.272 95.9733 137.198 91.161L137.123 86.1999L136.354 84.5875C135.461 82.7023 134.395 81.3876 132.931 80.3953C132.361 79.9985 129.88 78.783 127.375 77.6667L122.835 75.6575H113.186H103.512L100.188 77.1458L96.8636 78.6341L93.8125 77.2202L90.7366 75.7815L87.5367 75.7071C85.7755 75.6575 83.9647 75.6823 83.4934 75.7815C82.1787 76.0295 81.0624 77.1954 80.343 79.0806C79.0779 82.4046 77.0687 83.8433 73.7447 83.8433C70.4208 83.8433 68.4115 82.4046 67.1712 79.1054C66.5015 77.3939 65.6333 76.352 64.4922 75.9303C64.0953 75.7815 62.3093 75.6575 60.5233 75.6575H57.2489L53.9498 77.1458L50.6258 78.6093L47.3018 77.121L43.9531 75.6575L34.2292 75.6823H24.5054L20.0156 77.7163Z" fill="#F3FAFE"/>
<g clip-path="url(#clip1_169:11)">
<path d="M70.9218 107.536V120.851H65.9287V107.536H70.9218ZM70.9218 102.543H65.9287C63.1658 102.543 60.9355 104.773 60.9355 107.536V120.851C60.9355 123.614 63.1658 125.844 65.9287 125.844H70.9218C73.6847 125.844 75.915 123.614 75.915 120.851V107.536C75.915 104.773 73.6847 102.543 70.9218 102.543ZM50.9492 107.536H54.278V125.844H59.2712V102.543H50.9492V107.536Z" fill="#8FD5FE"/>
</g>
</g>
<path d="M40.1734 153.176H44.1167V147.081H44.4957L49.1867 153.176H54.1952L48.7053 146.6C49.8252 146.211 50.6889 145.576 51.2966 144.695C51.9043 143.807 52.2082 142.745 52.2082 141.509C52.2082 140.403 51.9692 139.461 51.4912 138.683C51.0133 137.897 50.3407 137.3 49.4735 136.89C48.6131 136.481 47.5957 136.276 46.4213 136.276H40.1734V153.176ZM44.1167 143.804V139.42H45.1512C46.0867 139.42 46.8037 139.611 47.3021 139.994C47.8006 140.369 48.0498 140.912 48.0498 141.622C48.0498 142.325 47.8006 142.865 47.3021 143.24C46.8105 143.616 46.0935 143.804 45.1512 143.804H44.1167ZM56.0371 153.176H65.7468V149.714H59.9804V146.436H65.501V142.974H59.9804V139.738H65.7468V136.276H56.0371V153.176ZM74.0956 153.503C75.3998 153.503 76.5333 153.295 77.4961 152.879C78.4589 152.455 79.2031 151.847 79.7289 151.055C80.2615 150.263 80.5278 149.311 80.5278 148.198C80.5278 147.235 80.323 146.439 79.9133 145.811C79.5104 145.176 78.9164 144.623 78.1311 144.152C77.3527 143.681 76.4036 143.206 75.2837 142.728C74.5531 142.421 74.0069 142.165 73.645 141.96C73.2831 141.748 73.1021 141.428 73.1021 140.997C73.1021 140.574 73.2694 140.229 73.604 139.963C73.9454 139.697 74.4166 139.563 75.0174 139.563C75.5978 139.563 76.1919 139.673 76.7996 139.891C77.4142 140.103 77.9672 140.376 78.4589 140.711L80.0567 137.566C79.6402 137.266 79.1451 136.996 78.5715 136.757C77.998 136.518 77.3937 136.327 76.7586 136.183C76.1304 136.04 75.5193 135.968 74.9253 135.968C73.7849 135.968 72.7846 136.214 71.9243 136.706C71.0707 137.191 70.4084 137.826 69.9372 138.611C69.4661 139.389 69.2305 140.216 69.2305 141.09C69.2305 142.121 69.5446 142.988 70.1728 143.691C70.801 144.388 71.5863 144.951 72.5286 145.381C73.3684 145.763 74.0581 146.091 74.5975 146.364C75.1438 146.638 75.5466 146.917 75.8061 147.204C76.0656 147.491 76.1953 147.85 76.1953 148.28C76.1953 148.805 76.0144 149.198 75.6525 149.458C75.2974 149.717 74.816 149.847 74.2083 149.847C73.6347 149.847 73.068 149.748 72.5081 149.55C71.955 149.352 71.4394 149.109 70.9615 148.823C70.4835 148.536 70.067 148.259 69.7119 147.993L67.7351 151.311C68.0765 151.605 68.5511 151.923 69.1588 152.264C69.7734 152.605 70.4972 152.899 71.3302 153.145C72.1701 153.384 73.0919 153.503 74.0956 153.503ZM83.5834 153.176H93.2932V149.714H87.5267V146.436H93.0473V142.974H87.5267V139.738H93.2932V136.276H83.5834V153.176ZM97.1865 153.176H101.13V142.841L107.767 153.176H111.71V136.276H107.767V146.61L101.13 136.276H97.1865V153.176ZM116.011 153.176H119.954V146.436H125.219V153.176H129.172V136.276H125.219V142.974H119.954V136.276H116.011V153.176ZM131.191 153.176H135.441L136.66 149.877H143.072L144.281 153.176H148.531L141.699 136.276H138.033L131.191 153.176ZM138.002 146.416L139.866 141.632L141.72 146.416H138.002Z" fill="#F3FAFE"/>
<g clip-path="url(#clip2_169:11)">
<path d="M1.05424 132.921C0.593039 132.939 0.250429 132.969 0.193327 133C0.140618 133.031 0.0835166 133.11 0.0659469 133.176C0.0176301 133.347 -0.0131169 154.945 0.0351999 155.933C0.0659469 156.574 0.087909 156.75 0.145011 156.807C0.202112 156.864 0.399772 156.882 1.32657 156.917C2.65748 156.965 33.8218 156.934 34.0326 156.886C34.1161 156.869 34.2083 156.803 34.2522 156.741C34.3225 156.636 34.3269 155.845 34.3269 144.917C34.3269 133.988 34.3225 133.198 34.2522 133.092C34.2083 133.031 34.1161 132.965 34.0326 132.947C33.8613 132.908 2.16114 132.881 1.05424 132.921ZM16.6913 135.956V138.021H17.1964H17.7016V135.956V133.892H25.5201H33.3386V135.798V137.704L32.8247 137.731C30.7866 137.832 30.2859 137.933 29.1438 138.482C28.362 138.855 27.9008 139.189 27.2112 139.883C26.526 140.573 26.258 140.933 25.9022 141.649C25.2653 142.914 25.0852 143.77 25.1379 145.246C25.1775 146.379 25.34 147.056 25.8056 148.013C26.2009 148.822 26.5172 149.256 27.2287 149.972C27.9579 150.697 28.3444 150.978 29.1702 151.369C30.3122 151.909 30.7646 152.002 32.8247 152.103L33.3386 152.129V154.035V155.942H25.5201H17.7016V153.855V151.769H17.1964H16.6913V153.855V155.942H8.85081H1.01032V154.031V152.12H1.11135C1.58573 152.116 3.04402 152.019 3.36027 151.967C4.41885 151.8 5.61359 151.277 6.45254 150.614C6.93571 150.232 7.62093 149.52 7.94158 149.068C8.26662 148.611 8.75857 147.644 8.92548 147.135C9.16706 146.401 9.2022 146.129 9.2022 144.917C9.2022 143.704 9.16706 143.436 8.92548 142.699C8.74978 142.163 8.20951 141.122 7.88008 140.687C7.5199 140.208 6.81711 139.505 6.32516 139.132C5.90349 138.816 4.86687 138.275 4.3266 138.1C3.64578 137.876 3.10112 137.801 1.57255 137.731L1.01032 137.704V135.798V133.892H8.85081H16.6913V135.956ZM2.63991 138.811C3.30317 138.86 3.72045 138.956 4.37053 139.211C5.21827 139.54 5.8947 140.002 6.57553 140.718C7.21243 141.381 7.65168 142.128 7.96793 143.076C8.16998 143.678 8.21391 143.986 8.21391 144.921C8.21391 145.795 8.15681 146.226 7.95036 146.827C7.31785 148.694 5.93424 150.095 4.08941 150.732C3.49644 150.939 3.07476 151.009 2.26216 151.044C1.90198 151.057 1.47152 151.079 1.309 151.092L1.01032 151.114V149.164V147.21L1.11135 147.183C1.16405 147.17 1.61208 147.157 2.10843 147.157C3.4569 147.157 3.94886 147.104 4.29586 146.933C4.70435 146.731 5.12603 146.305 5.34126 145.865C5.49499 145.549 5.51256 145.483 5.52574 145.092C5.53452 144.86 5.52135 144.561 5.49499 144.429C5.36322 143.792 4.91519 143.226 4.30025 142.923C3.88736 142.721 3.54914 142.681 2.17431 142.677C1.64283 142.677 1.16405 142.663 1.11135 142.65L1.01032 142.624V140.678V138.732L1.52863 138.75C1.80974 138.763 2.31048 138.789 2.63991 138.811ZM33.3386 140.696C33.3386 142.413 33.3298 142.628 33.2683 142.65C33.2288 142.663 32.7632 142.677 32.2273 142.677C30.8086 142.681 30.4747 142.716 30.0619 142.923C29.2185 143.34 28.7529 144.188 28.8276 145.176C28.8803 145.865 29.3942 146.586 30.0619 146.92C30.4572 147.113 30.8174 147.152 32.2185 147.157C32.7281 147.157 33.1849 147.17 33.242 147.183L33.3386 147.21V149.164V151.114L33.0443 151.092C32.8774 151.079 32.4513 151.057 32.0868 151.044C31.0545 151.005 30.3649 150.833 29.5128 150.407C27.7558 149.529 26.5699 147.934 26.1965 145.949C26.0955 145.422 26.0955 144.416 26.1965 143.884C26.6533 141.455 28.3664 139.589 30.7119 138.965C31.2346 138.824 31.6871 138.78 32.6051 138.772L33.3386 138.767V140.696ZM3.83026 143.81C4.41885 144.1 4.69557 144.864 4.41445 145.431C4.2739 145.707 3.97521 145.988 3.7512 146.063C3.64139 146.094 3.12308 146.12 2.2973 146.133L1.01032 146.155V144.917V143.678L2.31926 143.696C3.5755 143.709 3.6326 143.713 3.83026 143.81ZM33.3386 144.921V146.155L32.056 146.133C31.1556 146.12 30.7207 146.098 30.6021 146.059C30.3693 145.975 30.1277 145.756 29.9784 145.483C29.8642 145.277 29.8466 145.202 29.8466 144.917C29.8466 144.557 29.9037 144.416 30.1585 144.1C30.4484 143.74 30.6461 143.7 32.2317 143.691L33.3386 143.687V144.921Z" fill="#F3FAFE"/>
<path d="M17.3727 139.873C14.5476 139.873 12.2548 142.166 12.2548 144.991C12.2548 147.816 14.5476 150.109 17.3727 150.109C20.1979 150.109 22.4907 147.816 22.4907 144.991C22.4907 142.166 20.1979 139.873 17.3727 139.873ZM17.8845 141.562L18.5755 141.076C19.5013 141.363 20.2955 141.969 20.8171 142.785L20.6175 143.471L19.9266 143.707L17.8845 142.279V141.562ZM16.17 141.076L16.8609 141.562V142.279L14.8189 143.707L14.1279 143.471L13.9283 142.785C14.453 141.971 15.2461 141.367 16.17 141.076ZM14.8547 147.607L14.2712 147.658C13.6297 146.918 13.2771 145.971 13.2784 144.991C13.2784 144.93 13.2835 144.874 13.2886 144.812L13.8004 144.439L14.5067 144.684L15.2539 146.905L14.8547 147.607ZM18.6522 148.876C18.2479 149.009 17.818 149.086 17.3727 149.086C16.9275 149.086 16.4976 149.009 16.0932 148.876L15.7401 148.113L16.0677 147.55H18.6829L19.0105 148.118L18.6522 148.876ZM18.5345 146.527H16.211L15.52 144.469L17.3727 143.169L19.2306 144.469L18.5345 146.527ZM20.4742 147.658L19.8908 147.607L19.4865 146.905L20.2337 144.684L20.9451 144.444L21.4569 144.817C21.462 144.874 21.4671 144.93 21.4671 144.991C21.4671 146.01 21.0935 146.941 20.4742 147.658Z" fill="#8FD5FE"/>
</g>
<defs>
<clipPath id="clip0_169:11">
<rect width="127.005" height="127.005" fill="white" transform="translate(10.2421)"/>
</clipPath>
<clipPath id="clip1_169:11">
<rect width="26.6301" height="25.8693" fill="white" transform="translate(50.1873 101.399)"/>
</clipPath>
<clipPath id="clip2_169:11">
<rect width="34.3927" height="24.0705" fill="white" transform="translate(0 132.88)"/>
</clipPath>
</defs>
</svg>
