<svg width="31" height="31" viewBox="0 0 31 31" fill="none" xmlns="http://www.w3.org/2000/svg">
<path d="M15.0779 0C6.75491 0 0 6.75491 0 15.0779C0 23.4009 6.75491 30.1558 15.0779 30.1558C23.4009 30.1558 30.1558 23.4009 30.1558 15.0779C30.1558 6.75491 23.4009 0 15.0779 0ZM16.5857 4.97571L18.6212 3.54331C21.3487 4.3885 23.6885 6.17274 25.2254 8.57934L24.6373 10.5998L22.6018 11.2934L16.5857 7.08662V4.97571ZM11.5346 3.54331L13.5701 4.97571V7.08662L7.55404 11.2934L5.51852 10.5998L4.93048 8.57934C6.47626 6.18099 8.81271 4.39932 11.5346 3.54331ZM7.65958 22.7827L5.9407 22.9335C4.0506 20.7532 3.01181 17.9634 3.01558 15.0779C3.01558 14.897 3.03066 14.7311 3.04574 14.5502L4.55353 13.4495L6.63429 14.1732L8.83566 20.7171L7.65958 22.7827ZM18.8474 26.5221C17.6562 26.9141 16.3897 27.1403 15.0779 27.1403C13.7661 27.1403 12.4996 26.9141 11.3084 26.5221L10.2681 24.2755L11.2331 22.6169H18.9379L19.9029 24.2905L18.8474 26.5221ZM18.5006 19.6013H11.6552L9.61971 13.54L15.0779 9.71018L20.5512 13.54L18.5006 19.6013ZM24.2151 22.9335L22.4963 22.7827L21.3051 20.7171L23.5065 14.1732L25.6023 13.4646L27.1101 14.5653C27.1252 14.7311 27.1403 14.897 27.1403 15.0779C27.1403 18.0784 26.0396 20.8226 24.2151 22.9335Z" fill="#F3FAFE"/>
</svg>
